<?xml version="1.0" standalone="no"?>
<!DOCTYPE svg PUBLIC "-//W3C//DTD SVG 1.1//EN" "http://www.w3.org/Graphics/SVG/1.1/DTD/svg11.dtd" >
<svg>
<metadata>
Created by FontForge 20090914 at Thu Nov 29 17:21:57 2012
 By www-data
Copyright (c) 1989 Adobe Systems Incorporated.  All Rights Reserved.Trade Gothic is a trademark of Linotype AG and/or its subsidiaries.
</metadata>
<defs>
<font id="TradeGothic" horiz-adv-x="500" >
  <font-face 
    font-family="TradeGothic"
    font-weight="400"
    font-stretch="normal"
    units-per-em="1000"
    panose-1="0 0 4 0 0 0 0 0 0 0"
    ascent="800"
    descent="-200"
    x-height="520"
    cap-height="722"
    bbox="-167 -224.001 1000 960"
    underline-thickness="50"
    underline-position="-75"
    unicode-range="U+0020-U+F002"
  />
<missing-glyph 
d="M63 0v806h375v-806h-375zM125 63h250v681h-250v-681z" />
    <glyph glyph-name=".notdef" 
d="M63 0v806h375v-806h-375zM125 63h250v681h-250v-681z" />
    <glyph glyph-name="space" unicode=" " horiz-adv-x="305" 
 />
    <glyph glyph-name="exclam" unicode="!" horiz-adv-x="333" 
d="M113 722h106l-21 -494h-64zM117 110h98v-110h-98v110z" />
    <glyph glyph-name="quotedbl" unicode="&#x22;" horiz-adv-x="333" 
d="M76 452v270h62v-270h-62zM195 452v270h62v-270h-62z" />
    <glyph glyph-name="numbersign" unicode="#" horiz-adv-x="611" 
d="M250 438l-20 -152h135l21 152h-136zM222 230l-31 -230h-62l31 230h-99v56h107l20 152h-99v56h107l31 228h62l-31 -228h136l30 228h62l-30 -228h94v-56h-102l-21 -152h95v-56h-103l-31 -230h-62l31 230h-135z" />
    <glyph glyph-name="dollar" unicode="$" horiz-adv-x="611" 
d="M275 417v242.997c-39.333 0.666992 -71 -9.16602 -95 -29.499s-35.667 -47.166 -35 -80.499c0.666992 -71.333 44 -115.666 130 -132.999zM343 321.997v-259.999c38 2 70.833 14.167 98.5 36.5s41.5 50.833 41.5 85.5c0 39.333 -14.667 70.666 -44 93.999
c-20 15.333 -52 30 -96 44zM275 721.998v77.001h68v-77c38 -2.66699 74.667 -16.334 110 -41.001c30.667 -21.333 55.667 -47 75 -77l-52 -42c-33.333 55.333 -77.666 88 -132.999 98v-261c74.667 -24 127.667 -50.333 159 -79c35.333 -32 53 -75.333 53 -130
s-20.833 -100 -62.5 -136s-91.5 -54 -149.5 -54v-124h-68v124c-74 1.33301 -147.333 45 -220 131l58 44c48.667 -72 102.667 -109.667 162 -113v279c-134.667 32 -202 97.667 -202 197c0 58.667 21 105 63 139c37.333 30 83.666 45 138.999 45z" />
    <glyph glyph-name="percent" unicode="%" horiz-adv-x="889" 
d="M662 62c30 0 55 9.66699 75 29s30 44.333 30 75s-10 55.667 -30 75s-45 29 -75 29s-55 -9.66699 -75 -29s-30 -44.333 -30 -75s10 -55.667 30 -75s45 -29 75 -29zM662 0c-46.667 0 -86.167 16 -118.5 48s-48.5 71.333 -48.5 118s16.167 86 48.5 118s71.833 48 118.5 48
s86.167 -16 118.5 -48s48.5 -71.333 48.5 -118s-16.167 -86 -48.5 -118s-71.833 -48 -118.5 -48zM227 390c-46.667 0 -86.167 16 -118.5 48s-48.5 71.333 -48.5 118s16.167 86 48.5 118s71.833 48 118.5 48s86.167 -16 118.5 -48s48.5 -71.333 48.5 -118
s-16.167 -86 -48.5 -118s-71.833 -48 -118.5 -48zM227 452c30 0 55 9.66699 75 29s30 44.333 30 75s-10 55.667 -30 75s-45 29 -75 29s-55 -9.66699 -75 -29s-30 -44.333 -30 -75s10 -55.667 30 -75s45 -29 75 -29zM207 -10l415 742h59l-415 -742h-59z" />
    <glyph glyph-name="ampersand" unicode="&#x26;" horiz-adv-x="667" 
d="M224 585c0 -33.333 14 -76.333 42 -129c72 46 108 93 108 141c0 21.333 -7.16699 38.833 -21.5 52.5s-31.166 20.5 -50.499 20.5c-24.667 0 -43.834 -8.5 -57.501 -25.5s-20.5 -36.833 -20.5 -59.5zM530 364l66.0029 -16.002c-16.667 -89.333 -43.667 -161 -81 -215
c14.667 -16 34.667 -30.167 60 -42.5s45 -18.5 59 -18.5v-72h-26c-18 0 -41 7 -69 21s-52.333 31 -73 51c-50.667 -54.667 -119.334 -82 -206.001 -82c-58 0 -108 18.667 -150 56c-44 40 -66 90.333 -66 151c0 79.333 52.333 152 157 218
c-38 56.667 -57 114.334 -57 173.001c0 42 14.667 76.5 44 103.5s68.666 40.5 117.999 40.5c42.667 0 78 -12 106 -36s42 -56.667 42 -98c0 -37.333 -17 -74.666 -51 -111.999c-21.333 -24 -55 -52.667 -101 -86c37.333 -67.333 91.666 -140 162.999 -218
c29.333 38 51 98.667 65 182zM124.003 191.998c0 -42.667 15.668 -76.333 47.001 -101c27.333 -22 60.333 -33 99 -33c56 0 104.667 20 146 60c-74.667 86 -135.334 166.667 -182.001 242c-35.333 -23.333 -61 -45 -77 -65c-22 -28.667 -33 -63 -33 -103z" />
    <glyph glyph-name="quotesingle" unicode="'" horiz-adv-x="222" 
d="M80 452v270h62v-270h-62z" />
    <glyph glyph-name="parenleft" unicode="(" horiz-adv-x="333" 
d="M203 732l78 0.000976562c-95.333 -128.667 -143 -265.667 -143 -411c0 -136 47.333 -271 142 -405h-74c-93.333 123.333 -140 260 -140 410c0 149.333 45.667 284.666 137 405.999z" />
    <glyph glyph-name="parenright" unicode=")" horiz-adv-x="333" 
d="M130 -84l-78 -0.000976562c95.333 128.667 143 265.667 143 411c0 136 -47.333 271 -142 405h74c93.333 -123.333 140 -260 140 -410c0 -149.333 -45.667 -284.666 -137 -405.999z" />
    <glyph glyph-name="asterisk" unicode="*" 
d="M222 544l-148 23l18 65l137 -65l6 4l-22 151h67l-18 -149l7 -6l132 69l25 -67l-149 -31l-3 -8l106 -106l-54 -42l-73 134h-8l-73 -132l-52 39l104 114z" />
    <glyph glyph-name="plus" unicode="+" horiz-adv-x="600" 
d="M269 291v229h62v-229h229v-62h-229v-229h-62v229h-229v62h229z" />
    <glyph glyph-name="comma" unicode="," horiz-adv-x="305" 
d="M201 110v-110l-63 -148h-42l47 148h-40v110h98z" />
    <glyph glyph-name="hyphen" unicode="-" horiz-adv-x="333" 
d="M292 229h-252v62h252v-62z" />
    <glyph glyph-name="hyphen" unicode="&#x2010;" horiz-adv-x="333" 
d="M292 229h-252v62h252v-62z" />
    <glyph glyph-name="period" unicode="." horiz-adv-x="305" 
d="M103 110h98v-110h-98v110z" />
    <glyph glyph-name="slash" unicode="/" horiz-adv-x="278" 
d="M225 732h61l-234 -742h-60z" />
    <glyph glyph-name="zero" unicode="0" horiz-adv-x="611" 
d="M50 361c0 247.333 85 371 255 371s255 -123.667 255 -371s-85 -371 -255 -371s-255 123.667 -255 371zM126 361c0 -206 59.667 -309 179 -309s179 103 179 309s-59.667 309 -179 309s-179 -103 -179 -309z" />
    <glyph glyph-name="one" unicode="1" horiz-adv-x="611" 
d="M475 0h-319.999v62h125v587l-139 -14v47c45.333 14 70.666 21.667 75.999 23c28 9.33301 49 18.333 63 27h72v-670h123v-62z" />
    <glyph glyph-name="two" unicode="2" horiz-adv-x="611" 
d="M535 62v-61.999h-469v76c34 69.333 86.667 132.333 158 189l162 123c49.333 45.333 74 95.333 74 150c0 42 -12.833 74.5 -38.5 97.5s-61.5 34.5 -107.5 34.5c-48 0 -87.667 -17 -119 -51c-27.333 -28.667 -44.333 -64 -51 -106l-71 16
c31.333 135.333 112.333 203 243 203c62 0 113.333 -16.333 154 -49c44 -36 66 -83.667 66 -143c0 -62.667 -28.333 -122 -85 -178c-1.33301 -0.666992 -58.666 -46.334 -171.999 -137.001c-70.667 -56 -116.334 -110.333 -137.001 -163h393z" />
    <glyph glyph-name="three" unicode="3" horiz-adv-x="611" 
d="M34 132l58 39.998c59.333 -80 125.333 -120 198 -120c52.667 0 94.167 12.5 124.5 37.5s45.5 59.167 45.5 102.5c0 108 -68 162 -204 162h-71v62h43c137.333 0 206 45 206 135c0 35.333 -13 64 -39 86s-57 33 -93 33c-40.667 0 -74.667 -9 -102 -27
c-20.667 -13.333 -44.667 -37.666 -72 -72.999l-59 40c58.667 81.333 136.334 122 233.001 122c64.667 0 115.5 -15.833 152.5 -47.5s55.5 -75.834 55.5 -132.501c0 -77.333 -37.333 -130.666 -112 -159.999c92 -35.333 138 -99.333 138 -192
c0 -62 -22.333 -112.5 -67 -151.5s-104.334 -58.5 -179.001 -58.5c-61.333 0 -117 16.667 -167 50c-37.333 24.667 -67 55.334 -89 92.001z" />
    <glyph glyph-name="four" unicode="4" horiz-adv-x="611" 
d="M566 170h-124v-170h-72v170h-332v62l298 490h106v-490h124v-62zM367 646l-253 -414h256v414h-3z" />
    <glyph glyph-name="five" unicode="5" horiz-adv-x="611" 
d="M501 722l-0.00195312 -62h-310l-18 -231c42.667 39.333 92 59 148 59c64 0 117.667 -20.333 161 -61c46.667 -44.667 70 -105.667 70 -183c0 -65.333 -18.667 -121.333 -56 -168c-45.333 -57.333 -110 -86 -194 -86c-94 0 -170.667 46 -230 138l65 34
c39.333 -73.333 95 -110 167 -110c50.667 0 91.334 15 122.001 45c33.333 33.333 50 82.333 50 147c0 54 -14.667 97.833 -44 131.5s-68.666 50.5 -117.999 50.5c-70 0 -120.667 -36.333 -152 -109l-63 14l32 391h370z" />
    <glyph glyph-name="six" unicode="6" horiz-adv-x="611" 
d="M512 690l-31.001 -61.002c-34.667 27.333 -75.667 41 -123 41c-62 0 -113 -24.333 -153 -73c-45.333 -54.667 -68.333 -131 -69 -229c54.667 57.333 120.667 86 198 86c58.667 0 108.334 -19 149.001 -57c45.333 -43.333 68 -101.666 68 -174.999
s-23.667 -131.333 -71 -174c-44 -38.667 -98 -58 -162 -58c-172 0 -258 111.333 -258 334c0 118.667 25 215.334 75 290.001c53.333 78.667 127 118 221 118c74.667 0 126.667 -14 156 -42zM474.999 219.998c0 53.333 -15.666 96.001 -46.999 128.001
c-28.667 29.333 -63.334 44 -104.001 44c-44.667 0 -86.167 -15.5 -124.5 -46.5s-58.833 -66.833 -61.5 -107.5c2 -52.667 18.667 -96.334 50 -131.001c32 -36.667 73.333 -55 124 -55c50 0 89.667 15.5 119 46.5s44 71.5 44 121.5z" />
    <glyph glyph-name="seven" unicode="7" horiz-adv-x="611" 
d="M440 660h-366v62h458v-44l-305 -678h-84z" />
    <glyph glyph-name="eight" unicode="8" horiz-adv-x="611" 
d="M568 188c0 -58 -21.667 -104.667 -65 -140c-47.333 -38.667 -113.333 -58 -198 -58s-150.667 19.333 -198 58c-43.333 35.333 -65 82 -65 140c0 82 52.667 147.333 158 196v2c-85.333 32 -128 87.333 -128 166c0 57.333 22.333 102 67 134c42 30.667 97.333 46 166 46
s124 -15.333 166 -46c44.667 -32 67 -76.667 67 -134c0 -78.667 -42.667 -134 -128 -166v-2c46 -16.667 83 -41 111 -73c31.333 -35.333 47 -76.333 47 -123zM118 188c0 -36 14.665 -66.667 43.998 -92c34.667 -29.333 82.334 -44 143.001 -44s108.334 14.667 143.001 44
c29.333 25.333 44 56 44 92c0 38.667 -19 71.667 -57 99c-30 21.333 -77.667 43 -143 65c-56 -24 -96 -45.667 -120 -65c-36 -28.667 -54 -61.667 -54 -99zM461.998 556c0 37.333 -16.333 66.334 -49 87.001c-28.667 18 -64.667 27 -108 27s-79.333 -9 -108 -27
c-32.667 -20.667 -49 -49.667 -49 -87c0 -34.667 18.667 -65.334 56 -92.001c27.333 -20 61 -35.667 101 -47c44 10.667 80.333 27.667 109 51c32 26 48 55.333 48 88z" />
    <glyph glyph-name="nine" unicode="9" horiz-adv-x="611" 
d="M99 32l31.001 61c34.667 -27.333 75.667 -41 123 -41c60 0 110 25.333 150 76c44 54.667 68 130 72 226c-54.667 -57.333 -120.667 -86 -198 -86c-58.667 0 -108.334 19.333 -149.001 58c-45.333 42.667 -68 100.667 -68 174s24 131.333 72 174
c43.333 38.667 97 58 161 58c172 0 258 -111.333 258 -334c0 -118.667 -25 -215 -75 -289c-53.333 -79.333 -127 -119 -221 -119c-74.667 0 -126.667 14 -156 42zM136.001 502c0 -53.333 15.666 -96 46.999 -128c28.667 -29.333 63.334 -44 104.001 -44
c42.667 0 81 13 115 39c31.333 24 54.333 55.667 69 95c-1.33301 63.333 -17.333 113.5 -48 150.5s-72 55.5 -124 55.5c-50 0 -89.667 -15.5 -119 -46.5s-44 -71.5 -44 -121.5z" />
    <glyph glyph-name="colon" unicode=":" horiz-adv-x="305" 
d="M201 0h-98v110h98v-110zM201 290h-98v110h98v-110z" />
    <glyph glyph-name="semicolon" unicode=";" horiz-adv-x="305" 
d="M201 110v-110l-63 -148h-42l47 148h-40v110h98zM201 290h-98v110h98v-110z" />
    <glyph glyph-name="less" unicode="&#x3c;" horiz-adv-x="600" 
d="M554 62v-62l-508 232v56l508 232v-62l-436 -198z" />
    <glyph glyph-name="equal" unicode="=" horiz-adv-x="600" 
d="M560 393v-62h-520v62h520zM560 189v-62h-520v62h520z" />
    <glyph glyph-name="greater" unicode="&#x3e;" horiz-adv-x="600" 
d="M46 62l436 198l-436 198v62l508 -231v-58l-508 -231v62z" />
    <glyph glyph-name="question" unicode="?" horiz-adv-x="444" 
d="M220 228l-68 0.000976562v55c0 42.667 13 82.334 39 119.001l72 85c26 32.667 39 65 39 97c0 22.667 -6.33301 42 -19 58c-15.333 18.667 -37 28 -65 28c-42.667 0 -77.667 -25.667 -105 -77l-60 29c33.333 73.333 87.666 110 162.999 110
c44.667 0 82.334 -13 113.001 -39c32.667 -28.667 49 -66.334 49 -113.001c0 -36.667 -13.667 -73.334 -41 -110.001l-76 -89c-27.333 -34.667 -41 -67 -41 -97v-56zM135 110.001h98v-110h-98v110z" />
    <glyph glyph-name="at" unicode="@" horiz-adv-x="800" 
d="M270 308c0 -65.333 22.666 -98 67.999 -98c43.333 0 82 23 116 69c30.667 42.667 46 86 46 130c0 30 -7.66699 53.333 -23 70c-13.333 14.667 -29.666 22 -48.999 22c-44.667 0 -83 -22 -115 -66c-28.667 -40 -43 -82.333 -43 -127zM531.999 494l20.001 60h67l-80 -275
c-6.66699 -22.667 -10 -39 -10 -49c0 -16.667 7.33301 -25 22 -25c36.667 0 69.667 22.667 99 68c28 43.333 42 90.333 42 141c0 78 -27.333 140.667 -82 188c-52 44 -117 66 -195 66c-86.667 0 -158.167 -29.833 -214.5 -89.5s-84.5 -133.167 -84.5 -220.5
s28.833 -159.833 86.5 -217.5s128.5 -86.5 212.5 -86.5c107.333 0 189.666 36 246.999 108h76c-31.333 -55.333 -76.666 -98.333 -135.999 -129c-56.667 -28.667 -119 -43 -187 -43c-103.333 0 -191 35.667 -263 107s-108 158.333 -108 261
c0 104.667 36.333 193.167 109 265.5s160 108.5 262 108.5c94.667 0 175.167 -29 241.5 -87s99.5 -131.333 99.5 -220s-27 -160.667 -81 -216c-46 -46 -95.667 -69 -149 -69c-19.333 0 -35.5 6 -48.5 18s-20.167 26.667 -21.5 44l-2 -1
c-36.667 -40.667 -76.334 -61 -119.001 -61c-42 0 -76.667 15.333 -104 46s-41 68 -41 112c0 70 20.667 132 62 186c44 58 97.333 87 160 87c56.667 0 96.667 -25.667 120 -77z" />
    <glyph glyph-name="A" unicode="A" horiz-adv-x="611" 
d="M300 666l-104 -372h219l-104 372h-11zM108 0h-84l222 722h119l222 -722h-84l-68 226h-259z" />
    <glyph glyph-name="B" unicode="B" horiz-adv-x="667" 
d="M108 0v722h266c61.333 0 110.333 -17 147 -51s55 -76.333 55 -127c0 -82.667 -40.667 -138 -122 -166l1 -2c40.667 -10 74 -31.667 100 -65s39 -72.333 39 -117c0 -129.333 -87.333 -194 -262 -194h-224zM188 344v-276h150c117.333 0 176 43.333 176 130
c0 45.333 -17 81 -51 107s-79.667 39 -137 39h-138zM188 654v-242h140c56 0 99 13 129 39c26 22 39 50 39 84c0 79.333 -45.333 119 -136 119h-172z" />
    <glyph glyph-name="C" unicode="C" horiz-adv-x="611" 
d="M500 230l71.998 -14.001c-36 -150.667 -120.667 -226 -254 -226c-84 0 -150.333 30.333 -199 91c-51.333 64 -77 157.333 -77 280c0 117.333 24.167 208.5 72.5 273.5s116.166 97.5 203.499 97.5c128.667 0 210 -70 244 -210l-74 -22c-14 54.667 -33.667 94.667 -59 120
c-29.333 29.333 -69.666 44 -120.999 44c-54.667 0 -98.667 -24.667 -132 -74c-36 -53.333 -54 -129.666 -54 -228.999c0 -101.333 18.667 -178 56 -230c34.667 -48.667 83.334 -73 146.001 -73c88.667 0 147.334 57.333 176.001 172z" />
    <glyph glyph-name="D" unicode="D" horiz-adv-x="667" 
d="M180 654v-586h108c168 0 252 97.667 252 293s-82.667 293 -248 293h-112zM100 0v722h194c100 0 179 -30.667 237 -92c59.333 -63.333 89 -153 89 -269c0 -109.333 -28 -196 -84 -260c-58.667 -67.333 -140.667 -101 -246 -101h-190z" />
    <glyph glyph-name="E" unicode="E" horiz-adv-x="611" 
d="M108 722h433v-68h-353v-242h251v-68h-251v-276h373v-68h-453v722z" />
    <glyph glyph-name="F" unicode="F" horiz-adv-x="556" 
d="M100 722h428v-68h-348v-242h258v-68h-258v-344h-80v722z" />
    <glyph glyph-name="G" unicode="G" horiz-adv-x="667" 
d="M344 347l242.998 -0.00292969v-347h-66v66h-2c-36.667 -50.667 -99.667 -76 -189 -76c-85.333 0 -152.666 30.333 -201.999 91c-53.333 64.667 -80 158 -80 280s26.667 215.333 80 280c49.333 60.667 116.666 91 201.999 91c132.667 0 219.334 -70.667 260.001 -212
l-76 -15c-33.333 106 -93.333 159 -180 159c-60 0 -107.667 -21.667 -143 -65c-42 -51.333 -63 -130.666 -63 -237.999s21 -186.666 63 -237.999c35.333 -43.333 83 -65 143 -65c56.667 0 100.334 15.667 131.001 47c28 28.667 42 66.334 42 113.001v61h-163v68z" />
    <glyph glyph-name="H" unicode="H" horiz-adv-x="722" 
d="M534 722h80v-722h-80v344h-346v-344h-80v722h80v-310h346v310z" />
    <glyph glyph-name="I" unicode="I" horiz-adv-x="333" 
d="M126 722h80v-722h-80v722z" />
    <glyph glyph-name="J" unicode="J" horiz-adv-x="444" 
d="M264 722h80v-536c0 -130.667 -55.333 -196 -166 -196c-65.333 0 -122 31 -170 93l60 39c26.667 -42.667 62.667 -64 108 -64c58.667 0 88 35.667 88 107v557z" />
    <glyph glyph-name="K" unicode="K" horiz-adv-x="667" 
d="M196 242v-242h-80v722h80v-375h2l299 375h95l-224 -272l251 -450h-91l-215 384z" />
    <glyph glyph-name="L" unicode="L" horiz-adv-x="556" 
d="M530 0h-422v722h80v-654h342v-68z" />
    <glyph glyph-name="M" unicode="M" horiz-adv-x="833" 
d="M725 0h-72v660h-3l-202 -660h-62l-203 660h-3v-660h-72v722h124l184 -584h2l181 584h126v-722z" />
    <glyph glyph-name="N" unicode="N" horiz-adv-x="722" 
d="M180 0h-72v722h115l315 -556h4v556h72v-722h-66l-366 644h-2v-644z" />
    <glyph glyph-name="O" unicode="O" horiz-adv-x="667" 
d="M131 361c0 -202 67.333 -303 202 -303s202 101 202 303s-67.333 303 -202 303s-202 -101 -202 -303zM51 361c0 119.333 24.667 211 74 275s118.666 96 207.999 96s158.666 -32 207.999 -96s74 -155.667 74 -275s-24.667 -211 -74 -275s-118.666 -96 -207.999 -96
s-158.666 32 -207.999 96s-74 155.667 -74 275z" />
    <glyph glyph-name="P" unicode="P" horiz-adv-x="611" 
d="M180 654v-264.001h136c64 0 110 11.333 138 34c26 20.667 39 53.334 39 98.001c0 88 -53 132 -159 132h-154zM180 -0.000976562h-80v722h252c73.333 0 129.333 -19.333 168 -58c35.333 -35.333 53 -83.333 53 -144c0 -62 -21.333 -110 -64 -144
c-45.333 -36 -112.333 -54 -201 -54h-128v-322z" />
    <glyph glyph-name="Q" unicode="Q" horiz-adv-x="667" 
d="M650 20l0.000976562 -78.001c-42 0 -75 8 -99 24c-19.333 12.667 -39.666 36.334 -60.999 71.001c-42.667 -31.333 -95 -47 -157 -47c-89.333 0 -158.666 32 -207.999 96s-74 155.667 -74 275s24.667 211 74 275s118.666 96 207.999 96s158.666 -32 207.999 -96
s74 -155.667 74 -275s-24.667 -211 -74 -275c23.333 -44 59.666 -66 108.999 -66zM362.001 156.999v77.001c61.333 -8.66699 106.333 -33.334 135 -74.001c25.333 48.667 38 115.667 38 201c0 202 -67.333 303 -202 303s-202 -101 -202 -303s67.333 -303 202 -303
c46.667 0 85.667 13.333 117 40c-22.667 34 -52 53.667 -88 59z" />
    <glyph glyph-name="R" unicode="R" horiz-adv-x="667" 
d="M180 654v-258h145c112 0 168 44 168 132c0 84 -56.333 126 -169 126h-144zM180 0h-80v722h232c77.333 0 136.833 -16.5 178.5 -49.5s62.5 -79.833 62.5 -140.5c0 -94 -48 -156.667 -144 -188l153 -344h-87l-146 328h-169v-328z" />
    <glyph glyph-name="S" unicode="S" horiz-adv-x="611" 
d="M520 554l-71.998 -16.001c-9.33301 37.333 -28 67 -56 89c-30 24.667 -67.333 37 -112 37c-89.333 0 -134.333 -37.333 -135 -112c-0.666992 -42.667 34 -79 104 -109l196 -82c70.667 -40 106 -93 106 -159c0 -60 -17.333 -108.333 -52 -145
c-42.667 -44.667 -106.334 -67 -191.001 -67c-70.667 0 -128.667 20.667 -174 62c-31.333 28 -59.333 70 -84 126l73 26c37.333 -97.333 100.333 -146 189 -146c51.333 0 90.666 12 117.999 36s41 55.333 41 94c0 50 -35 91.333 -105 124l-196 81c-70 38 -105 89 -105 153
c0 52.667 20.167 96.834 60.5 132.501s92.5 53.5 156.5 53.5c120.667 0 200 -59.333 238 -178z" />
    <glyph glyph-name="T" unicode="T" horiz-adv-x="556" 
d="M534 654h-216v-654h-80v654h-216v68h512v-68z" />
    <glyph glyph-name="U" unicode="U" horiz-adv-x="722" 
d="M108 722l80 0.000976562v-510c0 -44 14.667 -80 44 -108c31.333 -30.667 74.333 -46 129 -46s97.667 15.333 129 46c29.333 28 44 64 44 108v510h80v-504c0 -70.667 -23.167 -126.334 -69.5 -167.001s-107.5 -61 -183.5 -61s-136.667 20 -182 60
c-47.333 41.333 -71 97.333 -71 168v504z" />
    <glyph glyph-name="V" unicode="V" horiz-adv-x="556" 
d="M241 0l-223 722h80l178 -592h2l179 592h81l-224 -722h-73z" />
    <glyph glyph-name="W" unicode="W" horiz-adv-x="833" 
d="M202 0l-174 722h76l134 -576h2l140 576h71l144 -576h2l132 576h76l-171 -722h-71l-148 584h-2l-140 -584h-71z" />
    <glyph glyph-name="X" unicode="X" horiz-adv-x="556" 
d="M276 298l-170 -298h-92l216 377l-202 345h92l155 -265l152 265h92l-197 -345l220 -377h-92z" />
    <glyph glyph-name="Y" unicode="Y" horiz-adv-x="556" 
d="M238 0v304l-222 418h88l174 -331l174 331h88l-222 -418v-304h-80z" />
    <glyph glyph-name="Z" unicode="Z" horiz-adv-x="556" 
d="M511 68v-68h-466v58l362 596h-329v68h429v-52l-368 -602h372z" />
    <glyph glyph-name="bracketleft" unicode="[" horiz-adv-x="333" 
d="M76 -74v796h204v-42h-132v-712h132v-42h-204z" />
    <glyph glyph-name="backslash" unicode="\" horiz-adv-x="278" 
d="M-8 732h61l233 -742h-60z" />
    <glyph glyph-name="bracketright" unicode="]" horiz-adv-x="333" 
d="M257 722v-796h-204v42h132v712h-132v42h204z" />
    <glyph glyph-name="asciicircum" unicode="^" horiz-adv-x="600" 
d="M111 279h-64l224 443h58l224 -443h-63l-191 375z" />
    <glyph glyph-name="underscore" unicode="_" 
d="M500 -125h-500v50h500v-50z" />
    <glyph glyph-name="grave" unicode="`" horiz-adv-x="278" 
d="M6 722h109l89 -142h-67z" />
    <glyph glyph-name="a" unicode="a" 
d="M120 387l-63.002 33c40.667 73.333 105.667 110 195 110c50 0 91 -11.667 123 -35c38 -28 57 -68.333 57 -121v-262c0 -44 4 -81.333 12 -112h-74l-8 72c-49.333 -54.667 -106.666 -82 -171.999 -82c-42 0 -76.667 12 -104 36c-29.333 26 -44 61.667 -44 107
c0 56.667 24 101 72 133s130 58.333 246 79v28c0 63.333 -35.667 95 -107 95c-67.333 0 -111.666 -27 -132.999 -81zM359.998 138v143.001c-164 -28.667 -246 -78.334 -246 -149.001c0 -22.667 9 -41.667 27 -57s37.667 -23 59 -23c25.333 0 53 8.16699 83 24.5
s55.667 36.833 77 61.5z" />
    <glyph glyph-name="b" unicode="b" horiz-adv-x="556" 
d="M88 722h71.999v-252l4 2c46.667 38.667 92.334 58 137.001 58c53.333 0 99.333 -19.667 138 -59c47.333 -48.667 71 -119 71 -211c0 -94 -24 -165 -72 -213c-38 -38 -85 -57 -141 -57c-53.333 0 -103.333 21.667 -150 65l-13 -55h-50c2.66699 16.667 4 54.667 4 114v608z
M159.999 396l0.000976562 -273.999c47.333 -46.667 91 -70 131 -70c45.333 0 81.166 17.667 107.499 53s39.5 85.666 39.5 150.999c0 141.333 -49 212 -147 212c-44 0 -87.667 -24 -131 -72z" />
    <glyph glyph-name="c" unicode="c" 
d="M443 389l-67 -23.999c-22 68.667 -63 103 -123 103c-44.667 0 -79.334 -18.167 -104.001 -54.5s-37 -87.5 -37 -153.5s12.333 -117.167 37 -153.5s59.334 -54.5 104.001 -54.5c33.333 0 60.5 6.83301 81.5 20.5s41.5 38.834 61.5 75.501l58 -26
c-28 -47.333 -55 -80.333 -81 -99c-31.333 -22 -71.333 -33 -120 -33c-65.333 0 -117.166 24.167 -155.499 72.5s-57.5 114.166 -57.5 197.499s19.167 149.166 57.5 197.499s90.166 72.5 155.499 72.5c88.667 0 152 -47 190 -141z" />
    <glyph glyph-name="d" unicode="d" horiz-adv-x="556" 
d="M396 722h71.999v-608c0 -59.333 1.33301 -97.333 4 -114h-66l-10 51c-29.333 -40.667 -75 -61 -137 -61c-56 0 -103 19 -141 57c-48 48 -72 119 -72 213c0 92 24 162.333 72 211c38 39.333 83.667 59 137 59c44.667 0 90.334 -19.333 137.001 -58l4 -2v252zM395.999 122
l0.000976562 273.999c-43.333 48 -87 72 -131 72c-98 0 -147 -70.667 -147 -212c0 -65.333 13.167 -115.666 39.5 -150.999s62.166 -53 107.499 -53c40 0 83.667 23.333 131 70z" />
    <glyph glyph-name="e" unicode="e" 
d="M410 140l56 -28.999c-21.333 -37.333 -44 -65 -68 -83c-35.333 -25.333 -79.333 -38 -132 -38c-63.333 0 -115.333 21.333 -156 64c-46.667 48 -70 116.667 -70 206c0 83.333 19.167 149.166 57.5 197.499s89.833 72.5 154.5 72.5c58 0 104.667 -18.667 140 -56
c38.667 -41.333 58 -101.333 58 -180v-48h-338c0 -56.667 14.833 -103.167 44.5 -139.5s66.167 -54.5 109.5 -54.5c63.333 0 111.333 29.333 144 88zM114 308.001h264.001c0 48.667 -11 87.5 -33 116.5s-52.333 43.5 -91 43.5c-42.667 0 -75.834 -14.333 -99.501 -43
s-37.167 -67.667 -40.5 -117z" />
    <glyph glyph-name="f" unicode="f" horiz-adv-x="333" 
d="M187 0h-72.002v458h-88v62h88v59c0 58.667 10.667 99.667 32 123c18.667 20 50.334 30 95.001 30c8 0 29.333 -1.66699 64 -5v-64c-39.333 4.66699 -56.666 7 -51.999 7c-24.667 0 -42 -5.16699 -52 -15.5s-15 -29.833 -15 -58.5v-76h113v-62h-113v-458z" />
    <glyph glyph-name="g" unicode="g" 
d="M480 540v-72c-34.667 0 -61.334 -4.66699 -80.001 -14c24 -28.667 36 -64 36 -106c0 -51.333 -18.5 -94.5 -55.5 -129.5s-81.833 -52.5 -134.5 -52.5c-28.667 0 -59.334 4.66699 -92.001 14c-27.333 -8 -41 -24 -41 -48c0 -25.333 14.333 -38 43 -38
c120.667 0 205.667 -11.667 255 -35c46.667 -22 70 -59 70 -111c0 -40.667 -19.333 -73.667 -58 -99c-42 -27.333 -101.667 -41 -179 -41c-149.333 0 -224 42 -224 126c0 24.667 7.66699 45.334 23 62.001c12.667 13.333 34.334 28 65.001 44c-19.333 6 -35 15.833 -47 29.5
s-18 28.5 -18 44.5c0 20 6.66699 37.333 20 52c8.66699 9.33301 25.334 21.666 50.001 36.999c-47.333 36 -71 84.333 -71 145c0 54 18.667 97.833 56 131.5s84.333 50.5 141 50.5c52 0 95 -12 129 -36c38 26.667 75.333 42 112 46zM413 -55
c0 51.333 -60.001 76.999 -180.001 76.999c-51.333 0 -89.666 -10 -114.999 -30c-20 -15.333 -30 -34.333 -30 -57c0 -22 10 -37.667 30 -47c25.333 -12 71.333 -18 138 -18c45.333 0 82.833 6.33301 112.5 19s44.5 31.334 44.5 56.001zM367.999 343.999
c0 82.667 -44 124 -132 124c-40 0 -71 -11.167 -93 -33.5s-33 -51.166 -33 -86.499c0 -34.667 12.5 -63.334 37.5 -86.001s57.167 -34 96.5 -34s70.333 11.667 93 35c20.667 21.333 31 48.333 31 81z" />
    <glyph glyph-name="h" unicode="h" horiz-adv-x="556" 
d="M89 722h72v-272h2c47.333 53.333 98.666 80 153.999 80c42.667 0 77.334 -11.333 104.001 -34c30.667 -26.667 46 -66 46 -118v-378h-72v376c0 61.333 -28.333 92 -85 92c-50 0 -99.667 -26.333 -149 -79v-389h-72v722z" />
    <glyph glyph-name="i" unicode="i" horiz-adv-x="278" 
d="M103 0v520h72v-520h-72zM103 732h72v-86h-72v86z" />
    <glyph glyph-name="j" unicode="j" horiz-adv-x="278" 
d="M117 520h72v-603c0 -32 -9.66699 -58.167 -29 -78.5s-45.333 -30.5 -78 -30.5c-26 0 -46 4 -60 12v59c13.333 -6 26 -9 38 -9c38 0 57 17.333 57 52v598zM189 732v-86h-72v86h72z" />
    <glyph glyph-name="k" unicode="k" 
d="M84 0v722h72v-465h2l210 263h87l-153 -192l173 -328h-85l-138 266l-96 -110v-156h-72z" />
    <glyph glyph-name="l" unicode="l" horiz-adv-x="278" 
d="M103 722h72v-722h-72v722z" />
    <glyph glyph-name="m" unicode="m" horiz-adv-x="833" 
d="M154 0h-71.999v520h72v-69l4 4c50 50 100.333 75 151 75c67.333 0 111.666 -27.333 132.999 -82c51.333 54.667 106.333 82 165 82c95.333 0 143 -52.667 143 -158v-372h-72v372c0 64 -27 96 -81 96c-28 0 -55.333 -8.66699 -82 -26
c-14.667 -9.33301 -35.667 -27.333 -63 -54v-388h-72v372c0 64 -27 96 -81 96c-28 0 -55.333 -8.66699 -82 -26c-14.667 -9.33301 -35.667 -27.333 -63 -54v-388z" />
    <glyph glyph-name="n" unicode="n" horiz-adv-x="556" 
d="M89 520h72v-70h2c47.333 53.333 98.666 80 153.999 80c42.667 0 77.334 -11.333 104.001 -34c30.667 -26.667 46 -66 46 -118v-378h-72v376c0 61.333 -28.333 92 -85 92c-50 0 -99.667 -26.333 -149 -79v-389h-72v520z" />
    <glyph glyph-name="o" unicode="o" 
d="M391 260c0 66 -12.667 117.167 -38 153.5s-59.666 54.5 -102.999 54.5s-77.666 -18.167 -102.999 -54.5s-38 -87.5 -38 -153.5s12.667 -117.167 38 -153.5s59.666 -54.5 102.999 -54.5s77.666 18.167 102.999 54.5s38 87.5 38 153.5zM463 260
c0 -78.667 -17.667 -142.334 -53 -191.001c-38.667 -52.667 -92 -79 -160 -79s-121.333 26.333 -160 79c-35.333 48.667 -53 112.334 -53 191.001s17.667 142.334 53 191.001c38.667 52.667 92 79 160 79s121.333 -26.333 160 -79c35.333 -48.667 53 -112.334 53 -191.001z
" />
    <glyph glyph-name="p" unicode="p" horiz-adv-x="556" 
d="M160 -192h-72v712h72v-61h2c14 20 33.833 36.833 59.5 50.5s50.834 20.5 75.501 20.5c56 0 103 -19 141 -57c48 -48 72 -119 72 -213c0 -92 -23.667 -162.333 -71 -211c-38.667 -39.333 -84.667 -59 -138 -59c-44.667 0 -90.334 19.333 -137.001 58l-4 2v-242zM160 398
l-0.000976562 -273.999c43.333 -48 87 -72 131 -72c98 0 147 70.667 147 212c0 65.333 -13.167 115.666 -39.5 150.999s-62.166 53 -107.499 53c-40 0 -83.667 -23.333 -131 -70z" />
    <glyph glyph-name="q" unicode="q" horiz-adv-x="556" 
d="M468 -192h-71.999v242l-4 -2c-46.667 -38.667 -92.334 -58 -137.001 -58c-53.333 0 -99 19.667 -137 59c-48 48.667 -72 119 -72 211c0 94 24 165 72 213c38 38 85 57 141 57c58.667 0 104.667 -21.667 138 -65l13 55h58v-712zM396.001 124l-0.000976562 273.999
c-47.333 46.667 -91 70 -131 70c-45.333 0 -81.166 -17.667 -107.499 -53s-39.5 -85.666 -39.5 -150.999c0 -141.333 49 -212 147 -212c44 0 87.667 24 131 72z" />
    <glyph glyph-name="r" unicode="r" horiz-adv-x="333" 
d="M70 0v520h72v-103h2c21.333 38 43.666 65.333 66.999 82c27.333 19.333 61.333 29 102 29v-72c-43.333 -0.666992 -78.666 -15.667 -105.999 -45c-25.333 -26 -47 -67 -65 -123v-288h-72z" />
    <glyph glyph-name="s" unicode="s" horiz-adv-x="444" 
d="M24 89l57 43c37.333 -53.333 87 -80 149 -80c36.667 0 65 9 85 27c18 15.333 27 35 27 59c0 35.333 -26.667 62.666 -80 81.999l-146 50c-52.667 26 -78 66 -76 120c1.33301 44.667 17.666 79.334 48.999 104.001s72.333 36.667 123 36
c34 -0.666992 67.833 -9.5 101.5 -26.5s59.167 -38.5 76.5 -64.5l-50 -44c-40 48.667 -84.667 73 -134 73c-62.667 0 -94 -25.667 -94 -77c0 -30 26 -54 78 -72c91.333 -30.667 140 -47.667 146 -51c52 -28.667 78 -70.667 78 -126c0 -48 -18.667 -86 -56 -114
c-33.333 -25.333 -75.333 -38 -126 -38c-89.333 0 -158.666 33 -207.999 99z" />
    <glyph glyph-name="t" unicode="t" horiz-adv-x="333" 
d="M18 520h85.001v171h72v-171h120v-62h-120v-370c0 -24 19.667 -36 59 -36c21.333 0 42.666 1.66699 63.999 5v-59c-17.333 -5.33301 -45.333 -8 -84 -8c-40 0 -68.5 6.33301 -85.5 19s-25.5 35 -25.5 67v382h-85v62z" />
    <glyph glyph-name="u" unicode="u" horiz-adv-x="556" 
d="M467 0h-72v70h-2c-47.333 -53.333 -98.666 -80 -153.999 -80c-42.667 0 -77.334 11.333 -104.001 34c-30.667 26.667 -46 66 -46 118v378h72v-376c0 -61.333 28.333 -92 85 -92c50 0 99.667 26.333 149 79v389h72v-520z" />
    <glyph glyph-name="v" unicode="v" horiz-adv-x="444" 
d="M428 520l-156 -520h-96l-160 520h73l132 -430h2l132 430h73z" />
    <glyph glyph-name="w" unicode="w" horiz-adv-x="667" 
d="M157 0l-141 520h73l105 -400h2l102 400h73l104 -402h2l101 402h73l-139 -520h-73l-104 402h-2l-103 -402h-73z" />
    <glyph glyph-name="x" unicode="x" horiz-adv-x="444" 
d="M105 520l114 -185l109 185h81l-146 -247l169 -273h-83l-130 213l-126 -213h-81l164 273l-152 247h81z" />
    <glyph glyph-name="y" unicode="y" horiz-adv-x="444" 
d="M352 520h75.999l-183 -566c-31.333 -97.333 -89.666 -146 -174.999 -146c-6.66699 0 -24 2 -52 6v59c20 -2 33 -3 39 -3c72.667 0 118 41.333 136 124l-181 526h76l140 -397h2z" />
    <glyph glyph-name="z" unicode="z" horiz-adv-x="444" 
d="M414 62v-62h-384v52l284 406h-256v62h354v-52l-284 -406h286z" />
    <glyph glyph-name="braceleft" unicode="{" horiz-adv-x="333" 
d="M48 303v42c41.333 0 62 26 62 78v199c0 73.333 31 110 93 110h62v-42h-38c-30 0 -45 -18.667 -45 -56v-230c0 -44.667 -24.667 -71 -74 -79v-2c49.333 -8 74 -34.333 74 -79v-230c0 -37.333 15 -56 45 -56h38v-42h-62c-62 0 -93 36.667 -93 110v199
c0 52 -20.667 78 -62 78z" />
    <glyph glyph-name="bar" unicode="|" horiz-adv-x="222" 
d="M80 -10v742h62v-742h-62z" />
    <glyph glyph-name="braceright" unicode="}" horiz-adv-x="333" 
d="M285 345v-42c-41.333 0 -62 -26 -62 -78v-199c0 -73.333 -31 -110 -93 -110h-62v42h38c30 0 45 18.667 45 56v230c0 44.667 24.667 71 74 79v2c-49.333 8 -74 34.333 -74 79v230c0 37.333 -15 56 -45 56h-38v42h62c62 0 93 -36.667 93 -110v-199c0 -52 20.667 -78 62 -78
z" />
    <glyph glyph-name="asciitilde" unicode="~" horiz-adv-x="600" 
d="M495 329l38.998 -44.001c-22 -29.333 -39.667 -49.666 -53 -60.999c-22.667 -18.667 -47.667 -28 -75 -28c-25.333 0 -60.166 11.333 -104.499 34s-81.833 34 -112.5 34c-34.667 0 -62.667 -24.333 -84 -73l-39 45c32.667 60 75.334 90 128.001 90
c26.667 0 64.667 -11.333 114 -34s82.333 -34 99 -34c26.667 0 56 23.667 88 71z" />
    <glyph glyph-name="exclamdown" unicode="&#xa1;" horiz-adv-x="333" 
d="M220 -202h-106l21 494h64zM216 410h-98v110h98v-110z" />
    <glyph glyph-name="cent" unicode="&#xa2;" horiz-adv-x="611" 
d="M212 92l134.001 368c-12.667 5.33301 -27 8 -43 8c-44.667 0 -79.334 -18.167 -104.001 -54.5s-37 -87.5 -37 -153.5c0 -77.333 16.667 -133.333 50 -168zM391.001 429l-132.999 -369c12.667 -5.33301 27.667 -8 45 -8c33.333 0 60.5 6.83301 81.5 20.5
s41.5 38.834 61.5 75.501l58 -26c-28 -47.333 -55 -80.333 -81 -99c-31.333 -22 -71.333 -33 -120 -33c-26 0 -48.333 3.66699 -67 11l-41 -112h-57l49 136c-64.667 46 -97 124.333 -97 235c0 83.333 19.167 149.166 57.5 197.499s90.166 72.5 155.499 72.5
c25.333 0 47 -3 65 -9l32 89h57l-41 -113c31.333 -22.667 57 -58.667 77 -108l-67 -24c-8 26.667 -19.667 48 -35 64z" />
    <glyph glyph-name="sterling" unicode="&#xa3;" horiz-adv-x="611" 
d="M350 390l-0.000976562 -61.998h-144c4 -16.667 6 -39.334 6 -68.001c0 -52.667 -9.33301 -97.667 -28 -135l94.5 -48.5c31.667 -16.333 58.167 -24.5 79.5 -24.5c84.667 0 136 42.667 154 128l64 -12c-20 -118.667 -86.667 -178 -200 -178
c-43.333 0 -85.666 8.66699 -126.999 26c-12.667 4.66699 -46.667 22 -102 52c-32 -45.333 -72 -71.333 -120 -78v78c30 5.33301 56 23 78 53c23.333 32.667 35 71.334 35 116.001c0 35.333 -2.33301 65.666 -7 90.999h-107v62h98c-8 50.667 -12 90 -12 118
c0 68.667 19.333 123.167 58 163.5s92.667 60.5 162 60.5c121.333 0 196.666 -62 225.999 -186l-68 -12c-29.333 90.667 -80.666 136 -153.999 136c-53.333 0 -92.333 -15.667 -117 -47c-20.667 -24.667 -31 -57.667 -31 -99c0 -30.667 3.33301 -75.334 10 -134.001h152z
" />
    <glyph glyph-name="currency" unicode="&#xa4;" horiz-adv-x="611" 
d="M305 171c53.333 0 97.668 17.333 133.001 52s53 80.667 53 138c0 56.667 -18 103 -54 139c-34.667 34 -78.667 51 -132 51s-97.333 -17 -132 -51c-36 -36 -54 -82.333 -54 -139c0 -57.333 17.667 -103.333 53 -138s79.666 -52 132.999 -52zM512.002 612l42 -42l-55 -55
c36 -44.667 54 -96 54 -154s-18 -109.333 -54 -154l55 -55l-42 -42l-56 56c-42.667 -35.333 -93 -53 -151 -53s-108.333 17.667 -151 53l-56 -56l-42 42l55 55c-36 44.667 -54 96 -54 154s18 109.333 54 154l-55 55l42 42l56 -56c42.667 35.333 93 53 151 53
s108.333 -17.667 151 -53z" />
    <glyph glyph-name="yen" unicode="&#xa5;" horiz-adv-x="611" 
d="M339 234v-234h-68v234h-177v62h177v8l-42 80h-135v62h102l-147 276h72l184 -347l184 347h72l-147 -276h102v-62h-134l-43 -80v-8h177v-62h-177z" />
    <glyph glyph-name="brokenbar" unicode="&#xa6;" horiz-adv-x="222" 
d="M80 -10v280h62v-280h-62zM80 452v280h62v-280h-62z" />
    <glyph glyph-name="section" unicode="&#xa7;" 
d="M97 4l50.999 32.001c28.667 -44 62.667 -66 102 -66c20 0 36.5 6 49.5 18s19.5 27.333 19.5 46c0 24.667 -22.333 62 -67 112l-126 133c-44.667 51.333 -67.334 91 -68.001 119c-0.666992 66.667 39.333 102 120 106c-27.333 35.333 -41.333 53.333 -42 54
c-10.667 18 -16 38.667 -16 62c0 30.667 12 57 36 79s54.667 33 92 33c29.333 0 55.333 -6.33301 78 -19c20.667 -12.667 43.334 -34 68.001 -64l-48 -27c-16.667 19.333 -30 32.333 -40 39c-16 11.333 -34 17 -54 17c-19.333 0 -34.833 -5.66699 -46.5 -17
s-17.5 -25 -17.5 -41c0 -14.667 6.16699 -29.834 18.5 -45.501s46.333 -51.334 102 -107.001s91.5 -95.167 107.5 -118.5c17.333 -25.333 26 -52.333 26 -81c0 -62 -36.333 -98 -109 -108c36 -41.333 54 -82.666 54 -123.999c0 -32 -11.333 -59.333 -34 -82
c-25.333 -25.333 -59.666 -38 -102.999 -38c-69.333 0 -120.333 29.333 -153 88zM185.999 456.001c-16.667 0 -30.834 -5.33301 -42.501 -16s-17.5 -23.667 -17.5 -39s6.66699 -32 20 -50c8 -10 28.667 -32.667 62 -68c28 -30 49.333 -50 64 -60s29.334 -15 44.001 -15
c16 0 29.667 5.16699 41 15.5s17 23.833 17 40.5c0 26.667 -28 68 -84 124c-29.333 29.333 -51 48.333 -65 57c-11.333 7.33301 -24.333 11 -39 11z" />
    <glyph glyph-name="dieresis" unicode="&#xa8;" horiz-adv-x="278" 
d="M262 590h-88v94h88v-94zM104 590h-88v94h88v-94z" />
    <glyph glyph-name="copyright" unicode="&#xa9;" horiz-adv-x="800" 
d="M529 292l67.999 -0.00195312c-10 -48 -31.667 -86.333 -65 -115s-73 -43 -119 -43c-65.333 0 -118 21.667 -158 65s-60 98 -60 164s19.333 120.167 58 162.5s91 63.5 157 63.5c48.667 0 89.667 -13 123 -39c34.667 -28 55.667 -66 63 -114h-67
c-5.33301 28.667 -18.666 51.334 -39.999 68.001s-47.333 25 -78 25c-46 0 -81.5 -15.167 -106.5 -45.5s-37.5 -70.166 -37.5 -119.499c0 -48 13 -87.667 39 -119c27.333 -34 63 -51 107 -51c31.333 0 57.5 9 78.5 27s33.5 41.667 37.5 71zM23.999 361.998
c0 105.333 37 193.333 111 264s162.667 106 266 106c102.667 0 190.334 -35 263.001 -105c74.667 -72 112 -160.333 112 -265c0 -106 -36.833 -194.5 -110.5 -265.5s-161.834 -106.5 -264.501 -106.5c-103.333 0 -192 35.5 -266 106.5s-111 159.5 -111 265.5z
M703.999 361.998c0 88 -29.168 161.667 -87.501 221s-130.166 89 -215.499 89c-86 0 -158.333 -29.667 -217 -89s-88 -133 -88 -221c0 -90 29.167 -164.5 87.5 -223.5s130.833 -88.5 217.5 -88.5c86 0 158 29.5 216 88.5s87 133.5 87 223.5z" />
    <glyph glyph-name="ordfeminine" unicode="&#xaa;" horiz-adv-x="300" 
d="M66 642l-41 23.999c26.667 44 69 66 127 66c32.667 0 59.334 -7 80.001 -21c25.333 -16.667 38 -41 38 -73v-157c0 -27.333 2.66699 -49.666 8 -66.999h-53l-6 35c-39.333 -27.333 -75 -41 -107 -41c-28 0 -51.333 7.5 -70 22.5s-28 36.167 -28 63.5
c0 34 15.667 61.167 47 81.5s83 36.833 155 49.5v13c0 32 -21.333 48 -64 48c-44.667 0 -73.334 -14.667 -86.001 -44zM216 496.999l0.000976562 82.001c-98.667 -18.667 -148 -47.334 -148 -86.001c0 -26 16 -39 48 -39c35.333 0 68.666 14.333 99.999 43z" />
    <glyph glyph-name="guillemotleft" unicode="&#xab;" 
d="M210 418h70l-129 -158l129 -158h-68l-132 158zM350 418h70l-129 -158l129 -158h-68l-132 158z" />
    <glyph glyph-name="logicalnot" unicode="&#xac;" horiz-adv-x="600" 
d="M498 127v204h-458v62h520v-266h-62z" />
    <glyph glyph-name="minus" unicode="&#xad;" horiz-adv-x="600" 
d="M560 229h-520v62h520v-62z" />
    <glyph glyph-name="minus" unicode="&#x2212;" horiz-adv-x="600" 
d="M560 229h-520v62h520v-62z" />
    <glyph glyph-name="registered" unicode="&#xae;" horiz-adv-x="800" 
d="M322 333v-186.001h-66v428h164c101.333 0 152 -40.667 152 -122c0 -69.333 -37.333 -108.666 -112 -117.999l122 -188h-72l-114 186h-74zM322 520.999v-134h78c38.667 0 66 5.66699 82 17s24 29 24 53c0 42.667 -31.667 64 -95 64h-89zM24 361.999
c0 105.333 37 193.333 111 264s162.667 106 266 106c102.667 0 190.334 -35 263.001 -105c74.667 -72 112 -160.333 112 -265c0 -106 -36.833 -194.5 -110.5 -265.5s-161.834 -106.5 -264.501 -106.5c-103.333 0 -192 35.5 -266 106.5s-111 159.5 -111 265.5zM704 361.999
c0 88 -29.168 161.667 -87.501 221s-130.166 89 -215.499 89c-86 0 -158.333 -29.667 -217 -89s-88 -133 -88 -221c0 -90 29.167 -164.5 87.5 -223.5s130.833 -88.5 217.5 -88.5c86 0 158 29.5 216 88.5s87 133.5 87 223.5z" />
    <glyph glyph-name="macron" unicode="&#xaf;" horiz-adv-x="278" 
d="M295 612h-312v60h312v-60z" />
    <glyph glyph-name="macron" unicode="&#x2c9;" horiz-adv-x="278" 
d="M295 612h-312v60h312v-60z" />
    <glyph glyph-name="degree" unicode="&#xb0;" horiz-adv-x="400" 
d="M56 588c0 40 14 74 42 102s62 42 102 42s74 -14 102 -42s42 -62 42 -102s-14 -74 -42 -102s-62 -42 -102 -42s-74 14 -102 42s-42 62 -42 102zM104 588c0 -28 9.33301 -51.667 28 -71s41.334 -29 68.001 -29s49.334 9.66699 68.001 29s28 43 28 71
s-9.33301 51.667 -28 71s-41.334 29 -68.001 29s-49.334 -9.66699 -68.001 -29s-28 -43 -28 -71z" />
    <glyph glyph-name="plusminus" unicode="&#xb1;" horiz-adv-x="600" 
d="M269 341v179h62v-179h229v-62h-229v-179h-62v179h-229v62h229zM40 0v62h520v-62h-520z" />
    <glyph glyph-name="twosuperior" unicode="&#xb2;" horiz-adv-x="366" 
d="M338 292l-310 0.00195312v54c22 40.667 55.667 77.667 101 111l105 71c32 25.333 48 52.666 48 81.999c0 21.333 -7.83301 38.666 -23.5 51.999s-37.5 20 -65.5 20c-60.667 0 -100 -29.333 -118 -88l-46 16c24 81.333 79.667 122 167 122
c42.667 0 76.667 -10.333 102 -31s38 -49 38 -85c0 -40.667 -17.667 -77 -53 -109c-10.667 -10 -46.667 -35.667 -108 -77c-46.667 -30.667 -77.667 -60 -93 -88h256v-50z" />
    <glyph glyph-name="threesuperior" unicode="&#xb3;" horiz-adv-x="366" 
d="M111 499l0.00195312 50.002h41c77.333 0 116 25 116 75c0 15.333 -7.66699 28.833 -23 40.5s-35 17.5 -59 17.5c-27.333 0 -48.5 -3.83301 -63.5 -11.5s-30.167 -20.834 -45.5 -39.501l-42 28c38 48.667 88.333 73 151 73c42.667 0 76 -9.5 100 -28.5s36 -45.5 36 -79.5
c0 -48.667 -21.667 -80.334 -65 -95.001v-2c27.333 -8.66699 48.333 -25 63 -49c12 -20.667 18 -43 18 -67c0 -37.333 -14.333 -67.5 -43 -90.5s-67.334 -34.5 -116.001 -34.5c-74 0 -129.667 28 -167 84l40 32c33.333 -44 75.666 -66 126.999 -66c70 0 105 24.667 105 74
c0 59.333 -42.667 89 -128 89h-45z" />
    <glyph glyph-name="acute" unicode="&#xb4;" horiz-adv-x="278" 
d="M163 722h109l-131 -142h-67z" />
    <glyph glyph-name="mu" unicode="&#xb5;" horiz-adv-x="556" 
d="M467 0h-72.001v70h-2c-47.333 -53.333 -98.666 -80 -153.999 -80c-28.667 0 -54.667 5.33301 -78 16v-198h-72v712h72v-376c0 -61.333 28.333 -92 85 -92c50 0 99.667 26.333 149 79v389h72v-520z" />
    <glyph glyph-name="mu" unicode="&#x3bc;" horiz-adv-x="556" 
d="M467 0h-72.001v70h-2c-47.333 -53.333 -98.666 -80 -153.999 -80c-28.667 0 -54.667 5.33301 -78 16v-198h-72v712h72v-376c0 -61.333 28.333 -92 85 -92c50 0 99.667 26.333 149 79v389h72v-520z" />
    <glyph glyph-name="paragraph" unicode="&#xb6;" 
d="M219 -84l0.000976562 415.001c-60 0 -109.833 18.667 -149.5 56s-59.5 82.666 -59.5 135.999c0 64.667 19.667 114 59 148s94.666 51 165.999 51h277v-50h-71v-756h-60v756h-102v-756h-60z" />
    <glyph glyph-name="periodcentered" unicode="&#xb7;" horiz-adv-x="305" 
d="M90 259c0 18 5.83301 32.999 17.5 44.999s26.5 18 44.5 18c17.333 0 32 -6.16699 44 -18.5s18 -27.166 18 -44.499c0 -16.667 -6 -31 -18 -43s-26.667 -18 -44 -18c-18 0 -32.833 5.83301 -44.5 17.5s-17.5 26.167 -17.5 43.5z" />
    <glyph glyph-name="periodcentered" unicode="&#x2219;" horiz-adv-x="305" 
d="M90 259c0 18 5.83301 32.999 17.5 44.999s26.5 18 44.5 18c17.333 0 32 -6.16699 44 -18.5s18 -27.166 18 -44.499c0 -16.667 -6 -31 -18 -43s-26.667 -18 -44 -18c-18 0 -32.833 5.83301 -44.5 17.5s-17.5 26.167 -17.5 43.5z" />
    <glyph glyph-name="cedilla" unicode="&#xb8;" horiz-adv-x="278" 
d="M127 0l47.998 -0.000976562l-47 -58l2 -2c10 3.33301 20 5 30 5c27.333 0 48.333 -8.16699 63 -24.5s21.667 -36.166 21 -59.499c-1.33301 -56.667 -41.666 -85 -120.999 -85c-32 0 -63.333 7 -94 21l17 44c20 -12.667 42 -19 66 -19c37.333 0 56 14.333 56 43
c0 25.333 -13.667 38 -41 38c-17.333 0 -32.666 -2.66699 -45.999 -8l-17 19z" />
    <glyph glyph-name="onesuperior" unicode="&#xb9;" horiz-adv-x="366" 
d="M165 732h54v-390h79v-50h-213v50h76v340l-85 -13v33c23.333 6 53 16 89 30z" />
    <glyph glyph-name="ordmasculine" unicode="&#xba;" horiz-adv-x="300" 
d="M70 572c0 -77.333 26.667 -116 80 -116s80 38 80 114s-26.667 114 -80 114c-24.667 0 -44.167 -10 -58.5 -30s-21.5 -47.333 -21.5 -82zM12 570c0 50 12.5 89.502 37.5 118.502s58.5 43.5 100.5 43.5c42.667 0 76.334 -14.333 101.001 -43s37 -68.334 37 -119.001
s-12.333 -90.334 -37 -119.001s-58.334 -43 -101.001 -43c-42 0 -75.5 14.5 -100.5 43.5s-37.5 68.5 -37.5 118.5z" />
    <glyph glyph-name="guillemotright" unicode="&#xbb;" 
d="M220 418h70l130 -158l-132 -158h-68l129 158zM80 418h70l130 -158l-132 -158h-68l129 158z" />
    <glyph glyph-name="onequarter" unicode="&#xbc;" horiz-adv-x="916" 
d="M868 102h-81v-102h-54v102h-208v45l185 287h77v-282h81v-50zM731 376l-145 -224h147v224h-2zM177 732h54v-390h79v-50h-213v50h76v340l-85 -13v33c23.333 6 53 16 89 30zM278 -10h-59l439 742h62z" />
    <glyph glyph-name="onehalf" unicode="&#xbd;" horiz-adv-x="916" 
d="M177 732h54v-390h79v-50h-213v50h76v340l-85 -13v33c23.333 6 53 16 89 30zM860 0l-310 0.00195312v54c22 40.667 55.667 77.667 101 111l105 71c32 25.333 48 52.666 48 81.999c0 21.333 -7.83301 38.666 -23.5 51.999s-37.5 20 -65.5 20
c-60.667 0 -100 -29.333 -118 -88l-46 16c24 81.333 79.667 122 167 122c42.667 0 76.667 -10.333 102 -31s38 -49 38 -85c0 -40.667 -17.667 -77 -53 -109c-10.667 -10 -46.667 -35.667 -108 -77c-46.667 -30.667 -77.667 -60 -93 -88h256v-50zM258 -9.99805h-59l439 742
h62z" />
    <glyph glyph-name="threequarters" unicode="&#xbe;" horiz-adv-x="916" 
d="M868 102h-81v-102h-54v102h-208v45l185 287h77v-282h81v-50zM731 376l-145 -224h147v224h-2zM147 499l0.00195312 50.002h41c77.333 0 116 25 116 75c0 15.333 -7.66699 28.833 -23 40.5s-35 17.5 -59 17.5c-27.333 0 -48.5 -3.83301 -63.5 -11.5
s-30.167 -20.834 -45.5 -39.501l-42 28c38 48.667 88.333 73 151 73c42.667 0 76 -9.5 100 -28.5s36 -45.5 36 -79.5c0 -48.667 -21.667 -80.334 -65 -95.001v-2c27.333 -8.66699 48.333 -25 63 -49c12 -20.667 18 -43 18 -67c0 -37.333 -14.333 -67.5 -43 -90.5
s-67.334 -34.5 -116.001 -34.5c-74 0 -129.667 28 -167 84l40 32c33.333 -44 75.666 -66 126.999 -66c70 0 105 24.667 105 74c0 59.333 -42.667 89 -128 89h-45zM294.002 -9.99805h-59l439 742h62z" />
    <glyph glyph-name="questiondown" unicode="&#xbf;" horiz-adv-x="444" 
d="M224 292l67.999 -0.000976562v-55c0 -42.667 -13 -82.334 -39 -119.001l-72 -85c-26 -32.667 -39 -65 -39 -97c0 -22.667 6.66699 -42 20 -58c14.667 -18.667 36 -28 64 -28c42.667 0 77.667 25.667 105 77l60 -29c-33.333 -73.333 -87.666 -110 -162.999 -110
c-44.667 0 -82 13 -112 39c-33.333 28.667 -50 66.334 -50 113.001c0 36.667 13.667 73.334 41 110.001l76 89c27.333 34.667 41 67 41 97v56zM308.999 409.999h-98v110h98v-110z" />
    <glyph glyph-name="Agrave" unicode="&#xc0;" horiz-adv-x="611" 
d="M300 666l-104 -372h219l-104 372h-11zM108 0h-84l222 722h119l222 -722h-84l-68 226h-259zM173 902h109l89 -142h-67z" />
    <glyph glyph-name="Aacute" unicode="&#xc1;" horiz-adv-x="611" 
d="M300 666l-104 -372h219l-104 372h-11zM108 0h-84l222 722h119l222 -722h-84l-68 226h-259zM330 902h109l-131 -142h-67z" />
    <glyph glyph-name="Acircumflex" unicode="&#xc2;" horiz-adv-x="611" 
d="M300 666l-104 -372h219l-104 372h-11zM108 0h-84l222 722h119l222 -722h-84l-68 226h-259zM160 760l98 142h94l100 -142h-80l-67 94l-65 -94h-80z" />
    <glyph glyph-name="Atilde" unicode="&#xc3;" horiz-adv-x="611" 
d="M300 666l-104 -372h219l-104 372h-11zM108 0h-84l222 722h119l222 -722h-84l-68 226h-259zM427 885h50.001c-2.66699 -26.667 -12.667 -50.667 -30 -72c-19.333 -23.333 -41.666 -35 -66.999 -35c-18 0 -44 6.33301 -78 19s-59 19 -75 19c-10 0 -19.333 -5 -28 -15
s-13.334 -20.667 -14.001 -32h-50c3.33301 32 14.166 58.167 32.499 78.5s43.166 30.5 74.499 30.5c19.333 0 43.833 -6.16699 73.5 -18.5s51.167 -18.5 64.5 -18.5c26.667 0 42.334 14.667 47.001 44z" />
    <glyph glyph-name="Adieresis" unicode="&#xc4;" horiz-adv-x="611" 
d="M300 666l-104 -372h219l-104 372h-11zM108 0h-84l222 722h119l222 -722h-84l-68 226h-259zM429 770h-88v94h88v-94zM271 770h-88v94h88v-94z" />
    <glyph glyph-name="Aring" unicode="&#xc5;" horiz-adv-x="611" 
d="M300 666l-104 -372h219l-104 372h-11zM108 0h-84l222 722h119l222 -722h-84l-68 226h-259zM206 860c0 27.333 9.83301 50.833 29.5 70.5s43.167 29.5 70.5 29.5s50.833 -9.83301 70.5 -29.5s29.5 -43.167 29.5 -70.5s-9.83301 -50.833 -29.5 -70.5
s-43.167 -29.5 -70.5 -29.5s-50.833 9.83301 -70.5 29.5s-29.5 43.167 -29.5 70.5zM250 860c0 -15.333 5.5 -28.5 16.5 -39.5s24.167 -16.5 39.5 -16.5s28.5 5.5 39.5 16.5s16.5 24.167 16.5 39.5s-5.5 28.5 -16.5 39.5s-24.167 16.5 -39.5 16.5s-28.5 -5.5 -39.5 -16.5
s-16.5 -24.167 -16.5 -39.5z" />
    <glyph glyph-name="AE" unicode="&#xc6;" horiz-adv-x="1000" 
d="M16 0l407 722h507v-68h-353v-242h251v-68h-251v-276h373v-68h-453v226h-266l-124 -226h-91zM270 294h227v372h-22z" />
    <glyph glyph-name="Ccedilla" unicode="&#xc7;" horiz-adv-x="611" 
d="M500 230l71.998 -14.001c-36 -150.667 -120.667 -226 -254 -226c-84 0 -150.333 30.333 -199 91c-51.333 64 -77 157.333 -77 280c0 117.333 24.167 208.5 72.5 273.5s116.166 97.5 203.499 97.5c128.667 0 210 -70 244 -210l-74 -22c-14 54.667 -33.667 94.667 -59 120
c-29.333 29.333 -69.666 44 -120.999 44c-54.667 0 -98.667 -24.667 -132 -74c-36 -53.333 -54 -129.666 -54 -228.999c0 -101.333 18.667 -178 56 -230c34.667 -48.667 83.334 -73 146.001 -73c88.667 0 147.334 57.333 176.001 172zM302.998 -0.000976562
l47.998 -0.000976562l-47 -58l2 -2c10 3.33301 20 5 30 5c27.333 0 48.333 -8.16699 63 -24.5s21.667 -36.166 21 -59.499c-1.33301 -56.667 -41.666 -85 -120.999 -85c-32 0 -63.333 7 -94 21l17 44c20 -12.667 42 -19 66 -19c37.333 0 56 14.333 56 43
c0 25.333 -13.667 38 -41 38c-17.333 0 -32.666 -2.66699 -45.999 -8l-17 19z" />
    <glyph glyph-name="Egrave" unicode="&#xc8;" horiz-adv-x="611" 
d="M108 722h433v-68h-353v-242h251v-68h-251v-276h373v-68h-453v722zM201 902h109l89 -142h-67z" />
    <glyph glyph-name="Eacute" unicode="&#xc9;" horiz-adv-x="611" 
d="M108 722h433v-68h-353v-242h251v-68h-251v-276h373v-68h-453v722zM358 902h109l-131 -142h-67z" />
    <glyph glyph-name="Ecircumflex" unicode="&#xca;" horiz-adv-x="611" 
d="M108 722h433v-68h-353v-242h251v-68h-251v-276h373v-68h-453v722zM188 760l98 142h94l100 -142h-80l-67 94l-65 -94h-80z" />
    <glyph glyph-name="Edieresis" unicode="&#xcb;" horiz-adv-x="611" 
d="M108 722h433v-68h-353v-242h251v-68h-251v-276h373v-68h-453v722zM457 770h-88v94h88v-94zM299 770h-88v94h88v-94z" />
    <glyph glyph-name="Igrave" unicode="&#xcc;" horiz-adv-x="333" 
d="M126 722h80v-722h-80v722zM34 902h109l89 -142h-67z" />
    <glyph glyph-name="Iacute" unicode="&#xcd;" horiz-adv-x="333" 
d="M126 722h80v-722h-80v722zM191 902h109l-131 -142h-67z" />
    <glyph glyph-name="Icircumflex" unicode="&#xce;" horiz-adv-x="333" 
d="M126 722h80v-722h-80v722zM21 760l98 142h94l100 -142h-80l-67 94l-65 -94h-80z" />
    <glyph glyph-name="Idieresis" unicode="&#xcf;" horiz-adv-x="333" 
d="M126 722h80v-722h-80v722zM290 770h-88v94h88v-94zM132 770h-88v94h88v-94z" />
    <glyph glyph-name="Eth" unicode="&#xd0;" horiz-adv-x="667" 
d="M180 412h188v-68h-188v-276h108c168 0 252 97.667 252 293s-82.667 293 -248 293h-112v-242zM32 412h68v310h194c100 0 179 -30.667 237 -92c59.333 -63.333 89 -153 89 -269c0 -109.333 -28 -196 -84 -260c-58.667 -67.333 -140.667 -101 -246 -101h-190v344h-68v68z
" />
    <glyph glyph-name="Ntilde" unicode="&#xd1;" horiz-adv-x="722" 
d="M180 0h-72v722h115l315 -556h4v556h72v-722h-66l-366 644h-2v-644zM482 885h50.001c-2.66699 -26.667 -12.667 -50.667 -30 -72c-19.333 -23.333 -41.666 -35 -66.999 -35c-18 0 -44 6.33301 -78 19s-59 19 -75 19c-10 0 -19.333 -5 -28 -15s-13.334 -20.667 -14.001 -32
h-50c3.33301 32 14.166 58.167 32.499 78.5s43.166 30.5 74.499 30.5c19.333 0 43.833 -6.16699 73.5 -18.5s51.167 -18.5 64.5 -18.5c26.667 0 42.334 14.667 47.001 44z" />
    <glyph glyph-name="Ograve" unicode="&#xd2;" horiz-adv-x="667" 
d="M131 361c0 -202 67.333 -303 202 -303s202 101 202 303s-67.333 303 -202 303s-202 -101 -202 -303zM51 361c0 119.333 24.667 211 74 275s118.666 96 207.999 96s158.666 -32 207.999 -96s74 -155.667 74 -275s-24.667 -211 -74 -275s-118.666 -96 -207.999 -96
s-158.666 32 -207.999 96s-74 155.667 -74 275zM201 902h109l89 -142h-67z" />
    <glyph glyph-name="Oacute" unicode="&#xd3;" horiz-adv-x="667" 
d="M131 361c0 -202 67.333 -303 202 -303s202 101 202 303s-67.333 303 -202 303s-202 -101 -202 -303zM51 361c0 119.333 24.667 211 74 275s118.666 96 207.999 96s158.666 -32 207.999 -96s74 -155.667 74 -275s-24.667 -211 -74 -275s-118.666 -96 -207.999 -96
s-158.666 32 -207.999 96s-74 155.667 -74 275zM358 902h109l-131 -142h-67z" />
    <glyph glyph-name="Ocircumflex" unicode="&#xd4;" horiz-adv-x="667" 
d="M131 361c0 -202 67.333 -303 202 -303s202 101 202 303s-67.333 303 -202 303s-202 -101 -202 -303zM51 361c0 119.333 24.667 211 74 275s118.666 96 207.999 96s158.666 -32 207.999 -96s74 -155.667 74 -275s-24.667 -211 -74 -275s-118.666 -96 -207.999 -96
s-158.666 32 -207.999 96s-74 155.667 -74 275zM188 760l98 142h94l100 -142h-80l-67 94l-65 -94h-80z" />
    <glyph glyph-name="Otilde" unicode="&#xd5;" horiz-adv-x="667" 
d="M131 361c0 -202 67.333 -303 202 -303s202 101 202 303s-67.333 303 -202 303s-202 -101 -202 -303zM51 361c0 119.333 24.667 211 74 275s118.666 96 207.999 96s158.666 -32 207.999 -96s74 -155.667 74 -275s-24.667 -211 -74 -275s-118.666 -96 -207.999 -96
s-158.666 32 -207.999 96s-74 155.667 -74 275zM455 885h50.001c-2.66699 -26.667 -12.667 -50.667 -30 -72c-19.333 -23.333 -41.666 -35 -66.999 -35c-18 0 -44 6.33301 -78 19s-59 19 -75 19c-10 0 -19.333 -5 -28 -15s-13.334 -20.667 -14.001 -32h-50
c3.33301 32 14.166 58.167 32.499 78.5s43.166 30.5 74.499 30.5c19.333 0 43.833 -6.16699 73.5 -18.5s51.167 -18.5 64.5 -18.5c26.667 0 42.334 14.667 47.001 44z" />
    <glyph glyph-name="Odieresis" unicode="&#xd6;" horiz-adv-x="667" 
d="M131 361c0 -202 67.333 -303 202 -303s202 101 202 303s-67.333 303 -202 303s-202 -101 -202 -303zM51 361c0 119.333 24.667 211 74 275s118.666 96 207.999 96s158.666 -32 207.999 -96s74 -155.667 74 -275s-24.667 -211 -74 -275s-118.666 -96 -207.999 -96
s-158.666 32 -207.999 96s-74 155.667 -74 275zM457 770h-88v94h88v-94zM299 770h-88v94h88v-94z" />
    <glyph glyph-name="multiply" unicode="&#xd7;" horiz-adv-x="600" 
d="M300 302l216 218l44 -44l-216 -216l216 -216l-44 -44l-216 216l-216 -216l-44 44l216 216l-216 216l44 44z" />
    <glyph glyph-name="Oslash" unicode="&#xd8;" horiz-adv-x="667" 
d="M171 158l287.001 459c-32.667 31.333 -74.334 47 -125.001 47c-134.667 0 -202 -101 -202 -303c0 -86 13.333 -153.667 40 -203zM495.001 566l-288 -459c30.667 -32.667 72.667 -49 126 -49c134.667 0 202 101 202 303c0 86.667 -13.333 155 -40 205zM623.001 770
l-83.001 -132c50 -64.667 75 -157 75 -277c0 -119.333 -24.667 -211 -74 -275s-118.666 -96 -207.999 -96c-65.333 0 -120.666 18 -165.999 54l-68 -108h-67l94 149c-50 64 -75 156 -75 276c0 119.333 24.667 211 74 275s118.666 96 207.999 96
c66 0 120.667 -17.333 164 -52l56 90h70z" />
    <glyph glyph-name="Ugrave" unicode="&#xd9;" horiz-adv-x="722" 
d="M108 722l80 0.000976562v-510c0 -44 14.667 -80 44 -108c31.333 -30.667 74.333 -46 129 -46s97.667 15.333 129 46c29.333 28 44 64 44 108v510h80v-504c0 -70.667 -23.167 -126.334 -69.5 -167.001s-107.5 -61 -183.5 -61s-136.667 20 -182 60
c-47.333 41.333 -71 97.333 -71 168v504zM228 902.001h109l89 -142h-67z" />
    <glyph glyph-name="Uacute" unicode="&#xda;" horiz-adv-x="722" 
d="M108 722l80 0.000976562v-510c0 -44 14.667 -80 44 -108c31.333 -30.667 74.333 -46 129 -46s97.667 15.333 129 46c29.333 28 44 64 44 108v510h80v-504c0 -70.667 -23.167 -126.334 -69.5 -167.001s-107.5 -61 -183.5 -61s-136.667 20 -182 60
c-47.333 41.333 -71 97.333 -71 168v504zM385 902.001h109l-131 -142h-67z" />
    <glyph glyph-name="Ucircumflex" unicode="&#xdb;" horiz-adv-x="722" 
d="M108 722l80 0.000976562v-510c0 -44 14.667 -80 44 -108c31.333 -30.667 74.333 -46 129 -46s97.667 15.333 129 46c29.333 28 44 64 44 108v510h80v-504c0 -70.667 -23.167 -126.334 -69.5 -167.001s-107.5 -61 -183.5 -61s-136.667 20 -182 60
c-47.333 41.333 -71 97.333 -71 168v504zM215 760.001l98 142h94l100 -142h-80l-67 94l-65 -94h-80z" />
    <glyph glyph-name="Udieresis" unicode="&#xdc;" horiz-adv-x="722" 
d="M108 722l80 0.000976562v-510c0 -44 14.667 -80 44 -108c31.333 -30.667 74.333 -46 129 -46s97.667 15.333 129 46c29.333 28 44 64 44 108v510h80v-504c0 -70.667 -23.167 -126.334 -69.5 -167.001s-107.5 -61 -183.5 -61s-136.667 20 -182 60
c-47.333 41.333 -71 97.333 -71 168v504zM484 770.001h-88v94h88v-94zM326 770.001h-88v94h88v-94z" />
    <glyph glyph-name="Yacute" unicode="&#xdd;" horiz-adv-x="556" 
d="M238 0v304l-222 418h88l174 -331l174 331h88l-222 -418v-304h-80zM302 902h109l-131 -142h-67z" />
    <glyph glyph-name="Thorn" unicode="&#xde;" horiz-adv-x="611" 
d="M180 514v-264.001h136c64 0 110 11.333 138 34c26 20.667 39 53.334 39 98.001c0 88 -53 132 -159 132h-154zM180 -0.000976562h-80v722h80v-140h172c73.333 0 129.333 -19.333 168 -58c35.333 -35.333 53 -83.333 53 -144c0 -62 -21.333 -110 -64 -144
c-45.333 -36 -112.333 -54 -201 -54h-128v-182z" />
    <glyph glyph-name="germandbls" unicode="&#xdf;" horiz-adv-x="556" 
d="M231 17l27.001 58.998c18.667 -16 42.667 -24 72 -24c34.667 0 61 13.667 79 41c16.667 24.667 25 57.334 25 98.001c0 118 -60.333 177 -181 177v62h29c29.333 0 54.666 11.667 75.999 35s32 52.333 32 87c0 78.667 -37.333 118 -112 118s-112 -44.667 -112 -134v-536
h-72v554c0 60 19.333 105.667 58 137c33.333 27.333 76 41 128 41c58 0 103.333 -16.333 136 -49c30.667 -31.333 46 -73 46 -125c0 -71.333 -29.667 -121.666 -89 -150.999v-2c88.667 -26 133 -95.667 133 -209c0 -63.333 -17.333 -114 -52 -152
c-32 -36 -71.333 -54 -118 -54c-40.667 0 -75.667 9 -105 27z" />
    <glyph glyph-name="agrave" unicode="&#xe0;" 
d="M120 387l-63.002 33c40.667 73.333 105.667 110 195 110c50 0 91 -11.667 123 -35c38 -28 57 -68.333 57 -121v-262c0 -44 4 -81.333 12 -112h-74l-8 72c-49.333 -54.667 -106.666 -82 -171.999 -82c-42 0 -76.667 12 -104 36c-29.333 26 -44 61.667 -44 107
c0 56.667 24 101 72 133s130 58.333 246 79v28c0 63.333 -35.667 95 -107 95c-67.333 0 -111.666 -27 -132.999 -81zM359.998 138v143.001c-164 -28.667 -246 -78.334 -246 -149.001c0 -22.667 9 -41.667 27 -57s37.667 -23 59 -23c25.333 0 53 8.16699 83 24.5
s55.667 36.833 77 61.5zM111.998 722.001h109l89 -142h-67z" />
    <glyph glyph-name="aacute" unicode="&#xe1;" 
d="M120 387l-63.002 33c40.667 73.333 105.667 110 195 110c50 0 91 -11.667 123 -35c38 -28 57 -68.333 57 -121v-262c0 -44 4 -81.333 12 -112h-74l-8 72c-49.333 -54.667 -106.666 -82 -171.999 -82c-42 0 -76.667 12 -104 36c-29.333 26 -44 61.667 -44 107
c0 56.667 24 101 72 133s130 58.333 246 79v28c0 63.333 -35.667 95 -107 95c-67.333 0 -111.666 -27 -132.999 -81zM359.998 138v143.001c-164 -28.667 -246 -78.334 -246 -149.001c0 -22.667 9 -41.667 27 -57s37.667 -23 59 -23c25.333 0 53 8.16699 83 24.5
s55.667 36.833 77 61.5zM268.998 722.001h109l-131 -142h-67z" />
    <glyph glyph-name="acircumflex" unicode="&#xe2;" 
d="M120 387l-63.002 33c40.667 73.333 105.667 110 195 110c50 0 91 -11.667 123 -35c38 -28 57 -68.333 57 -121v-262c0 -44 4 -81.333 12 -112h-74l-8 72c-49.333 -54.667 -106.666 -82 -171.999 -82c-42 0 -76.667 12 -104 36c-29.333 26 -44 61.667 -44 107
c0 56.667 24 101 72 133s130 58.333 246 79v28c0 63.333 -35.667 95 -107 95c-67.333 0 -111.666 -27 -132.999 -81zM359.998 138v143.001c-164 -28.667 -246 -78.334 -246 -149.001c0 -22.667 9 -41.667 27 -57s37.667 -23 59 -23c25.333 0 53 8.16699 83 24.5
s55.667 36.833 77 61.5zM98.998 580.001l98 142h94l100 -142h-80l-67 94l-65 -94h-80z" />
    <glyph glyph-name="atilde" unicode="&#xe3;" 
d="M120 387l-63.002 33c40.667 73.333 105.667 110 195 110c50 0 91 -11.667 123 -35c38 -28 57 -68.333 57 -121v-262c0 -44 4 -81.333 12 -112h-74l-8 72c-49.333 -54.667 -106.666 -82 -171.999 -82c-42 0 -76.667 12 -104 36c-29.333 26 -44 61.667 -44 107
c0 56.667 24 101 72 133s130 58.333 246 79v28c0 63.333 -35.667 95 -107 95c-67.333 0 -111.666 -27 -132.999 -81zM359.998 138v143.001c-164 -28.667 -246 -78.334 -246 -149.001c0 -22.667 9 -41.667 27 -57s37.667 -23 59 -23c25.333 0 53 8.16699 83 24.5
s55.667 36.833 77 61.5zM365.998 705.001h50.001c-2.66699 -26.667 -12.667 -50.667 -30 -72c-19.333 -23.333 -41.666 -35 -66.999 -35c-18 0 -44 6.33301 -78 19s-59 19 -75 19c-10 0 -19.333 -5 -28 -15s-13.334 -20.667 -14.001 -32h-50
c3.33301 32 14.166 58.167 32.499 78.5s43.166 30.5 74.499 30.5c19.333 0 43.833 -6.16699 73.5 -18.5s51.167 -18.5 64.5 -18.5c26.667 0 42.334 14.667 47.001 44z" />
    <glyph glyph-name="adieresis" unicode="&#xe4;" 
d="M120 387l-63.002 33c40.667 73.333 105.667 110 195 110c50 0 91 -11.667 123 -35c38 -28 57 -68.333 57 -121v-262c0 -44 4 -81.333 12 -112h-74l-8 72c-49.333 -54.667 -106.666 -82 -171.999 -82c-42 0 -76.667 12 -104 36c-29.333 26 -44 61.667 -44 107
c0 56.667 24 101 72 133s130 58.333 246 79v28c0 63.333 -35.667 95 -107 95c-67.333 0 -111.666 -27 -132.999 -81zM359.998 138v143.001c-164 -28.667 -246 -78.334 -246 -149.001c0 -22.667 9 -41.667 27 -57s37.667 -23 59 -23c25.333 0 53 8.16699 83 24.5
s55.667 36.833 77 61.5zM367.998 590.001h-88v94h88v-94zM209.998 590.001h-88v94h88v-94z" />
    <glyph glyph-name="aring" unicode="&#xe5;" 
d="M120 387l-63.002 33c40.667 73.333 105.667 110 195 110c50 0 91 -11.667 123 -35c38 -28 57 -68.333 57 -121v-262c0 -44 4 -81.333 12 -112h-74l-8 72c-49.333 -54.667 -106.666 -82 -171.999 -82c-42 0 -76.667 12 -104 36c-29.333 26 -44 61.667 -44 107
c0 56.667 24 101 72 133s130 58.333 246 79v28c0 63.333 -35.667 95 -107 95c-67.333 0 -111.666 -27 -132.999 -81zM359.998 138v143.001c-164 -28.667 -246 -78.334 -246 -149.001c0 -22.667 9 -41.667 27 -57s37.667 -23 59 -23c25.333 0 53 8.16699 83 24.5
s55.667 36.833 77 61.5zM144.998 680.001c0 27.333 9.83301 50.833 29.5 70.5s43.167 29.5 70.5 29.5s50.833 -9.83301 70.5 -29.5s29.5 -43.167 29.5 -70.5s-9.83301 -50.833 -29.5 -70.5s-43.167 -29.5 -70.5 -29.5s-50.833 9.83301 -70.5 29.5s-29.5 43.167 -29.5 70.5z
M188.998 680.001c0 -15.333 5.5 -28.5 16.5 -39.5s24.167 -16.5 39.5 -16.5s28.5 5.5 39.5 16.5s16.5 24.167 16.5 39.5s-5.5 28.5 -16.5 39.5s-24.167 16.5 -39.5 16.5s-28.5 -5.5 -39.5 -16.5s-16.5 -24.167 -16.5 -39.5z" />
    <glyph glyph-name="ae" unicode="&#xe6;" horiz-adv-x="778" 
d="M336 134l-0.000976562 147.001c-153.333 -30.667 -230 -80.334 -230 -149.001c0 -23.333 8.33301 -42.5 25 -57.5s36.334 -22.5 59.001 -22.5c30.667 0 61 9.33301 91 28c26 16.667 44.333 34.667 55 54zM727.999 246.001h-320.002c0 -129.333 49.333 -194 148 -194
c55.333 0 99.333 29.333 132 88l56 -29c-21.333 -37.333 -44 -65 -68 -83c-33.333 -25.333 -75.333 -38 -126 -38c-78 0 -136 29.333 -174 88c-35.333 -34.667 -69.666 -58.667 -102.999 -72c-27.333 -10.667 -59.666 -16 -96.999 -16c-36.667 0 -68.667 11.667 -96 35
c-30.667 24.667 -46 57 -46 97c0 70 31 123.333 93 160c43.333 25.333 113 46.333 209 63v28c0 63.333 -32.667 95 -98 95c-64.667 0 -107.667 -27 -129 -81l-61 33c38 73.333 100 110 186 110c70 0 120 -23.333 150 -70c37.333 46.667 87.333 70 150 70
c56 0 101.333 -18.667 136 -56c38.667 -41.333 58 -101.333 58 -180v-48zM407.997 308.001h248.001c0 48.667 -11.333 87.5 -34 116.5s-53.334 43.5 -92.001 43.5c-79.333 0 -120 -53.333 -122 -160z" />
    <glyph glyph-name="ccedilla" unicode="&#xe7;" 
d="M443 389l-67 -23.999c-22 68.667 -63 103 -123 103c-44.667 0 -79.334 -18.167 -104.001 -54.5s-37 -87.5 -37 -153.5s12.333 -117.167 37 -153.5s59.334 -54.5 104.001 -54.5c33.333 0 60.5 6.83301 81.5 20.5s41.5 38.834 61.5 75.501l58 -26
c-28 -47.333 -55 -80.333 -81 -99c-31.333 -22 -71.333 -33 -120 -33c-65.333 0 -117.166 24.167 -155.499 72.5s-57.5 114.166 -57.5 197.499s19.167 149.166 57.5 197.499s90.166 72.5 155.499 72.5c88.667 0 152 -47 190 -141zM238 0.000976562l47.998 -0.000976562
l-47 -58l2 -2c10 3.33301 20 5 30 5c27.333 0 48.333 -8.16699 63 -24.5s21.667 -36.166 21 -59.499c-1.33301 -56.667 -41.666 -85 -120.999 -85c-32 0 -63.333 7 -94 21l17 44c20 -12.667 42 -19 66 -19c37.333 0 56 14.333 56 43c0 25.333 -13.667 38 -41 38
c-17.333 0 -32.666 -2.66699 -45.999 -8l-17 19z" />
    <glyph glyph-name="egrave" unicode="&#xe8;" 
d="M410 140l56 -28.999c-21.333 -37.333 -44 -65 -68 -83c-35.333 -25.333 -79.333 -38 -132 -38c-63.333 0 -115.333 21.333 -156 64c-46.667 48 -70 116.667 -70 206c0 83.333 19.167 149.166 57.5 197.499s89.833 72.5 154.5 72.5c58 0 104.667 -18.667 140 -56
c38.667 -41.333 58 -101.333 58 -180v-48h-338c0 -56.667 14.833 -103.167 44.5 -139.5s66.167 -54.5 109.5 -54.5c63.333 0 111.333 29.333 144 88zM114 308.001h264.001c0 48.667 -11 87.5 -33 116.5s-52.333 43.5 -91 43.5c-42.667 0 -75.834 -14.333 -99.501 -43
s-37.167 -67.667 -40.5 -117zM117.001 722.001h109l89 -142h-67z" />
    <glyph glyph-name="eacute" unicode="&#xe9;" 
d="M410 140l56 -28.999c-21.333 -37.333 -44 -65 -68 -83c-35.333 -25.333 -79.333 -38 -132 -38c-63.333 0 -115.333 21.333 -156 64c-46.667 48 -70 116.667 -70 206c0 83.333 19.167 149.166 57.5 197.499s89.833 72.5 154.5 72.5c58 0 104.667 -18.667 140 -56
c38.667 -41.333 58 -101.333 58 -180v-48h-338c0 -56.667 14.833 -103.167 44.5 -139.5s66.167 -54.5 109.5 -54.5c63.333 0 111.333 29.333 144 88zM114 308.001h264.001c0 48.667 -11 87.5 -33 116.5s-52.333 43.5 -91 43.5c-42.667 0 -75.834 -14.333 -99.501 -43
s-37.167 -67.667 -40.5 -117zM274.001 722.001h109l-131 -142h-67z" />
    <glyph glyph-name="ecircumflex" unicode="&#xea;" 
d="M410 140l56 -28.999c-21.333 -37.333 -44 -65 -68 -83c-35.333 -25.333 -79.333 -38 -132 -38c-63.333 0 -115.333 21.333 -156 64c-46.667 48 -70 116.667 -70 206c0 83.333 19.167 149.166 57.5 197.499s89.833 72.5 154.5 72.5c58 0 104.667 -18.667 140 -56
c38.667 -41.333 58 -101.333 58 -180v-48h-338c0 -56.667 14.833 -103.167 44.5 -139.5s66.167 -54.5 109.5 -54.5c63.333 0 111.333 29.333 144 88zM114 308.001h264.001c0 48.667 -11 87.5 -33 116.5s-52.333 43.5 -91 43.5c-42.667 0 -75.834 -14.333 -99.501 -43
s-37.167 -67.667 -40.5 -117zM104.001 580.001l98 142h94l100 -142h-80l-67 94l-65 -94h-80z" />
    <glyph glyph-name="edieresis" unicode="&#xeb;" 
d="M410 140l56 -28.999c-21.333 -37.333 -44 -65 -68 -83c-35.333 -25.333 -79.333 -38 -132 -38c-63.333 0 -115.333 21.333 -156 64c-46.667 48 -70 116.667 -70 206c0 83.333 19.167 149.166 57.5 197.499s89.833 72.5 154.5 72.5c58 0 104.667 -18.667 140 -56
c38.667 -41.333 58 -101.333 58 -180v-48h-338c0 -56.667 14.833 -103.167 44.5 -139.5s66.167 -54.5 109.5 -54.5c63.333 0 111.333 29.333 144 88zM114 308.001h264.001c0 48.667 -11 87.5 -33 116.5s-52.333 43.5 -91 43.5c-42.667 0 -75.834 -14.333 -99.501 -43
s-37.167 -67.667 -40.5 -117zM373.001 590.001h-88v94h88v-94zM215.001 590.001h-88v94h88v-94z" />
    <glyph glyph-name="igrave" unicode="&#xec;" horiz-adv-x="278" 
d="M103 0v520h72v-520h-72zM6 722h109l89 -142h-67z" />
    <glyph glyph-name="iacute" unicode="&#xed;" horiz-adv-x="278" 
d="M103 0v520h72v-520h-72zM163 722h109l-131 -142h-67z" />
    <glyph glyph-name="icircumflex" unicode="&#xee;" horiz-adv-x="278" 
d="M103 0v520h72v-520h-72zM-7 580l98 142h94l100 -142h-80l-67 94l-65 -94h-80z" />
    <glyph glyph-name="idieresis" unicode="&#xef;" horiz-adv-x="278" 
d="M103 0v520h72v-520h-72zM262 590h-88v94h88v-94zM104 590h-88v94h88v-94z" />
    <glyph glyph-name="eth" unicode="&#xf0;" 
d="M250 52c46.667 0 82 17.667 106 53c23.333 33.333 35 80.333 35 141c0 58.667 -12 105 -36 139s-59 51 -105 51s-81 -17 -105 -51s-36 -80.333 -36 -139c0 -60.667 11.667 -107.667 35 -141c24 -35.333 59.333 -53 106 -53zM128 698l62.999 24
c30 -18.667 58.333 -41.334 85 -68.001l110 60l30 -50l-97 -55c96 -110 144 -227 144 -351c0 -80.667 -17.667 -144.667 -53 -192c-38 -50.667 -91.333 -76 -160 -76c-69.333 0 -122.666 23.333 -159.999 70c-35.333 44.667 -53 106.667 -53 186c0 77.333 17.667 138 53 182
c37.333 46.667 90.666 70 159.999 70c19.333 0 44 -4.66699 74 -14c-13.333 28.667 -34.666 59.334 -63.999 92.001l-106 -58l-34 48l101 55c-34 33.333 -65 59 -93 77z" />
    <glyph glyph-name="ntilde" unicode="&#xf1;" horiz-adv-x="556" 
d="M89 520h72v-70h2c47.333 53.333 98.666 80 153.999 80c42.667 0 77.334 -11.333 104.001 -34c30.667 -26.667 46 -66 46 -118v-378h-72v376c0 61.333 -28.333 92 -85 92c-50 0 -99.667 -26.333 -149 -79v-389h-72v520zM399 705h50.001
c-2.66699 -26.667 -12.667 -50.667 -30 -72c-19.333 -23.333 -41.666 -35 -66.999 -35c-18 0 -44 6.33301 -78 19s-59 19 -75 19c-10 0 -19.333 -5 -28 -15s-13.334 -20.667 -14.001 -32h-50c3.33301 32 14.166 58.167 32.499 78.5s43.166 30.5 74.499 30.5
c19.333 0 43.833 -6.16699 73.5 -18.5s51.167 -18.5 64.5 -18.5c26.667 0 42.334 14.667 47.001 44z" />
    <glyph glyph-name="ograve" unicode="&#xf2;" 
d="M391 260c0 66 -12.667 117.167 -38 153.5s-59.666 54.5 -102.999 54.5s-77.666 -18.167 -102.999 -54.5s-38 -87.5 -38 -153.5s12.667 -117.167 38 -153.5s59.666 -54.5 102.999 -54.5s77.666 18.167 102.999 54.5s38 87.5 38 153.5zM463 260
c0 -78.667 -17.667 -142.334 -53 -191.001c-38.667 -52.667 -92 -79 -160 -79s-121.333 26.333 -160 79c-35.333 48.667 -53 112.334 -53 191.001s17.667 142.334 53 191.001c38.667 52.667 92 79 160 79s121.333 -26.333 160 -79c35.333 -48.667 53 -112.334 53 -191.001z
M117 722h109l89 -142h-67z" />
    <glyph glyph-name="oacute" unicode="&#xf3;" 
d="M391 260c0 66 -12.667 117.167 -38 153.5s-59.666 54.5 -102.999 54.5s-77.666 -18.167 -102.999 -54.5s-38 -87.5 -38 -153.5s12.667 -117.167 38 -153.5s59.666 -54.5 102.999 -54.5s77.666 18.167 102.999 54.5s38 87.5 38 153.5zM463 260
c0 -78.667 -17.667 -142.334 -53 -191.001c-38.667 -52.667 -92 -79 -160 -79s-121.333 26.333 -160 79c-35.333 48.667 -53 112.334 -53 191.001s17.667 142.334 53 191.001c38.667 52.667 92 79 160 79s121.333 -26.333 160 -79c35.333 -48.667 53 -112.334 53 -191.001z
M274 722h109l-131 -142h-67z" />
    <glyph glyph-name="ocircumflex" unicode="&#xf4;" 
d="M391 260c0 66 -12.667 117.167 -38 153.5s-59.666 54.5 -102.999 54.5s-77.666 -18.167 -102.999 -54.5s-38 -87.5 -38 -153.5s12.667 -117.167 38 -153.5s59.666 -54.5 102.999 -54.5s77.666 18.167 102.999 54.5s38 87.5 38 153.5zM463 260
c0 -78.667 -17.667 -142.334 -53 -191.001c-38.667 -52.667 -92 -79 -160 -79s-121.333 26.333 -160 79c-35.333 48.667 -53 112.334 -53 191.001s17.667 142.334 53 191.001c38.667 52.667 92 79 160 79s121.333 -26.333 160 -79c35.333 -48.667 53 -112.334 53 -191.001z
M104 580l98 142h94l100 -142h-80l-67 94l-65 -94h-80z" />
    <glyph glyph-name="otilde" unicode="&#xf5;" 
d="M391 260c0 66 -12.667 117.167 -38 153.5s-59.666 54.5 -102.999 54.5s-77.666 -18.167 -102.999 -54.5s-38 -87.5 -38 -153.5s12.667 -117.167 38 -153.5s59.666 -54.5 102.999 -54.5s77.666 18.167 102.999 54.5s38 87.5 38 153.5zM463 260
c0 -78.667 -17.667 -142.334 -53 -191.001c-38.667 -52.667 -92 -79 -160 -79s-121.333 26.333 -160 79c-35.333 48.667 -53 112.334 -53 191.001s17.667 142.334 53 191.001c38.667 52.667 92 79 160 79s121.333 -26.333 160 -79c35.333 -48.667 53 -112.334 53 -191.001z
M371 705h50.001c-2.66699 -26.667 -12.667 -50.667 -30 -72c-19.333 -23.333 -41.666 -35 -66.999 -35c-18 0 -44 6.33301 -78 19s-59 19 -75 19c-10 0 -19.333 -5 -28 -15s-13.334 -20.667 -14.001 -32h-50c3.33301 32 14.166 58.167 32.499 78.5s43.166 30.5 74.499 30.5
c19.333 0 43.833 -6.16699 73.5 -18.5s51.167 -18.5 64.5 -18.5c26.667 0 42.334 14.667 47.001 44z" />
    <glyph glyph-name="odieresis" unicode="&#xf6;" 
d="M391 260c0 66 -12.667 117.167 -38 153.5s-59.666 54.5 -102.999 54.5s-77.666 -18.167 -102.999 -54.5s-38 -87.5 -38 -153.5s12.667 -117.167 38 -153.5s59.666 -54.5 102.999 -54.5s77.666 18.167 102.999 54.5s38 87.5 38 153.5zM463 260
c0 -78.667 -17.667 -142.334 -53 -191.001c-38.667 -52.667 -92 -79 -160 -79s-121.333 26.333 -160 79c-35.333 48.667 -53 112.334 -53 191.001s17.667 142.334 53 191.001c38.667 52.667 92 79 160 79s121.333 -26.333 160 -79c35.333 -48.667 53 -112.334 53 -191.001z
M373 590h-88v94h88v-94zM215 590h-88v94h88v-94z" />
    <glyph glyph-name="divide" unicode="&#xf7;" horiz-adv-x="600" 
d="M560 229h-520v62h520v-62zM238 468c0 17.333 6.16699 32 18.5 44s26.833 18 43.5 18c17.333 0 32 -6 44 -18s18 -26.667 18 -44c0 -16.667 -6 -31.167 -18 -43.5s-26.667 -18.5 -44 -18.5c-16.667 0 -31.167 6.16699 -43.5 18.5s-18.5 26.833 -18.5 43.5zM238 52
c0 17.333 6.16699 32 18.5 44s26.833 18 43.5 18c17.333 0 32 -6 44 -18s18 -26.667 18 -44c0 -16.667 -6 -31.167 -18 -43.5s-26.667 -18.5 -44 -18.5c-16.667 0 -31.167 6.16699 -43.5 18.5s-18.5 26.833 -18.5 43.5z" />
    <glyph glyph-name="oslash" unicode="&#xf8;" 
d="M363 396l-188.999 -319c20.667 -16.667 46 -25 76 -25c43.333 0 77.666 18.167 102.999 54.5s38 87.5 38 153.5c0 56.667 -9.33301 102 -28 136zM419.001 602h65l-82 -140c40.667 -50 61 -117.333 61 -202c0 -78.667 -17.667 -142.334 -53 -191.001
c-38.667 -52.667 -92 -79 -160 -79c-44 0 -80.333 10.333 -109 31l-61 -103h-64l83 141c-41.333 49.333 -62 116.333 -62 201c0 78.667 17.667 142.334 53 191.001c38.667 52.667 92 79 160 79c42 0 78 -10.333 108 -31zM137.001 124l187.999 319
c-20.667 16.667 -45.667 25 -75 25c-43.333 0 -77.666 -18.167 -102.999 -54.5s-38 -87.5 -38 -153.5c0 -56.667 9.33301 -102 28 -136z" />
    <glyph glyph-name="ugrave" unicode="&#xf9;" horiz-adv-x="556" 
d="M467 0h-72v70h-2c-47.333 -53.333 -98.666 -80 -153.999 -80c-42.667 0 -77.334 11.333 -104.001 34c-30.667 26.667 -46 66 -46 118v378h72v-376c0 -61.333 28.333 -92 85 -92c50 0 99.667 26.333 149 79v389h72v-520zM145 722h109l89 -142h-67z" />
    <glyph glyph-name="uacute" unicode="&#xfa;" horiz-adv-x="556" 
d="M467 0h-72v70h-2c-47.333 -53.333 -98.666 -80 -153.999 -80c-42.667 0 -77.334 11.333 -104.001 34c-30.667 26.667 -46 66 -46 118v378h72v-376c0 -61.333 28.333 -92 85 -92c50 0 99.667 26.333 149 79v389h72v-520zM302 722h109l-131 -142h-67z" />
    <glyph glyph-name="ucircumflex" unicode="&#xfb;" horiz-adv-x="556" 
d="M467 0h-72v70h-2c-47.333 -53.333 -98.666 -80 -153.999 -80c-42.667 0 -77.334 11.333 -104.001 34c-30.667 26.667 -46 66 -46 118v378h72v-376c0 -61.333 28.333 -92 85 -92c50 0 99.667 26.333 149 79v389h72v-520zM132 580l98 142h94l100 -142h-80l-67 94l-65 -94
h-80z" />
    <glyph glyph-name="udieresis" unicode="&#xfc;" horiz-adv-x="556" 
d="M467 0h-72v70h-2c-47.333 -53.333 -98.666 -80 -153.999 -80c-42.667 0 -77.334 11.333 -104.001 34c-30.667 26.667 -46 66 -46 118v378h72v-376c0 -61.333 28.333 -92 85 -92c50 0 99.667 26.333 149 79v389h72v-520zM401 590h-88v94h88v-94zM243 590h-88v94h88v-94z
" />
    <glyph glyph-name="yacute" unicode="&#xfd;" horiz-adv-x="444" 
d="M352 520h75.999l-183 -566c-31.333 -97.333 -89.666 -146 -174.999 -146c-6.66699 0 -24 2 -52 6v59c20 -2 33 -3 39 -3c72.667 0 118 41.333 136 124l-181 526h76l140 -397h2zM245.999 722h109l-131 -142h-67z" />
    <glyph glyph-name="thorn" unicode="&#xfe;" horiz-adv-x="556" 
d="M160 -192h-72v914h72v-263h2c14 20 33.833 36.833 59.5 50.5s50.834 20.5 75.501 20.5c56 0 103 -19 141 -57c48 -48 72 -119 72 -213c0 -92 -23.667 -162.333 -71 -211c-38.667 -39.333 -84.667 -59 -138 -59c-44.667 0 -90.334 19.333 -137.001 58l-4 2v-242zM160 398
l-0.000976562 -273.999c43.333 -48 87 -72 131 -72c98 0 147 70.667 147 212c0 65.333 -13.167 115.666 -39.5 150.999s-62.166 53 -107.499 53c-40 0 -83.667 -23.333 -131 -70z" />
    <glyph glyph-name="ydieresis" unicode="&#xff;" horiz-adv-x="444" 
d="M352 520h75.999l-183 -566c-31.333 -97.333 -89.666 -146 -174.999 -146c-6.66699 0 -24 2 -52 6v59c20 -2 33 -3 39 -3c72.667 0 118 41.333 136 124l-181 526h76l140 -397h2zM344.999 590h-88v94h88v-94zM186.999 590h-88v94h88v-94z" />
    <glyph glyph-name="dotlessi" unicode="&#x131;" horiz-adv-x="278" 
d="M103 0v520h72v-520h-72z" />
    <glyph glyph-name="Lslash" unicode="&#x141;" horiz-adv-x="556" 
d="M188 337v-269h342v-68h-422v305l-92 -37v68l92 37v349h80v-317l192 78v-68z" />
    <glyph glyph-name="lslash" unicode="&#x142;" horiz-adv-x="278" 
d="M175 392v-392h-72v355l-89 -46v68l89 46v299h72v-262l89 45v-68z" />
    <glyph glyph-name="OE" unicode="&#x152;" horiz-adv-x="1000" 
d="M963 68v-68h-451c-15.333 -0 -41.166 -1.66699 -77.499 -5s-65.833 -5 -88.5 -5c-105.333 0 -184.666 35.667 -237.999 107c-48 64 -72 152 -72 264s24 200 72 264c53.333 71.333 132.666 107 237.999 107c22.667 0 52.167 -1.66699 88.5 -5s62.166 -5 77.499 -5h431v-68
h-353v-242h251v-68h-251v-276h373zM510 188v346c0 47.333 -14 81.333 -42 102c-26.667 18.667 -68 28 -124 28c-152 0 -228 -101 -228 -303s76 -303 228 -303c56 0 97.667 9.83301 125 29.5s41 53.167 41 100.5z" />
    <glyph glyph-name="oe" unicode="&#x153;" horiz-adv-x="778" 
d="M95 260c0 -66 11.167 -117.167 33.5 -153.5s54.166 -54.5 95.499 -54.5c88 0 132 69.333 132 208s-44 208 -132 208c-41.333 0 -73.166 -18.167 -95.499 -54.5s-33.5 -87.5 -33.5 -153.5zM748 246l-320 -0.00195312c0 -129.333 45.333 -194 136 -194
c65.333 0 110 29.333 134 88l56 -29c-35.333 -80.667 -98.666 -121 -189.999 -121c-84 0 -141.333 31.667 -172 95c-37.333 -63.333 -93.333 -95 -168 -95c-60 0 -108.5 24.333 -145.5 73s-55.5 114.334 -55.5 197.001s18.5 148.334 55.5 197.001s85.5 73 145.5 73
c73.333 0 129.333 -31 168 -93c29.333 62 84.666 93 165.999 93c54 0 98.333 -18.667 133 -56c38 -42 57 -102 57 -180v-48zM430 307.998h246c0 48.667 -11 87.5 -33 116.5s-52.333 43.5 -91 43.5c-79.333 0 -120 -53.333 -122 -160z" />
    <glyph glyph-name="Scaron" unicode="&#x160;" horiz-adv-x="611" 
d="M520 554l-71.998 -16.001c-9.33301 37.333 -28 67 -56 89c-30 24.667 -67.333 37 -112 37c-89.333 0 -134.333 -37.333 -135 -112c-0.666992 -42.667 34 -79 104 -109l196 -82c70.667 -40 106 -93 106 -159c0 -60 -17.333 -108.333 -52 -145
c-42.667 -44.667 -106.334 -67 -191.001 -67c-70.667 0 -128.667 20.667 -174 62c-31.333 28 -59.333 70 -84 126l73 26c37.333 -97.333 100.333 -146 189 -146c51.333 0 90.666 12 117.999 36s41 55.333 41 94c0 50 -35 91.333 -105 124l-196 81c-70 38 -105 89 -105 153
c0 52.667 20.167 96.834 60.5 132.501s92.5 53.5 156.5 53.5c120.667 0 200 -59.333 238 -178zM160.002 901.999h80l65 -94l67 94h80l-100 -142h-94z" />
    <glyph glyph-name="scaron" unicode="&#x161;" horiz-adv-x="444" 
d="M24 89l57 43c37.333 -53.333 87 -80 149 -80c36.667 0 65 9 85 27c18 15.333 27 35 27 59c0 35.333 -26.667 62.666 -80 81.999l-146 50c-52.667 26 -78 66 -76 120c1.33301 44.667 17.666 79.334 48.999 104.001s72.333 36.667 123 36
c34 -0.666992 67.833 -9.5 101.5 -26.5s59.167 -38.5 76.5 -64.5l-50 -44c-40 48.667 -84.667 73 -134 73c-62.667 0 -94 -25.667 -94 -77c0 -30 26 -54 78 -72c91.333 -30.667 140 -47.667 146 -51c52 -28.667 78 -70.667 78 -126c0 -48 -18.667 -86 -56 -114
c-33.333 -25.333 -75.333 -38 -126 -38c-89.333 0 -158.666 33 -207.999 99zM76 722h80l65 -94l67 94h80l-100 -142h-94z" />
    <glyph glyph-name="Ydieresis" unicode="&#x178;" horiz-adv-x="556" 
d="M238 0v304l-222 418h88l174 -331l174 331h88l-222 -418v-304h-80zM401 770h-88v94h88v-94zM243 770h-88v94h88v-94z" />
    <glyph glyph-name="Zcaron" unicode="&#x17d;" horiz-adv-x="556" 
d="M511 68v-68h-466v58l362 596h-329v68h429v-52l-368 -602h372zM132 902h80l65 -94l67 94h80l-100 -142h-94z" />
    <glyph glyph-name="zcaron" unicode="&#x17e;" horiz-adv-x="444" 
d="M414 62v-62h-384v52l284 406h-256v62h354v-52l-284 -406h286zM76 722h80l65 -94l67 94h80l-100 -142h-94z" />
    <glyph glyph-name="florin" unicode="&#x192;" horiz-adv-x="611" 
d="M53 -186l11 66c13.333 -6.66699 29.333 -10 48 -10c30.667 0 52.5 7.33301 65.5 22s22.833 40.667 29.5 78l78 430h-114v60h126l11 58c14.667 78.667 35.834 134 63.501 166s68.5 48 122.5 48c24 0 42.333 -2.66699 55 -8l-17 -65c-13.333 7.33301 -28.333 11 -45 11
c-26.667 0 -47.334 -10.833 -62.001 -32.5s-28 -62.167 -40 -121.5l-11 -54h116v-62h-127l-82 -421c-11.333 -58 -29.333 -100 -54 -126c-28.667 -30 -70.334 -45 -125.001 -45c-11.333 0 -27.666 2 -48.999 6z" />
    <glyph glyph-name="circumflex" unicode="&#x2c6;" horiz-adv-x="278" 
d="M-7 580l98 142h94l100 -142h-80l-67 94l-65 -94h-80z" />
    <glyph glyph-name="caron" unicode="&#x2c7;" horiz-adv-x="278" 
d="M-7 722h80l65 -94l67 94h80l-100 -142h-94z" />
    <glyph glyph-name="breve" unicode="&#x2d8;" horiz-adv-x="278" 
d="M244 720h49c-12 -90.667 -63.333 -136 -154 -136s-142 45.333 -154 136h49c11.333 -52 46.333 -78 105 -78c59.333 0 94.333 26 105 78z" />
    <glyph glyph-name="dotaccent" unicode="&#x2d9;" horiz-adv-x="278" 
d="M183 590h-88v94h88v-94z" />
    <glyph glyph-name="ring" unicode="&#x2da;" horiz-adv-x="278" 
d="M39 680c0 27.333 9.83301 50.833 29.5 70.5s43.167 29.5 70.5 29.5s50.833 -9.83301 70.5 -29.5s29.5 -43.167 29.5 -70.5s-9.83301 -50.833 -29.5 -70.5s-43.167 -29.5 -70.5 -29.5s-50.833 9.83301 -70.5 29.5s-29.5 43.167 -29.5 70.5zM83 680
c0 -15.333 5.5 -28.5 16.5 -39.5s24.167 -16.5 39.5 -16.5s28.5 5.5 39.5 16.5s16.5 24.167 16.5 39.5s-5.5 28.5 -16.5 39.5s-24.167 16.5 -39.5 16.5s-28.5 -5.5 -39.5 -16.5s-16.5 -24.167 -16.5 -39.5z" />
    <glyph glyph-name="ogonek" unicode="&#x2db;" horiz-adv-x="278" 
d="M263 -123l15.999 -30c-46.667 -38 -97 -57 -151 -57c-64.667 0 -97 29.333 -97 88c0 69.333 74.667 116.333 224 141v-10c-98.667 -34 -148 -74.667 -148 -122c0 -34 19.333 -51 58 -51c22.667 0 55.334 13.667 98.001 41z" />
    <glyph glyph-name="tilde" unicode="&#x2dc;" horiz-adv-x="278" 
d="M260 705h50.001c-2.66699 -26.667 -12.667 -50.667 -30 -72c-19.333 -23.333 -41.666 -35 -66.999 -35c-18 0 -44 6.33301 -78 19s-59 19 -75 19c-10 0 -19.333 -5 -28 -15s-13.334 -20.667 -14.001 -32h-50c3.33301 32 14.166 58.167 32.499 78.5
s43.166 30.5 74.499 30.5c19.333 0 43.833 -6.16699 73.5 -18.5s51.167 -18.5 64.5 -18.5c26.667 0 42.334 14.667 47.001 44z" />
    <glyph glyph-name="hungarumlaut" unicode="&#x2dd;" horiz-adv-x="278" 
d="M89 722h107l-123 -142h-63zM239 722h109l-131 -142h-67z" />
    <glyph glyph-name="endash" unicode="&#x2013;" 
d="M0 235v50h500v-50h-500z" />
    <glyph glyph-name="emdash" unicode="&#x2014;" horiz-adv-x="1000" 
d="M0 235v50h1000v-50h-1000z" />
    <glyph glyph-name="quoteleft" unicode="&#x2018;" horiz-adv-x="278" 
d="M87 480v110l63 142h42l-47 -142h40v-110h-98z" />
    <glyph glyph-name="quoteright" unicode="&#x2019;" horiz-adv-x="278" 
d="M191 722v-110l-63 -142h-42l47 142h-40v110h98z" />
    <glyph glyph-name="quotesinglbase" unicode="&#x201a;" horiz-adv-x="278" 
d="M191 110v-110l-63 -142h-42l47 142h-40v110h98z" />
    <glyph glyph-name="quotedblleft" unicode="&#x201c;" 
d="M103 480v110l63 142h42l-47 -142h40v-110h-98zM307 480v110l63 142h42l-47 -142h40v-110h-98z" />
    <glyph glyph-name="quotedblright" unicode="&#x201d;" 
d="M397 722v-110l-63 -142h-42l47 142h-40v110h98zM193 722v-110l-63 -142h-42l47 142h-40v110h98z" />
    <glyph glyph-name="quotedblbase" unicode="&#x201e;" 
d="M397 110v-110l-63 -142h-42l47 142h-40v110h98zM193 110v-110l-63 -142h-42l47 142h-40v110h98z" />
    <glyph glyph-name="dagger" unicode="&#x2020;" 
d="M210 732h80l-24 -208l160 22v-78l-160 26l24 -174l-24 -404h-32l-24 404l24 174l-160 -26v78l160 -22z" />
    <glyph glyph-name="daggerdbl" unicode="&#x2021;" 
d="M266 494l24 -170l-24 -170l160 26v-78l-160 22l24 -208h-80l24 208l-160 -22v78l160 -26l-24 170l24 170l-160 -26v78l160 -22l-24 208h80l-24 -208l160 22v-78z" />
    <glyph glyph-name="bullet" unicode="&#x2022;" 
d="M69 361c0 50 17.5 92.5 52.5 127.5s77.5 52.5 127.5 52.5s92.667 -17.5 128 -52.5s53 -77.5 53 -127.5s-17.667 -92.667 -53 -128s-78 -53 -128 -53s-92.5 17.667 -127.5 53s-52.5 78 -52.5 128z" />
    <glyph glyph-name="ellipsis" unicode="&#x2026;" horiz-adv-x="1000" 
d="M118 110h98v-110h-98v110zM451 110h98v-110h-98v110zM784 110h98v-110h-98v110z" />
    <glyph glyph-name="perthousand" unicode="&#x2030;" horiz-adv-x="1000" 
d="M689 148c0 40.667 14.667 75.5 44 104.5s64 43.5 104 43.5s74.667 -14.5 104 -43.5s44 -63.833 44 -104.5s-14.667 -75.5 -44 -104.5s-64 -43.5 -104 -43.5s-74.667 14.5 -104 43.5s-44 63.833 -44 104.5zM747 148c0 -24 8.83203 -44.998 26.499 -62.998
s38.834 -27 63.501 -27c22 0 42.5 8.66699 61.5 26s28.5 38.666 28.5 63.999s-9.5 46.666 -28.5 63.999s-39.5 26 -61.5 26s-42 -8.33301 -60 -25c-20 -18 -30 -39.667 -30 -65zM326.999 148.002c0 40.667 14.667 75.5 44 104.5s64 43.5 104 43.5s74.667 -14.5 104 -43.5
s44 -63.833 44 -104.5s-14.667 -75.5 -44 -104.5s-64 -43.5 -104 -43.5s-74.667 14.5 -104 43.5s-44 63.833 -44 104.5zM384.999 148.002c0 -24 8.83203 -44.998 26.499 -62.998s38.834 -27 63.501 -27c22 0 42.5 8.66699 61.5 26s28.5 38.666 28.5 63.999
s-9.5 46.666 -28.5 63.999s-39.5 26 -61.5 26s-42 -8.33301 -60 -25c-20 -18 -30 -39.667 -30 -65zM14.998 574.004c0 40.667 14.667 75.5 44 104.5s64 43.5 104 43.5s74.667 -14.5 104 -43.5s44 -63.833 44 -104.5s-14.667 -75.5 -44 -104.5s-64 -43.5 -104 -43.5
s-74.667 14.5 -104 43.5s-44 63.833 -44 104.5zM72.998 574.004c0 -24 8.83203 -44.998 26.499 -62.998s38.834 -27 63.501 -27c22 0 42.5 8.66699 61.5 26s28.5 38.666 28.5 63.999s-9.5 46.666 -28.5 63.999s-39.5 26 -61.5 26s-42 -8.33301 -60 -25
c-20 -18 -30 -39.667 -30 -65zM547.997 732.006l-401 -742h-59l399 742h61z" />
    <glyph glyph-name="guilsinglleft" unicode="&#x2039;" horiz-adv-x="333" 
d="M184 418h70l-129 -158l129 -158h-68l-132 158z" />
    <glyph glyph-name="guilsinglright" unicode="&#x203a;" horiz-adv-x="333" 
d="M79 418h70l130 -158l-132 -158h-68l129 158z" />
    <glyph glyph-name="fraction" unicode="&#x2044;" horiz-adv-x="167" 
d="M-108 -10h-59l439 742h62z" />
    <glyph glyph-name="trademark" unicode="&#x2122;" horiz-adv-x="990" 
d="M376 722v-54h-128v-358h-68v358h-126v54h322zM504 654v-344h-68v412h105l124 -312l120 312h105v-412h-68v344h-2l-135 -344h-44l-135 344h-2z" />
    <glyph glyph-name="fi" unicode="&#xf001;" horiz-adv-x="556" 
d="M174 0h-72.002v458h-88v62h88v59c0 58.667 10.667 99.667 32 123c18.667 20 50.334 30 95.001 30c8 0 29.333 -1.66699 64 -5v-64c-39.333 4.66699 -56.666 7 -51.999 7c-24.667 0 -42 -5.16699 -52 -15.5s-15 -29.833 -15 -58.5v-76h113v-62h-113v-458zM396.998 0v520
h72v-520h-72zM396.998 732h72v-86h-72v86z" />
    <glyph glyph-name="fl" unicode="&#xf002;" horiz-adv-x="556" 
d="M174 0h-72.002v458h-88v62h88v59c0 58.667 10.667 99.667 32 123c18.667 20 50.334 30 95.001 30c8 0 29.333 -1.66699 64 -5v-64c-39.333 4.66699 -56.666 7 -51.999 7c-24.667 0 -42 -5.16699 -52 -15.5s-15 -29.833 -15 -58.5v-76h113v-62h-113v-458zM396.998 722h72
v-722h-72v722z" />
    <glyph glyph-name=".null" horiz-adv-x="0" 
 />
    <glyph glyph-name="nonmarkingreturn" horiz-adv-x="305" 
 />
    <glyph glyph-name="glyph231" horiz-adv-x="305" 
 />
  </font>
</defs>
</svg>
