<?xml version="1.0" standalone="no"?>
<!DOCTYPE svg PUBLIC "-//W3C//DTD SVG 1.1//EN" "http://www.w3.org/Graphics/SVG/1.1/DTD/svg11.dtd" >
<svg>
<metadata>
Created by FontForge 20090914 at Thu Nov 29 17:22:06 2012
 By www-data
Copyright (c) 1989 Adobe Systems Incorporated.  All Rights Reserved.Trade Gothic is a trademark of Linotype AG and/or its subsidiaries.
</metadata>
<defs>
<font id="TradeGothicBoldTwo" horiz-adv-x="611" >
  <font-face 
    font-family="TradeGothic"
    font-weight="400"
    font-stretch="normal"
    units-per-em="1000"
    panose-1="0 0 4 0 0 0 0 0 0 0"
    ascent="800"
    descent="-200"
    x-height="520"
    cap-height="722"
    bbox="-167 -229.003 1000 977"
    underline-thickness="50"
    underline-position="-75"
    unicode-range="U+0020-U+F002"
  />
<missing-glyph horiz-adv-x="500" 
d="M63 0v807h375v-807h-375zM125 63h250v682h-250v-682z" />
    <glyph glyph-name=".notdef" horiz-adv-x="500" 
d="M63 0v807h375v-807h-375zM125 63h250v682h-250v-682z" />
    <glyph glyph-name="space" unicode=" " horiz-adv-x="305" 
 />
    <glyph glyph-name="exclam" unicode="!" horiz-adv-x="333" 
d="M240 722l-26 -478h-96l-26 478h148zM235 0h-138v142h138v-142z" />
    <glyph glyph-name="quotedbl" unicode="&#x22;" horiz-adv-x="333" 
d="M197 450v272h112v-272h-112zM24 450v272h112v-272h-112z" />
    <glyph glyph-name="numbersign" unicode="#" 
d="M520 301v-90h-93l-28 -211h-94l27 211h-96l-28 -211h-94l27 211h-80v90h93l17 120h-80v90h92l28 211h94l-27 -211h96l28 211h94l-27 -211h80v-90h-92l-17 -120h80zM362 421h-96l-17 -120h96z" />
    <glyph glyph-name="dollar" unicode="$" 
d="M337 295v-195c72.667 0 109 30.333 109 91c0 50 -36.333 84.667 -109 104zM263 442l0.000976562 180.001c-68 -4.66699 -102 -36.334 -102 -95.001c0 -22 7.66699 -39 23 -51s41.666 -23.333 78.999 -34zM263.001 100.001l0.000976562 217.001
c-62 14 -111.667 36.667 -149 68c-43.333 36 -65 80.333 -65 133c0 64 21.667 114.667 65 152c39.333 33.333 89 50.666 149 51.999v72h74v-72c71.333 -2 139.666 -35 204.999 -99l-78 -77c-46 44.667 -88.333 70 -127 76v-200c74.667 -22 129 -49.333 163 -82
c38.667 -37.333 58 -86 58 -146c0 -62.667 -21.667 -110.667 -65 -144c-38.667 -30 -90.667 -46.667 -156 -50v-120h-74v120c-95.333 10 -169 49.667 -221 119l86 74c32.667 -49.333 77.667 -80.333 135 -93z" />
    <glyph glyph-name="percent" unicode="%" horiz-adv-x="889" 
d="M214 722c50 0 92.5 -17.667 127.5 -53s52.5 -77.666 52.5 -126.999s-17.5 -91.666 -52.5 -126.999s-77.5 -53 -127.5 -53s-92.5 17.667 -127.5 53s-52.5 77.666 -52.5 126.999s17.5 91.666 52.5 126.999s77.5 53 127.5 53zM214 624c-22 0 -41.167 -8.16699 -57.5 -24.5
s-24.5 -35.5 -24.5 -57.5s8.16699 -41.167 24.5 -57.5s35.5 -24.5 57.5 -24.5s41.167 8.16699 57.5 24.5s24.5 35.5 24.5 57.5s-8.16699 41.167 -24.5 57.5s-35.5 24.5 -57.5 24.5zM675 360c50 0 92.5 -17.667 127.5 -53s52.5 -77.666 52.5 -126.999
s-17.5 -91.666 -52.5 -126.999s-77.5 -53 -127.5 -53s-92.5 17.667 -127.5 53s-52.5 77.666 -52.5 126.999s17.5 91.666 52.5 126.999s77.5 53 127.5 53zM675 262c-22 0 -41.167 -8.16699 -57.5 -24.5s-24.5 -35.5 -24.5 -57.5s8.16699 -41.167 24.5 -57.5
s35.5 -24.5 57.5 -24.5s41.167 8.16699 57.5 24.5s24.5 35.5 24.5 57.5s-8.16699 41.167 -24.5 57.5s-35.5 24.5 -57.5 24.5zM197 -10l415 742h85l-415 -742h-85z" />
    <glyph glyph-name="ampersand" unicode="&#x26;" horiz-adv-x="667" 
d="M215 573c0 -39.333 12.667 -78.333 38 -117c56.667 42 85 82 85 120c0 21.333 -5.5 39 -16.5 53s-26.167 21 -45.5 21c-15.333 0 -29.333 -7 -42 -21s-19 -32.667 -19 -56zM510 362l110.001 -29.998c-28.667 -75.333 -58 -134.333 -88 -177
c35.333 -32 69.333 -48.333 102 -49v-116c-38 0 -70 6 -96 18c-19.333 9.33301 -47.333 28.666 -84 57.999c-48.667 -50.667 -109.667 -76 -183 -76c-70.667 0 -126 17 -166 51c-43.333 36.667 -65 89.667 -65 159c0 72.667 40 136 120 190
c-40.667 58.667 -61 116.667 -61 174c0 50.667 17.167 91.334 51.5 122.001s78.166 46 131.499 46c48 0 88.667 -15.5 122 -46.5s50 -69.167 50 -114.5c0 -41.333 -14.667 -80 -44 -116c-17.333 -20.667 -49 -49.334 -95 -86.001c42.667 -58 85 -105.667 127 -143
c27.333 39.333 50 84.666 68 135.999zM170.001 206.002c0 -26.667 10.667 -50.002 32 -70.002s46 -30 74 -30c37.333 0 69.333 13.333 96 40c-55.333 43.333 -103.333 95 -144 155c-20.667 -17.333 -34.667 -30.666 -42 -39.999c-10.667 -15.333 -16 -33.666 -16 -54.999z
" />
    <glyph glyph-name="quotesingle" unicode="'" horiz-adv-x="222" 
d="M55 450v272h112v-272h-112z" />
    <glyph glyph-name="parenleft" unicode="(" horiz-adv-x="333" 
d="M186 732l121 0.000976562c-96.667 -124.667 -145 -260.667 -145 -408s48.333 -283.333 145 -408h-121c-48 74 -81.333 137.667 -100 191c-24 65.333 -36 137.666 -36 216.999s12 152 36 218c18.667 52.667 52 116 100 190z" />
    <glyph glyph-name="parenright" unicode=")" horiz-adv-x="333" 
d="M147 -84l-121 -0.000976562c96.667 124.667 145 260.667 145 408s-48.333 283.333 -145 408h121c48 -74 81.333 -137.333 100 -190c24 -66 36 -138.667 36 -218s-12 -151.666 -36 -216.999c-18.667 -53.333 -52 -117 -100 -191z" />
    <glyph glyph-name="asterisk" unicode="*" horiz-adv-x="500" 
d="M225 572l4 5l-31 145h99l-26 -146l5 -5l128 74l30 -90l-146 -23l107 -106l-74 -58l-67 133l-7 -1l-64 -131l-75 53l106 105l-2 6l-146 18l26 89z" />
    <glyph glyph-name="plus" unicode="+" horiz-adv-x="600" 
d="M354 314h206v-108h-206v-206h-108v206h-206v108h206v206h108v-206z" />
    <glyph glyph-name="comma" unicode="," horiz-adv-x="305" 
d="M92 -150l51 150h-60v142h138v-142l-64 -150h-65z" />
    <glyph glyph-name="hyphen" unicode="-" horiz-adv-x="333" 
d="M289 206h-245v108h245v-108z" />
    <glyph glyph-name="hyphen" unicode="&#x2010;" horiz-adv-x="333" 
d="M289 206h-245v108h245v-108z" />
    <glyph glyph-name="period" unicode="." horiz-adv-x="305" 
d="M221 0h-138v142h138v-142z" />
    <glyph glyph-name="slash" unicode="/" horiz-adv-x="278" 
d="M306 732l-225 -742h-109l225 742h109z" />
    <glyph glyph-name="zero" unicode="0" 
d="M42 361c0 112 20 199.667 60 263c44.667 72 112.334 108 203.001 108s158.334 -36 203.001 -108c40 -63.333 60 -151 60 -263s-20 -199.667 -60 -263c-44.667 -72 -112.334 -108 -203.001 -108s-158.334 36 -203.001 108c-40 63.333 -60 151 -60 263zM172 361
c0 -175.333 44.333 -263 133 -263s133 87.667 133 263s-44.333 263 -133 263s-133 -87.667 -133 -263z" />
    <glyph glyph-name="one" unicode="1" 
d="M499 0h-353v100h112v498h-128v84c74 3.33301 126.333 20 157 50h101v-632h111v-100z" />
    <glyph glyph-name="two" unicode="2" 
d="M542 0l-486 0.00195312v119c6 30.667 40 72.667 102 126l167 140c58 55.333 87 101.666 87 138.999c0 31.333 -9.5 55.833 -28.5 73.5s-45.167 26.5 -78.5 26.5c-68 0 -111.333 -38 -130 -114l-116 25c7.33301 56 34.5 102.833 81.5 140.5s102.5 56.5 166.5 56.5
c66.667 0 121.667 -17.667 165 -53c46.667 -38.667 70 -90.334 70 -155.001c0 -74 -34.333 -144 -103 -210l-239 -202h342v-112z" />
    <glyph glyph-name="three" unicode="3" 
d="M194 329v107.999c61.333 0 107 6 137 18c38 16 57 43.667 57 83c0 26 -9.66699 46.833 -29 62.5s-44.333 23.5 -75 23.5c-46.667 0 -92.667 -24 -138 -72l-86 78c64 68 137.333 102 220 102c68.667 0 125 -15.667 169 -47c46 -34 69 -80.333 69 -139
c0 -72.667 -36.333 -124.667 -109 -156c88.667 -28 133 -89 133 -183c0 -70.667 -26.667 -125.667 -80 -165c-46.667 -34.667 -105.334 -52 -176.001 -52c-52.667 0 -101.667 12 -147 36c-48 24.667 -84 59.334 -108 104.001l104 59c36 -60.667 86.667 -91 152 -91
c34 0 63.333 9.83301 88 29.5s37 46.167 37 79.5c0 52 -25.333 87 -76 105c-31.333 11.333 -78.666 17 -141.999 17z" />
    <glyph glyph-name="four" unicode="4" 
d="M124 266h225v322h-2zM24 166v127l308 429h141v-456h102v-100h-102v-166h-124v166h-325z" />
    <glyph glyph-name="five" unicode="5" 
d="M88 338l26.999 384h390v-112h-292l-10 -164c26.667 28 71.667 42 135 42c62.667 0 115 -25.333 157 -76c39.333 -47.333 59 -102 59 -164c0 -80 -22.833 -143 -68.5 -189s-111.5 -69 -197.5 -69c-111.333 0 -189.333 45 -234 135l108 56
c10.667 -24.667 28.667 -44.667 54 -60c23.333 -14 48 -21.333 74 -22c44.667 -1.33301 78.667 12 102 40c21.333 26 32 62.333 32 109c0 38 -11.167 69.5 -33.5 94.5s-52.166 37.5 -89.499 37.5c-50 0 -86.333 -20.667 -109 -62z" />
    <glyph glyph-name="six" unicode="6" 
d="M433 223c0 40.667 -10.667 72.666 -32 95.999s-52 35 -92 35c-58 0 -101.333 -27.333 -130 -82c0 -57.333 14.333 -101.666 43 -132.999c25.333 -27.333 57.333 -41 96 -41c34.667 0 62.5 11.5 83.5 34.5s31.5 53.167 31.5 90.5zM538 677.999l-56.998 -103.998
c-38.667 33.333 -79.334 50 -122.001 50c-48.667 0 -90.5 -21.333 -125.5 -64s-53.167 -94.667 -54.5 -156c44 38.667 98 58 162 58s117 -21.833 159 -65.5s63 -99.834 63 -168.501c0 -74 -23.833 -132.167 -71.5 -174.5s-108.834 -63.5 -183.501 -63.5
c-78.667 0 -140.667 27.333 -186 82c-48.667 57.333 -73 139.333 -73 246c0 127.333 27.333 228.166 82 302.499s130.667 111.5 228 111.5c61.333 0 121 -18 179 -54z" />
    <glyph glyph-name="seven" unicode="7" 
d="M58 610v112h495v-75l-297 -647h-143l292 610h-347z" />
    <glyph glyph-name="eight" unicode="8" 
d="M546 552c0 -70 -39.333 -126 -118 -168c96.667 -42 145 -108 145 -198c0 -58 -25.333 -105.167 -76 -141.5s-114.667 -54.5 -192 -54.5s-141.333 18.167 -192 54.5s-76 83.5 -76 141.5c0 90 48.333 156 145 198c-78.667 42 -118 98 -118 168
c0 54.667 21.833 98.334 65.5 131.001s102.167 49 175.5 49s131.833 -16.333 175.5 -49s65.5 -76.334 65.5 -131.001zM305 90c44.667 0 78.833 9.5 102.5 28.5s35.5 44.5 35.5 76.5c0 29.333 -20.333 59.333 -61 90c-36.667 27.333 -65.334 41 -86.001 41
s-46 -12.667 -76 -38c-35.333 -29.333 -53 -60.333 -53 -93c0 -32 11.833 -57.5 35.5 -76.5s57.834 -28.5 102.501 -28.5zM303.999 632c-73.333 0 -110 -27.333 -110 -82c0 -30 14 -56.667 42 -80c24 -20 47 -30 69 -30c20 0 43.5 12.167 70.5 36.5s40.5 48.833 40.5 73.5
c0 54.667 -37.333 82 -112 82z" />
    <glyph glyph-name="nine" unicode="9" 
d="M166 499c0 -40.667 10.667 -72.666 32 -95.999s52 -35 92 -35c58 0 101.333 27.333 130 82c0 57.333 -14.333 101.666 -43 132.999c-25.333 27.333 -57.333 41 -96 41c-34.667 0 -62.5 -11.5 -83.5 -34.5s-31.5 -53.167 -31.5 -90.5zM61 44.001l56.9971 103.998
c38.667 -33.333 79.334 -50 122.001 -50c48.667 0 90.5 21.333 125.5 64s53.167 94.667 54.5 156c-44 -38.667 -98 -58 -162 -58s-117 21.833 -159 65.5s-63 99.834 -63 168.501c0 74 24.333 132.667 73 176c46.667 41.333 107.334 62 182.001 62
c78.667 0 140.667 -27 186 -81c48.667 -58 73 -140.333 73 -247c0 -127.333 -27 -227.666 -81 -300.999c-55.333 -75.333 -131.666 -113 -228.999 -113c-61.333 0 -121 18 -179 54z" />
    <glyph glyph-name="colon" unicode=":" horiz-adv-x="305" 
d="M221 300h-138v142h138v-142zM221 0h-138v142h138v-142z" />
    <glyph glyph-name="semicolon" unicode=";" horiz-adv-x="305" 
d="M92 -150l51 150h-60v142h138v-142l-64 -150h-65zM221 300h-138v142h138v-142z" />
    <glyph glyph-name="less" unicode="&#x3c;" horiz-adv-x="600" 
d="M560 103v-111l-520 222v92l520 222v-111l-372 -157z" />
    <glyph glyph-name="equal" unicode="=" horiz-adv-x="600" 
d="M560 424v-108h-520v108h520zM560 204v-108h-520v108h520z" />
    <glyph glyph-name="greater" unicode="&#x3e;" horiz-adv-x="600" 
d="M40 -8v111l372 157l-372 157v111l520 -222v-92z" />
    <glyph glyph-name="question" unicode="?" horiz-adv-x="444" 
d="M253 243l-109.999 0.000976562v55c0 32 11 66.667 33 104l62 91c22 33.333 33 61.666 33 84.999c0 14.667 -6.33301 27.334 -19 38.001s-27.334 16 -44.001 16c-22 0 -40.5 -8.83301 -55.5 -26.5s-24.167 -38.167 -27.5 -61.5l-115 32
c12.667 49.333 36.834 87.666 72.501 114.999s80.167 41 133.5 41c51.333 0 93.666 -13.667 126.999 -41c36 -29.333 54 -69 54 -119c0 -36.667 -12.333 -73 -37 -109l-70 -86c-24.667 -34 -37 -66.333 -37 -97v-37zM269.001 0.000976562h-138v142h138v-142z" />
    <glyph glyph-name="at" unicode="@" horiz-adv-x="800" 
d="M381 249c30.667 0 56.334 12.6689 77.001 38.002c19.333 23.333 29 50.666 29 81.999c0 24 -7.16699 43.667 -21.5 59s-32.833 23 -55.5 23c-30 0 -54.833 -11.5 -74.5 -34.5s-29.5 -50.833 -29.5 -83.5c0 -24.667 6.66699 -44.834 20 -60.501s31.666 -23.5 54.999 -23.5
zM515 492.002l11.001 49.999h88l-49 -244c-4 -20 -6 -32 -6 -36c0 -14.667 4.66699 -22 14 -22c24.667 0 46.667 13.667 66 41c21.333 30.667 32 71 32 121c0 78 -24.333 139 -73 183c-46.667 42 -108.334 63 -185.001 63c-80.667 0 -145.5 -27 -194.5 -81
s-73.5 -123 -73.5 -207c0 -86.667 26.333 -156 79 -208s121 -78 205 -78c73.333 0 137.333 23.333 192 70h90c-70.667 -102.667 -167.334 -154 -290.001 -154c-104.667 0 -193 35 -265 105c-74 70.667 -111 159 -111 265c0 104.667 36.167 192.834 108.5 264.501
s159.833 107.5 262.5 107.5c90 0 168 -27.333 234 -82c69.333 -58 104 -131.333 104 -220c0 -96 -33.667 -171.333 -101 -226c-50 -40.667 -98.667 -61 -146 -61c-34 0 -51.667 17 -53 51l-2 1c-30 -34.667 -62.333 -52 -97 -52c-42 0 -78.833 17.5 -110.5 52.5
s-47.5 75.833 -47.5 122.5c0 62.667 18.333 117 55 163c38.667 48.667 87.334 73 146.001 73c51.333 0 90.333 -20.667 117 -62z" />
    <glyph glyph-name="A" unicode="A" 
d="M308 584l-85 -314h168l-81 314h-2zM13 0l208 723h172l205 -723h-137l-40 156h-228l-43 -156h-137z" />
    <glyph glyph-name="B" unicode="B" horiz-adv-x="667" 
d="M78 0v722.001h268c158.667 0 240.334 -59 245.001 -177c3.33301 -79.333 -33.334 -134 -110.001 -164c48 -19.333 80.667 -42 98 -68c18.667 -28 28 -69 28 -123c0 -58.667 -20.667 -104.334 -62 -137.001c-45.333 -35.333 -112.333 -53 -201 -53h-266zM216 322.001v-210
h138c76.667 0 115 35 115 105s-38.333 105 -115 105h-138zM216 610.001v-176h138c32 0 56.5 8.16699 73.5 24.5s25.5 37.5 25.5 63.5s-8.5 47.167 -25.5 63.5s-41.5 24.5 -73.5 24.5h-138z" />
    <glyph glyph-name="C" unicode="C" 
d="M572 542l-124.998 -30.001c-22.667 69.333 -66.334 104 -131.001 104c-46.667 0 -82.834 -21.667 -108.501 -65s-38.834 -106.666 -39.501 -189.999c-1.33301 -170 49.334 -255 152.001 -255c32 0 58.5 7.5 79.5 22.5s41.5 43.167 61.5 84.5l128 -34
c-43.333 -126 -133 -189 -269 -189c-92 0 -163.333 32.333 -214 97s-76 156 -76 274s25.333 209.333 76 274s122 97 214 97c134.667 0 218.667 -63.333 252 -190z" />
    <glyph glyph-name="D" unicode="D" horiz-adv-x="667" 
d="M78 0v722h239c100.667 0 178.667 -28.333 234 -85c60 -61.333 90 -153.333 90 -276s-30 -214.667 -90 -276c-55.333 -56.667 -133.333 -85 -234 -85h-239zM216 606v-490h92c130 0 195 81.667 195 245s-65 245 -195 245h-92z" />
    <glyph glyph-name="E" unicode="E" 
d="M573 0h-489v722h478v-116h-340v-172h247v-116h-247v-202h351v-116z" />
    <glyph glyph-name="F" unicode="F" horiz-adv-x="556" 
d="M216 0h-138v722h460v-116h-322v-172h241v-116h-241v-318z" />
    <glyph glyph-name="G" unicode="G" horiz-adv-x="667" 
d="M593 548l-127.998 -34.001c-16.667 36.667 -36.167 62.834 -58.5 78.501s-51.166 23.5 -86.499 23.5c-50 0 -87.833 -23.167 -113.5 -69.5s-38.5 -110.5 -38.5 -192.5c0 -76.667 13.5 -137.167 40.5 -181.5s64.5 -66.5 112.5 -66.5c44.667 0 80.667 13.333 108 40
s41.666 61 42.999 103h-137v116h270v-365h-100v74c-50.667 -56 -113.334 -84 -188.001 -84c-94 0 -166.333 34.667 -217 104c-46.667 63.333 -70 148.666 -70 255.999c0 106.667 21.333 193.334 64 260.001c52 81.333 131 122 237 122
c135.333 0 222.666 -61.333 261.999 -184z" />
    <glyph glyph-name="H" unicode="H" horiz-adv-x="722" 
d="M222 0h-138v722h138v-288h278v288h138v-722h-138v310h-278v-310z" />
    <glyph glyph-name="I" unicode="I" horiz-adv-x="333" 
d="M235 0h-138v722h138v-722z" />
    <glyph glyph-name="J" unicode="J" horiz-adv-x="444" 
d="M-5 87l95.001 71c20.667 -34.667 45.667 -52 75 -52c38 0 57 28.667 57 86v530h138v-527c0 -136.667 -65 -205 -195 -205c-70.667 0 -127.334 32.333 -170.001 97z" />
    <glyph glyph-name="K" unicode="K" horiz-adv-x="667" 
d="M216 0h-138v722h138v-323h-2l243 323h159l-205 -271l238 -451h-153l-179 343l-101 -126v-217z" />
    <glyph glyph-name="L" unicode="L" horiz-adv-x="556" 
d="M530 0h-452v722h138v-606h314v-116z" />
    <glyph glyph-name="M" unicode="M" horiz-adv-x="833" 
d="M201 0h-120v722h194l139 -504h2l140 504h196v-722h-120v568h-2l-162 -568h-105l-160 568h-2v-568z" />
    <glyph glyph-name="N" unicode="N" horiz-adv-x="722" 
d="M211 0h-130v722h144l284 -492h2v492h130v-722h-133l-295 514h-2v-514z" />
    <glyph glyph-name="O" unicode="O" horiz-adv-x="667" 
d="M498 361c0 170 -55 255 -165 255c-108.667 0 -163.667 -85 -165 -255s53.667 -255 165 -255c110 0 165 85 165 255zM636 361c0 -118.667 -26 -210.167 -78 -274.5s-127 -96.5 -225 -96.5s-173 32.167 -225 96.5s-78 155.833 -78 274.5s26 210.167 78 274.5
s127 96.5 225 96.5s173 -32.167 225 -96.5s78 -155.833 78 -274.5z" />
    <glyph glyph-name="P" unicode="P" 
d="M206 0h-138v722h264c170 0 255 -71.667 255 -215s-85 -215 -255 -215h-126v-292zM206 610v-206h110c49.333 0 84.666 9.33301 105.999 28c18 16 27 41 27 75s-9 59.333 -27 76c-21.333 18 -56.666 27 -105.999 27h-110z" />
    <glyph glyph-name="Q" unicode="Q" horiz-adv-x="667" 
d="M333 193v123c61.333 -6 110.666 -36.667 147.999 -92c11.333 34 17 79.667 17 137c0 170 -55 255 -165 255c-108.667 0 -163.667 -85 -165 -255s53.667 -255 165 -255c34.667 0 63.334 8 86.001 24c-24 35.333 -52.667 56.333 -86 63zM655 62v-116
c-44 0 -76 5.33301 -96 16c-16.667 8 -41 29.333 -73 64c-42 -24 -93 -36 -153 -36c-98 0 -173 32.167 -225 96.5s-78 155.833 -78 274.5s26 210.167 78 274.5s127 96.5 225 96.5s173 -32.167 225 -96.5s78 -155.833 78 -274.5c0 -112 -24 -200.667 -72 -266
c26 -21.333 56.333 -32.333 91 -33z" />
    <glyph glyph-name="R" unicode="R" horiz-adv-x="667" 
d="M216 0l-138 -0.000976562v722h288c78 0 137 -20.667 177 -62c35.333 -37.333 53.333 -88 54 -152c0.666992 -45.333 -10.333 -84.666 -33 -117.999s-55.667 -56 -99 -68l159 -322h-153l-136 294h-119v-294zM216 609.999v-203.999h102c52 0 89 8.66699 111 26
c20 15.333 30 40.666 30 75.999c0 68 -39 102 -117 102h-126z" />
    <glyph glyph-name="S" unicode="S" 
d="M545 569l-125.999 -39c-23.333 62.667 -66.333 94 -129 94c-68.667 0 -103 -26.667 -103 -80c0 -32.667 32 -62.334 96 -89.001c104.667 -44 164.667 -70.667 180 -80c64 -41.333 96 -95.666 96 -162.999c0 -73.333 -21.833 -128.666 -65.5 -165.999
s-106.167 -56 -187.5 -56c-60 0 -115 15.5 -165 46.5s-85 72.5 -105 124.5l114 50c36.667 -75.333 89 -113 157 -113c81.333 0 122 32 122 96c0 38 -32 71.667 -96 101l-180 81c-64 39.333 -96 90.666 -96 153.999c0 62 23.333 111.667 70 149
c43.333 35.333 97.666 53 162.999 53c58.667 0 110.5 -14.167 155.5 -42.5s78.167 -68.5 99.5 -120.5z" />
    <glyph glyph-name="T" unicode="T" horiz-adv-x="556" 
d="M20 723h516v-116h-189v-607h-138v607h-189v116z" />
    <glyph glyph-name="U" unicode="U" horiz-adv-x="722" 
d="M500 264v458h138v-452c0 -98.667 -27.667 -171.667 -83 -219c-47.333 -40.667 -112 -61 -194 -61s-146.667 20.333 -194 61c-55.333 47.333 -83 120.333 -83 219v452h138v-458c0 -57.333 11.667 -98.333 35 -123c21.333 -23.333 56 -35 104 -35s83.167 12 105.5 36
s33.5 64.667 33.5 122z" />
    <glyph glyph-name="V" unicode="V" horiz-adv-x="556" 
d="M201 0l-191 722h136l128 -532h2l134 532h136l-191 -722h-154z" />
    <glyph glyph-name="W" unicode="W" horiz-adv-x="833" 
d="M171 0l-151 722h129l91 -487h2l103 487h142l95 -487h2l99 487h129l-150 -722h-140l-105 514h-2l-104 -514h-140z" />
    <glyph glyph-name="X" unicode="X" horiz-adv-x="556" 
d="M203 370l-183 352h150l108 -223l108 223h150l-183 -352l195 -370h-150l-120 245l-120 -245h-150z" />
    <glyph glyph-name="Y" unicode="Y" horiz-adv-x="556" 
d="M154 722l124 -286l124 286h144l-199 -434v-288h-138v288l-199 434h144z" />
    <glyph glyph-name="Z" unicode="Z" horiz-adv-x="556" 
d="M530 116v-116h-514v117l337 489h-314v116h488v-110l-349 -496h352z" />
    <glyph glyph-name="bracketleft" unicode="[" horiz-adv-x="333" 
d="M287 -74h-235v796h233v-60h-125v-676h127v-60z" />
    <glyph glyph-name="backslash" unicode="\" horiz-adv-x="278" 
d="M197 -10l-225 742h109l225 -742h-109z" />
    <glyph glyph-name="bracketright" unicode="]" horiz-adv-x="333" 
d="M281 -74h-235v60h127v676h-125v60h233v-796z" />
    <glyph glyph-name="asciicircum" unicode="^" horiz-adv-x="600" 
d="M179 347h-109l180 375h100l180 -375h-110l-120 263z" />
    <glyph glyph-name="underscore" unicode="_" horiz-adv-x="500" 
d="M500 -125h-500v50h500v-50z" />
    <glyph glyph-name="grave" unicode="`" horiz-adv-x="278" 
d="M-28 732h154l94 -146h-102z" />
    <glyph glyph-name="a" unicode="a" horiz-adv-x="500" 
d="M450 0l-121 0.000976562l-8 45c-54 -36.667 -108 -55 -162 -55c-44.667 0 -80 14 -106 42c-23.333 26 -35 58 -35 96c0 58.667 24.167 104.334 72.5 137.001s123.5 55 225.5 67v44c0 41.333 -25.333 62 -76 62c-44.667 0 -82.667 -21.333 -114 -64l-80 61
c16 27.333 42.833 50.166 80.5 68.499s75.5 27.166 113.5 26.499c71.333 -1.33301 122.5 -17.5 153.5 -48.5s46.5 -84.833 46.5 -161.5v-245c0 -30.667 3.33301 -55.667 10 -75zM316 137.001v112.001c-56.667 -10.667 -96 -21.334 -118 -32.001
c-37.333 -17.333 -56 -42 -56 -74c0 -40.667 20 -61 60 -61c32.667 0 70.667 18.333 114 55z" />
    <glyph glyph-name="b" unicode="b" horiz-adv-x="556" 
d="M64 0l0.000976562 722.001h124v-250h2c12 16 30.667 29.667 56 41s48.666 17 69.999 17c64 0 115.333 -26.667 154 -80c36 -48.667 54 -107.334 54 -176.001c0 -84 -17.333 -151.667 -52 -203c-37.333 -54 -89.333 -81 -156 -81c-48.667 0 -95.667 22 -141 66l-14 -56
h-97zM188.001 386.001v-250l38 -30c16 -10.667 35.333 -16 58 -16c77.333 0 116 56.667 116 170s-38.667 170 -116 170c-32 0 -64 -14.667 -96 -44z" />
    <glyph glyph-name="c" unicode="c" horiz-adv-x="500" 
d="M455 391l-102.999 -40.0029c-12 26 -24 44.667 -36 56c-16.667 15.333 -38.667 23 -66 23c-68 0 -102 -56.667 -102 -170s35.333 -170 106 -170c43.333 0 80 27.667 110 83l94 -53c-46.667 -87.333 -116 -130.666 -208 -129.999c-70 0 -125.167 24.333 -165.5 73
s-60.5 114.334 -60.5 197.001s20.167 148.334 60.5 197.001s95.5 73 165.5 73c49.333 0 92.166 -12.333 128.499 -37s61.833 -58.667 76.5 -102z" />
    <glyph glyph-name="d" unicode="d" horiz-adv-x="556" 
d="M492 722l0.00195312 -722.001h-105l-6 56c-45.333 -44 -92.333 -66 -141 -66c-66.667 0 -118.667 27 -156 81c-34.667 51.333 -52 119 -52 203c0 68.667 18 127.334 54 176.001c39.333 53.333 90.666 80 153.999 80c21.333 0 44.666 -5.66699 69.999 -17s44 -25 56 -41h2
v250h124zM368.002 135.999v250c-32 29.333 -64 44 -96 44c-77.333 0 -116 -56.667 -116 -170s38.667 -170 116 -170c22.667 0 42 5.33301 58 16z" />
    <glyph glyph-name="e" unicode="e" horiz-adv-x="500" 
d="M148 324h200c-0.666992 36 -10 64 -28 84s-42 30 -72 30s-54 -10 -72 -30s-27.333 -48 -28 -84zM462 240l-314 -0.00195312c2 -100 38 -150 108 -150c26.667 0 49.334 6 68.001 18c13.333 8 29.333 22.667 48 44l90 -56c-46 -70.667 -118.667 -106 -218 -106
c-67.333 0 -120.833 24.333 -160.5 73s-59.5 114.334 -59.5 197.001s20.167 148.334 60.5 197.001s95.5 73 165.5 73c65.333 0 117.666 -24 156.999 -72c36.667 -45.333 55 -101 55 -167v-51z" />
    <glyph glyph-name="f" unicode="f" horiz-adv-x="333" 
d="M313 420h-105v-420h-124v420h-72v100h71v64c0 54.667 11.5 93 34.5 115s60.5 33 112.5 33h82v-100h-34c-26 0 -44.167 -4.33301 -54.5 -13s-15.5 -23 -15.5 -43v-56h105v-100z" />
    <glyph glyph-name="g" unicode="g" horiz-adv-x="500" 
d="M214 10c-30.667 0 -53.668 -7.33301 -69.001 -22c-12.667 -11.333 -19 -24 -19 -38c0 -20.667 10.333 -35.5 31 -44.5s56.334 -13.5 107.001 -13.5c35.333 0 63.333 7.33301 84 22c15.333 11.333 23 23.333 23 36c0 14.667 -11 27.667 -33 39c-28.667 14 -70 21 -124 21z
M321.999 352c0 24 -8.33301 44.333 -25 61s-36.667 25 -60 25c-26 0 -47.5 -8.33301 -64.5 -25s-25.5 -37 -25.5 -61s8.5 -44.333 25.5 -61s38.5 -25 64.5 -25c23.333 0 43.333 8.33301 60 25s25 37 25 61zM487.999 530l-0.000976562 -84.001
c-40.667 0 -67.334 -4 -80.001 -12c18.667 -26 28 -56.667 28 -92c0 -50.667 -16.333 -91 -49 -121c-34.667 -31.333 -83.667 -47 -147 -47c-32.667 0 -55.667 -1.66699 -69 -5c-18.667 -4.66699 -28 -13.667 -28 -27c0 -21.333 29.667 -33.666 89 -36.999
c84.667 -5.33301 139.334 -12.333 164.001 -21c59.333 -20 89 -60 89 -120c0 -41.333 -19.333 -76.333 -58 -105c-44.667 -32.667 -105.667 -49 -183 -49c-72 0 -128 10.333 -168 31c-42.667 22 -64 53 -64 93c0 30.667 10 54.667 30 72c18 16 39.333 24 64 24v2
c-16 8.66699 -31.667 17.667 -47 27c-20 14.667 -30 33.667 -30 57c0 22 10.667 43.333 32 64c16.667 16 33 26.333 49 31c-51.333 42 -77 88 -77 138c0 49.333 17.333 91 52 125c38 37.333 89 56 153 56c50 0 92.667 -15.333 128 -46c24.667 32.667 65.334 48 122.001 46z
" />
    <glyph glyph-name="h" unicode="h" horiz-adv-x="556" 
d="M188 0l-124 0.000976562v722h124v-258c52 44 102 66 150 66c50.667 0 89 -15.333 115 -46s39 -73.334 39 -128.001v-356h-124v338c0 61.333 -21.333 92 -64 92c-45.333 0 -84 -18.333 -116 -55v-375z" />
    <glyph glyph-name="i" unicode="i" horiz-adv-x="278" 
d="M201 520v-520h-124v520h124zM201 616h-124v116h124v-116z" />
    <glyph glyph-name="j" unicode="j" horiz-adv-x="278" 
d="M3 -182v101.001c26 -2 39.667 -3 41 -3c30.667 0 46 21.333 46 64v540h124v-560c0 -52.667 -11.5 -90.834 -34.5 -114.501s-60.167 -35.5 -111.5 -35.5c-23.333 0 -45 2.66699 -65 8zM214 616.001h-124v116h124v-116z" />
    <glyph glyph-name="k" unicode="k" horiz-adv-x="500" 
d="M188 0h-124v722h124v-403h4l153 201h142l-153 -194l164 -326h-132l-115 233l-63 -73v-160z" />
    <glyph glyph-name="l" unicode="l" horiz-adv-x="278" 
d="M201 0h-124v722h124v-722z" />
    <glyph glyph-name="m" unicode="m" horiz-adv-x="833" 
d="M188 0l-123.999 0.00292969v520h113v-56c25.333 23.333 48.333 39.666 69 48.999c24.667 11.333 53.667 17 87 17c62 0 104.667 -25.333 128 -76c50.667 50.667 110.334 76 179.001 76c33.333 0 61.333 -10.333 84 -31c29.333 -27.333 44 -69 44 -125v-374h-124v363
c0 43.333 -20.667 65.666 -62 66.999c-28.667 0.666992 -63.334 -18 -104.001 -56v-374h-124v363c0 43.333 -20.667 65.666 -62 66.999c-28.667 0.666992 -63.334 -18 -104.001 -56v-374z" />
    <glyph glyph-name="n" unicode="n" horiz-adv-x="556" 
d="M188 0l-123.999 0.000976562v520h114v-56c63.333 44 116.666 66 159.999 66c50.667 0 89 -15.333 115 -46s39 -73.334 39 -128.001v-356h-124v338c0 61.333 -21.333 92 -64 92c-45.333 0 -84 -18.333 -116 -55v-375z" />
    <glyph glyph-name="o" unicode="o" horiz-adv-x="500" 
d="M352 260c0 113.333 -34 170 -102 170s-102 -56.667 -102 -170s34 -170 102 -170s102 56.667 102 170zM24 260c0 82.667 20.167 148.334 60.5 197.001s95.5 73 165.5 73s125.167 -24.333 165.5 -73s60.5 -114.334 60.5 -197.001s-20.167 -148.334 -60.5 -197.001
s-95.5 -73 -165.5 -73s-125.167 24.333 -165.5 73s-60.5 114.334 -60.5 197.001z" />
    <glyph glyph-name="p" unicode="p" horiz-adv-x="556" 
d="M64 -190l-0.000976562 710.001h119v-48c40 38.667 84.333 58 133 58c66.667 0 118.667 -27 156 -81c34.667 -51.333 52 -119 52 -203c0 -68.667 -18 -127.334 -54 -176.001c-38.667 -53.333 -90 -80 -154 -80c-21.333 0 -44.666 5.66699 -69.999 17s-44 25 -56 41h-2
v-238h-124zM187.999 384.001v-250c32 -29.333 64 -44 96 -44c77.333 0 116 56.667 116 170s-38.667 170 -116 170c-22.667 0 -42 -5 -58 -15z" />
    <glyph glyph-name="q" unicode="q" horiz-adv-x="556" 
d="M492 520l-0.00195312 -710.001h-124v238h-2c-12 -16 -30.667 -29.667 -56 -41s-48.666 -17 -69.999 -17c-63.333 0 -114.666 26.667 -153.999 80c-36 48.667 -54 107.334 -54 176.001c0 84 17.333 151.667 52 203c37.333 54 89.333 81 156 81
c48.667 0 95.667 -22 141 -66l14 56h97zM367.998 133.999v250l-38 31c-16 10 -35.333 15 -58 15c-77.333 0 -116 -56.667 -116 -170s38.667 -170 116 -170c32 0 64 14.667 96 44z" />
    <glyph glyph-name="r" unicode="r" horiz-adv-x="333" 
d="M180 0h-124v520h114v-89h2c31.333 64 80 97 146 99v-131c-4 0.666992 -11.333 1 -22 1c-27.333 0 -54.333 -12.333 -81 -37c-23.333 -21.333 -35 -37 -35 -47v-316z" />
    <glyph glyph-name="s" unicode="s" horiz-adv-x="444" 
d="M395 451l-78.001 -67.998c-34 36.667 -66.333 55 -97 55c-46.667 0 -70 -17 -70 -51c0 -22.667 22.333 -42.667 67 -60c68.667 -26 110.667 -44 126 -54c44.667 -30 67 -72.333 67 -127c0 -52 -18.333 -91.333 -55 -118c-33.333 -25.333 -78.666 -38 -135.999 -38
c-84 0 -149.667 35 -197 105l83 62c36 -50 76.333 -75 121 -75c22 0 39.833 5.5 53.5 16.5s20.5 25.167 20.5 42.5c0 23.333 -22.333 43.666 -67 60.999c-70 27.333 -112 45.666 -126 54.999c-44.667 29.333 -67 70 -67 122c0 46.667 17.333 84 52 112
c32.667 26 72.667 39 120 39c77.333 0 138.333 -26.333 183 -79z" />
    <glyph glyph-name="t" unicode="t" horiz-adv-x="333" 
d="M12 520h72v172h124v-172h102v-100h-102v-294c0 -24 15 -36 45 -36c8 0 27 3.33301 57 10v-102c-45.333 -5.33301 -78 -8 -98 -8c-85.333 0 -128 40 -128 120v310h-72v100z" />
    <glyph glyph-name="u" unicode="u" horiz-adv-x="556" 
d="M368 520l123.999 -0.000976562v-520h-114v56c-63.333 -44 -116.666 -66 -159.999 -66c-50.667 0 -89 15.333 -115 46s-39 73.334 -39 128.001v356h124v-338c0 -61.333 21.333 -92 64 -92c45.333 0 84 18.333 116 55v375z" />
    <glyph glyph-name="v" unicode="v" horiz-adv-x="444" 
d="M155 0l-145 520h124l86 -352h2l88 352h124l-149 -520h-130z" />
    <glyph glyph-name="w" unicode="w" horiz-adv-x="667" 
d="M144 0l-134 520h118l71 -324h2l75 324h115l72 -324h2l74 324h118l-134 -520h-112l-77 324h-2l-76 -324h-112z" />
    <glyph glyph-name="x" unicode="x" horiz-adv-x="444" 
d="M4 0l153 270l-147 250h137l73 -144l74 144h134l-146 -250l158 -270h-132l-87 162l-84 -162h-133z" />
    <glyph glyph-name="y" unicode="y" horiz-adv-x="444" 
d="M10 -186l0.000976562 102c12.667 -2.66699 30 -4 52 -4c41.333 0 68.666 13.5 81.999 40.5s20 47.5 20 61.5c0 7.33301 -5.33301 28 -16 62l-139 444h125l86 -320h2l89 320h124l-164 -521c-23.333 -74 -49.5 -124 -78.5 -150s-69.833 -39 -122.5 -39
c-20 0 -40 1.33301 -60 4z" />
    <glyph glyph-name="z" unicode="z" horiz-adv-x="444" 
d="M39 420v100h385v-88l-250 -332h252v-100h-408v88l251 332h-230z" />
    <glyph glyph-name="braceleft" unicode="{" horiz-adv-x="333" 
d="M8 294v60c20.667 0 37.5 6 50.5 18s19.5 27.667 19.5 47v194c0 39.333 11.667 69 35 89s54.333 30 93 30h71v-60h-49c-28 0 -42 -16.667 -42 -50v-190c0 -32.667 -5.83301 -57 -17.5 -73s-31.167 -27.333 -58.5 -34v-2c27.333 -6.66699 46.833 -18 58.5 -34
s17.5 -40.333 17.5 -73v-190c0 -33.333 14 -50 42 -50h49v-60h-71c-38.667 0 -69.667 10 -93 30s-35 49.667 -35 89v194c0 20 -6.5 35.833 -19.5 47.5s-29.833 17.5 -50.5 17.5z" />
    <glyph glyph-name="bar" unicode="|" horiz-adv-x="222" 
d="M57 -10v742h108v-742h-108z" />
    <glyph glyph-name="braceright" unicode="}" horiz-adv-x="333" 
d="M325 354v-60c-20.667 0 -37.5 -5.83301 -50.5 -17.5s-19.5 -27.5 -19.5 -47.5v-194c0 -39.333 -11.667 -69 -35 -89s-54.333 -30 -93 -30h-71v60h49c28 0 42 16.667 42 50v190c0 32.667 5.83301 57 17.5 73s31.167 27.333 58.5 34v2c-27.333 6.66699 -46.833 18 -58.5 34
s-17.5 40.333 -17.5 73v190c0 33.333 -14 50 -42 50h-49v60h71c38.667 0 69.667 -10 93 -30s35 -49.667 35 -89v-194c0 -19.333 6.5 -35 19.5 -47s29.833 -18 50.5 -18z" />
    <glyph glyph-name="asciitilde" unicode="~" horiz-adv-x="600" 
d="M495 350l35.001 -90c-19.333 -28 -36 -47.667 -50 -59c-23.333 -18.667 -50 -28 -80 -28c-24 0 -57 11.5 -99 34.5s-78.333 34.5 -109 34.5c-36 0 -65 -24 -87 -72l-35 90c28.667 57.333 70 86 124 86c26.667 0 65 -11.333 115 -34s82.667 -34 98 -34
c27.333 0 56.666 24 87.999 72z" />
    <glyph glyph-name="exclamdown" unicode="&#xa1;" horiz-adv-x="333" 
d="M93 -180l26 478h96l26 -478h-148zM98 542h138v-142h-138v142z" />
    <glyph glyph-name="cent" unicode="&#xa2;" 
d="M231 126l108 300.001c-8 2.66699 -18.333 4 -31 4c-74.667 0 -112 -56.667 -112 -170c0 -60.667 11.667 -105.334 35 -134.001zM386 394.001l-107.002 -299.002c8 -3.33301 19 -5 33 -5c43.333 0 80 27.667 110 83l94 -53
c-47.333 -87.333 -116.666 -130.666 -207.999 -129.999c-22 0 -43.333 2.66699 -64 8l-45 -123h-58l52 145c-74 42.667 -111 122.667 -111 240c0 82.667 20.167 148.334 60.5 197.001s95.5 73 165.5 73c22.667 0 44.667 -2.66699 66 -8l38 106h58l-46 -128
c42.667 -23.333 72.334 -59.666 89.001 -108.999l-103 -40c-6.66699 15.333 -14.667 29.666 -24 42.999z" />
    <glyph glyph-name="sterling" unicode="&#xa3;" 
d="M391 314l-116 -0.00292969c0 -75.333 -9.33301 -130.666 -28 -165.999c46 -28 85.667 -42 119 -42c30.667 0 51.667 12 63 36c6.66699 12.667 11.667 38 15 76h120c0 -66 -13.667 -119.333 -41 -160c-30 -45.333 -72.333 -68 -127 -68c-44.667 0 -82.667 5.33301 -114 16
c-24 8 -54 23.333 -90 46c-37.333 -43.333 -84 -64 -140 -62v124c62 4.66699 93 52 93 142c0 22 -1.33301 41.333 -4 58h-95v94h81c-8.66699 47.333 -13 89 -13 125c0 132.667 73.333 199 220 199c66 0 118 -19.167 156 -57.5s57 -90.166 57 -155.499h-120
c-8 70 -41.333 105 -100 105c-55.333 0 -83 -34.667 -83 -104c0 -31.333 5.66699 -68.666 17 -111.999h130v-94z" />
    <glyph glyph-name="currency" unicode="&#xa4;" 
d="M565 558l-52 -52c30.667 -44.667 46 -93 46 -145s-15.333 -100.333 -46 -145l52 -52l-62 -64l-55 51c-43.333 -29.333 -91 -44 -143 -44s-99.667 14.667 -143 44l-55 -51l-62 64l52 52c-30.667 44.667 -46 93 -46 145s15.333 100.333 46 145l-52 52l62 64l55 -51
c43.333 29.333 91 44 143 44s99.667 -14.667 143 -44l55 51zM165 361c0 -42.667 13.167 -78 39.5 -106s59.833 -42 100.5 -42s74.167 14 100.5 42s39.5 63.333 39.5 106s-13.167 78 -39.5 106s-59.833 42 -100.5 42s-74.167 -14 -100.5 -42s-39.5 -63.333 -39.5 -106z" />
    <glyph glyph-name="yen" unicode="&#xa5;" 
d="M362 202v-202h-114v202h-180v94h176l-34 68h-142v94h95l-135 264h124l153 -310l154 310h124l-135 -264h94v-94h-141l-35 -68h176v-94h-180z" />
    <glyph glyph-name="brokenbar" unicode="&#xa6;" horiz-adv-x="222" 
d="M57 -10v282h108v-282h-108zM57 450v282h108v-282h-108z" />
    <glyph glyph-name="section" unicode="&#xa7;" horiz-adv-x="500" 
d="M405 652l-68 -55c-30 35.333 -57.333 53 -82 53c-13.333 0 -24.833 -4 -34.5 -12s-14.5 -18 -14.5 -30c0 -21.333 21 -52 63 -92c74.667 -70.667 114 -108 118 -112c42 -47.333 63 -90.333 63 -129c0 -26 -7.66699 -48.667 -23 -68
c-19.333 -24 -47.666 -39.333 -84.999 -46c34 -36 51 -75 51 -117c0 -40 -13.833 -71.333 -41.5 -94s-61.834 -34 -102.501 -34c-58 0 -111.333 28.333 -160 85l68 53c24.667 -37.333 52.334 -56 83.001 -56c39.333 0 59 16.667 59 50c0 24.667 -21.667 58.334 -65 101.001
l-119 116c-43.333 46.667 -65 87.667 -65 123c0 32 10.167 58.833 30.5 80.5s46.5 33.5 78.5 35.5c-31.333 37.333 -47 74.666 -47 111.999c0 35.333 12.5 63.5 37.5 84.5s57.167 31.5 96.5 31.5c35.333 0 64.166 -5.66699 86.499 -17s46.5 -32.333 72.5 -63zM144 398
c0 -15.333 22.332 -46.333 66.999 -93c48.667 -50.667 82.334 -76 101.001 -76c29.333 0 44 13.333 44 40c0 10.667 -6.33301 24 -19 40c-6 8 -23.333 27.333 -52 58c-44 47.333 -76.667 71 -98 71c-11.333 0 -21.333 -3.83301 -30 -11.5s-13 -17.167 -13 -28.5z" />
    <glyph glyph-name="dieresis" unicode="&#xa8;" horiz-adv-x="278" 
d="M-16 712h120v-116h-120v116zM174 712h120v-116h-120v116z" />
    <glyph glyph-name="copyright" unicode="&#xa9;" horiz-adv-x="800" 
d="M400 -10c-104.667 0 -193.334 32.667 -266.001 98c-77.333 70 -116 161 -116 273s38.667 203 116 273c72.667 65.333 161.334 98 266.001 98s193.334 -32.667 266.001 -98c77.333 -70 116 -161 116 -273s-38.667 -203 -116 -273
c-72.667 -65.333 -161.334 -98 -266.001 -98zM684 361c0 86.667 -28 158.667 -84 216c-54 55.333 -120.667 83 -200 83c-80 0 -147.333 -28 -202 -84s-82 -127.667 -82 -215s27.333 -159 82 -215s122 -84 202 -84c79.333 0 146.5 28.167 201.5 84.5s82.5 127.833 82.5 214.5
zM504 305h89.998c-8 -49.333 -28.667 -87.833 -62 -115.5s-72.333 -41.5 -117 -41.5c-62 0 -112.333 20.5 -151 61.5s-58 92.5 -58 154.5c0 63.333 18.833 115.166 56.5 155.499s87.834 60.5 150.501 60.5c46 0 84.667 -12.667 116 -38c32.667 -27.333 53 -65.333 61 -114
h-86c-8.66699 42.667 -39 64 -91 64c-32 0 -56.833 -11.167 -74.5 -33.5s-26.5 -53.166 -26.5 -92.499c0 -37.333 9.5 -68.333 28.5 -93s43.833 -37 74.5 -37c54.667 0 84.334 23 89.001 69z" />
    <glyph glyph-name="ordfeminine" unicode="&#xaa;" horiz-adv-x="300" 
d="M287 414l-84 0.000976562l-5 28c-30 -22.667 -63.667 -34 -101 -34c-28.667 0 -51 8 -67 24s-24 35.667 -24 59c0 67.333 62.667 108 188 122v23c0 21.333 -14.667 32 -44 32c-31.333 0 -56 -10 -74 -30l-52 37c10.667 16.667 28.167 30.5 52.5 41.5
s48.833 16.167 73.5 15.5c46.667 -0.666992 80 -10.334 100 -29.001s30 -51 30 -97v-147c0 -19.333 2.33301 -34.333 7 -45zM194 496.001v67c-33.333 -6 -56.333 -12 -69 -18c-22 -10.667 -33 -25.667 -33 -45c0 -18.667 11 -28 33 -28c32.667 0 55.667 8 69 24z" />
    <glyph glyph-name="guillemotleft" unicode="&#xab;" horiz-adv-x="556" 
d="M60 257l120 163h112l-123 -163l123 -157h-112zM264 257l120 163h112l-123 -163l123 -157h-112z" />
    <glyph glyph-name="logicalnot" unicode="&#xac;" horiz-adv-x="600" 
d="M452 96v220h-412v108h520v-328h-108z" />
    <glyph glyph-name="minus" unicode="&#xad;" horiz-adv-x="600" 
d="M560 206h-520v108h520v-108z" />
    <glyph glyph-name="minus" unicode="&#x2212;" horiz-adv-x="600" 
d="M560 206h-520v108h520v-108z" />
    <glyph glyph-name="registered" unicode="&#xae;" horiz-adv-x="800" 
d="M337 329v-170.999h-88v407h153c55.333 0 96.833 -9.33301 124.5 -28s41.5 -50.334 41.5 -95.001c0 -68 -37.333 -104 -112 -108l106 -176h-89l-95 171h-41zM337 497.001v-100h77c44 0 66 18 66 54c0 30.667 -23.333 46 -70 46h-73zM400 -9.99902
c-104.667 0 -193.334 32.667 -266.001 98c-77.333 70 -116 161 -116 273s38.667 203 116 273c72.667 65.333 161.334 98 266.001 98s193.334 -32.667 266.001 -98c77.333 -70 116 -161 116 -273s-38.667 -203 -116 -273c-72.667 -65.333 -161.334 -98 -266.001 -98z
M684 361.001c0 86.667 -28 158.667 -84 216c-54 55.333 -120.667 83 -200 83c-80 0 -147.333 -28 -202 -84s-82 -127.667 -82 -215s27.333 -159 82 -215s122 -84 202 -84c79.333 0 146.5 28.167 201.5 84.5s82.5 127.833 82.5 214.5z" />
    <glyph glyph-name="macron" unicode="&#xaf;" horiz-adv-x="278" 
d="M312 618h-346v74h346v-74z" />
    <glyph glyph-name="macron" unicode="&#x2c9;" horiz-adv-x="278" 
d="M312 618h-346v74h346v-74z" />
    <glyph glyph-name="degree" unicode="&#xb0;" horiz-adv-x="400" 
d="M200 446c-40 0 -73.833 13.833 -101.5 41.5s-41.5 61.5 -41.5 101.5s13.833 73.833 41.5 101.5s61.5 41.5 101.5 41.5s73.833 -13.833 101.5 -41.5s41.5 -61.5 41.5 -101.5s-13.833 -73.833 -41.5 -101.5s-61.5 -41.5 -101.5 -41.5zM121 589
c0 -22 7.66699 -41.333 23 -58s34 -25 56 -25s40.667 8.33301 56 25s23 36 23 58s-7.66699 41.333 -23 58s-34 25 -56 25s-40.667 -8.33301 -56 -25s-23 -36 -23 -58z" />
    <glyph glyph-name="plusminus" unicode="&#xb1;" horiz-adv-x="600" 
d="M246 388v132h108v-132h206v-108h-206v-133h-108v133h-206v108h206zM40 0v108h520v-108h-520z" />
    <glyph glyph-name="twosuperior" unicode="&#xb2;" horiz-adv-x="366" 
d="M336 292h-316.001v72c4.66699 21.333 44.334 60.333 119.001 117c72.667 54.667 109 94.667 109 120c0 39.333 -22 59 -66 59s-72.333 -22.333 -85 -67l-75 15c5.33301 36 23 65.667 53 89s66 35 108 35c43.333 0 79.333 -10.667 108 -32c30 -23.333 45 -54.333 45 -93
c0 -44 -22.333 -86 -67 -126l-149 -117h216v-72z" />
    <glyph glyph-name="threesuperior" unicode="&#xb3;" horiz-adv-x="366" 
d="M120 490v65.998c80 0 120 18.333 120 55c0 14 -5.66699 25.667 -17 35s-26.666 14 -45.999 14c-31.333 0 -61.333 -14.333 -90 -43l-56 48c41.333 44.667 91 67 149 67c44.667 0 80.5 -9.66699 107.5 -29s40.5 -46.666 40.5 -81.999c0 -44.667 -23.333 -75.667 -70 -93
v-2c57.333 -15.333 86 -51.666 86 -108.999c0 -42 -17.333 -75 -52 -99c-30.667 -21.333 -68.667 -32 -114 -32c-34.667 0 -66.334 7.66699 -95.001 23c-31.333 16 -55 38.667 -71 68l68 35c23.333 -36 56.333 -54 99 -54c21.333 0 39.5 5.83301 54.5 17.5
s22.5 27.5 22.5 47.5c0 28.667 -15.667 48 -47 58c-19.333 6 -49 9 -89 9z" />
    <glyph glyph-name="acute" unicode="&#xb4;" horiz-adv-x="278" 
d="M152 732h154l-146 -146h-102z" />
    <glyph glyph-name="mu" unicode="&#xb5;" horiz-adv-x="556" 
d="M368 520h123.999v-520h-114v56c-63.333 -44 -116.666 -66 -159.999 -66c-8 0 -18 0.666992 -30 2v-182h-124v710h124v-338c0 -61.333 21.333 -92 64 -92c45.333 0 84 18.333 116 55v375z" />
    <glyph glyph-name="mu" unicode="&#x3bc;" horiz-adv-x="556" 
d="M368 520h123.999v-520h-114v56c-63.333 -44 -116.666 -66 -159.999 -66c-8 0 -18 0.666992 -30 2v-182h-124v710h124v-338c0 -61.333 21.333 -92 64 -92c45.333 0 84 18.333 116 55v375z" />
    <glyph glyph-name="paragraph" unicode="&#xb6;" horiz-adv-x="620" 
d="M220 -68l-0.000976562 437c-59.333 0 -107.166 15.5 -143.499 46.5s-54.5 73.167 -54.5 126.5c0 120 70 180 210 180h354v-84h-73v-706h-102v706h-89v-706h-102z" />
    <glyph glyph-name="periodcentered" unicode="&#xb7;" horiz-adv-x="305" 
d="M228 260c0 -21.333 -7.66699 -39.333 -23 -54s-33.666 -22 -54.999 -22c-20.667 0 -38.167 7.33301 -52.5 22s-21.5 32.667 -21.5 54c0 20.667 7.16699 38.5 21.5 53.5s31.833 22.5 52.5 22.5c21.333 0 39.666 -7.5 54.999 -22.5s23 -32.833 23 -53.5z" />
    <glyph glyph-name="periodcentered" unicode="&#x2219;" horiz-adv-x="305" 
d="M228 260c0 -21.333 -7.66699 -39.333 -23 -54s-33.666 -22 -54.999 -22c-20.667 0 -38.167 7.33301 -52.5 22s-21.5 32.667 -21.5 54c0 20.667 7.16699 38.5 21.5 53.5s31.833 22.5 52.5 22.5c21.333 0 39.666 -7.5 54.999 -22.5s23 -32.833 23 -53.5z" />
    <glyph glyph-name="cedilla" unicode="&#xb8;" horiz-adv-x="278" 
d="M21 -203l17.999 42c30 -10.667 56 -16 78 -16c34.667 0 52 14 52 42c0 20.667 -14.333 31 -43 31c-8 0 -22 -2 -42 -6l-20 20l59 90h53l-43 -63c13.333 3.33301 25.333 5 36 5c24.667 0 45 -6 61 -18c18 -14 27 -33.333 27 -58c0 -30.667 -14 -55 -42 -73
c-24 -14.667 -52.333 -22 -85 -22c-29.333 0 -65.666 8.66699 -108.999 26z" />
    <glyph glyph-name="onesuperior" unicode="&#xb9;" horiz-adv-x="366" 
d="M304 292h-229v66h67v288h-77v56c47.333 2 81.333 12 102 30h67v-374h70v-66z" />
    <glyph glyph-name="ordmasculine" unicode="&#xba;" horiz-adv-x="300" 
d="M210 570c0 65.333 -20 98 -60 98c-40.667 0 -61 -32.667 -61 -98s20.333 -98 61 -98c40 0 60 32.667 60 98zM3 570c0 50 13 89.5 39 118.5s62 43.5 108 43.5c45.333 0 81 -14.5 107 -43.5s39 -68.5 39 -118.5s-13 -89.5 -39 -118.5s-61.667 -43.5 -107 -43.5
c-46 0 -82 14.5 -108 43.5s-39 68.5 -39 118.5z" />
    <glyph glyph-name="guillemotright" unicode="&#xbb;" horiz-adv-x="556" 
d="M496 263l-120 -163h-112l123 163l-123 157h112zM292 263l-120 -163h-112l123 163l-123 157h112z" />
    <glyph glyph-name="onequarter" unicode="&#xbc;" horiz-adv-x="916" 
d="M733 166v176h-2l-125 -176h127zM530 100v84l192 250h103v-268h63v-66h-63v-100h-92v100h-203zM211 -10l413 742h88l-412 -742h-89zM314 292h-229v66h67v288h-77v56c47.333 2 81.333 12 102 30h67v-374h70v-66z" />
    <glyph glyph-name="onehalf" unicode="&#xbd;" horiz-adv-x="916" 
d="M195 -10l413 742h88l-412 -742h-89zM314 292h-229v66h67v288h-77v56c47.333 2 81.333 12 102 30h67v-374h70v-66zM848 0h-316.001v72c4.66699 21.333 44.334 60.333 119.001 117c72.667 54.667 109 94.667 109 120c0 39.333 -22 59 -66 59s-72.333 -22.333 -85 -67
l-75 15c5.33301 36 23 65.667 53 89s66 35 108 35c43.333 0 79.333 -10.667 108 -32c30 -23.333 45 -54.333 45 -93c0 -44 -22.333 -86 -67 -126l-149 -117h216v-72z" />
    <glyph glyph-name="threequarters" unicode="&#xbe;" horiz-adv-x="916" 
d="M136 490v65.998c80 0 120 18.333 120 55c0 14 -5.66699 25.667 -17 35s-26.666 14 -45.999 14c-31.333 0 -61.333 -14.333 -90 -43l-56 48c41.333 44.667 91 67 149 67c44.667 0 80.5 -9.66699 107.5 -29s40.5 -46.666 40.5 -81.999c0 -44.667 -23.333 -75.667 -70 -93
v-2c57.333 -15.333 86 -51.666 86 -108.999c0 -42 -17.333 -75 -52 -99c-30.667 -21.333 -68.667 -32 -114 -32c-34.667 0 -66.334 7.66699 -95.001 23c-31.333 16 -55 38.667 -71 68l68 35c23.333 -36 56.333 -54 99 -54c21.333 0 39.5 5.83301 54.5 17.5
s22.5 27.5 22.5 47.5c0 28.667 -15.667 48 -47 58c-19.333 6 -49 9 -89 9zM530 99.998v84l192 250h103v-268h63v-66h-63v-100h-92v100h-203zM225 -10.002l413 742h88l-412 -742h-89zM733 165.998v176h-2l-125 -176h127z" />
    <glyph glyph-name="questiondown" unicode="&#xbf;" horiz-adv-x="444" 
d="M191 299l109.999 -0.000976562v-55c0 -32 -11 -66.667 -33 -104l-62 -91c-22 -33.333 -33 -61.666 -33 -84.999c0 -14.667 6.33301 -27.334 19 -38.001s27.334 -16 44.001 -16c22 0 41 9.33301 57 28c14 16.667 22.667 36.667 26 60l115 -32
c-12.667 -49.333 -36.834 -87.666 -72.501 -114.999s-80.167 -41 -133.5 -41c-51.333 0 -93.666 13.667 -126.999 41c-36 29.333 -54 69 -54 119c0 36.667 12.333 73 37 109l70 86c24.667 34 37 66.333 37 97v37zM174.999 541.999h138v-142h-138v142z" />
    <glyph glyph-name="Agrave" unicode="&#xc0;" 
d="M308 584l-85 -314h168l-81 314h-2zM13 0l208 723h172l205 -723h-137l-40 156h-228l-43 -156h-137zM139 908h154l94 -146h-102z" />
    <glyph glyph-name="Aacute" unicode="&#xc1;" 
d="M308 584l-85 -314h168l-81 314h-2zM13 0l208 723h172l205 -723h-137l-40 156h-228l-43 -156h-137zM319 908h154l-146 -146h-102z" />
    <glyph glyph-name="Acircumflex" unicode="&#xc2;" 
d="M308 584l-85 -314h168l-81 314h-2zM13 0l208 723h172l205 -723h-137l-40 156h-228l-43 -156h-137zM243 908h124l115 -146h-113l-63 82l-64 -82h-112z" />
    <glyph glyph-name="Atilde" unicode="&#xc3;" 
d="M308 584l-85 -314h168l-81 314h-2zM13 0l208 723h172l205 -723h-137l-40 156h-228l-43 -156h-137zM424 898h64.999c-17.333 -81.333 -54.333 -122 -111 -122c-17.333 0 -43 5.83301 -77 17.5s-57.333 17.5 -70 17.5c-21.333 0 -36.666 -13.667 -45.999 -41h-62
c4.66699 34 16 62 34 84c21.333 25.333 48 38 80 38c20 0 46.167 -6.16699 78.5 -18.5s52.833 -18.5 61.5 -18.5c25.333 0 41 14.333 47 43z" />
    <glyph glyph-name="Adieresis" unicode="&#xc4;" 
d="M308 584l-85 -314h168l-81 314h-2zM13 0l208 723h172l205 -723h-137l-40 156h-228l-43 -156h-137zM151 888h120v-116h-120v116zM341 888h120v-116h-120v116z" />
    <glyph glyph-name="Aring" unicode="&#xc5;" 
d="M308 584l-85 -314h168l-81 314h-2zM13 0l208 723h172l205 -723h-137l-40 156h-228l-43 -156h-137zM198 869c0 30 10.5 55.5 31.5 76.5s46.5 31.5 76.5 31.5s55.5 -10.5 76.5 -31.5s31.5 -46.5 31.5 -76.5s-10.5 -55.5 -31.5 -76.5s-46.5 -31.5 -76.5 -31.5
s-55.5 10.5 -76.5 31.5s-31.5 46.5 -31.5 76.5zM252 869c0 -14.667 5.33301 -27.334 16 -38.001s23.334 -16 38.001 -16c15.333 0 28.166 5.33301 38.499 16s15.5 23.334 15.5 38.001c0 15.333 -5.16699 28.166 -15.5 38.499s-23.166 15.5 -38.499 15.5
c-14.667 0 -27.334 -5.16699 -38.001 -15.5s-16 -23.166 -16 -38.499z" />
    <glyph glyph-name="AE" unicode="&#xc6;" horiz-adv-x="944" 
d="M154 0h-147l363 722h525v-116h-303v-172h210v-116h-210v-202h314v-116h-452v169h-220zM291 285h163v337h-2z" />
    <glyph glyph-name="Ccedilla" unicode="&#xc7;" 
d="M572 542l-124.998 -30.001c-22.667 69.333 -66.334 104 -131.001 104c-46.667 0 -82.834 -21.667 -108.501 -65s-38.834 -106.666 -39.501 -189.999c-1.33301 -170 49.334 -255 152.001 -255c32 0 58.5 7.5 79.5 22.5s41.5 43.167 61.5 84.5l128 -34
c-43.333 -126 -133 -189 -269 -189c-92 0 -163.333 32.333 -214 97s-76 156 -76 274s25.333 209.333 76 274s122 97 214 97c134.667 0 218.667 -63.333 252 -190zM197.002 -203.001l17.999 42c30 -10.667 56 -16 78 -16c34.667 0 52 14 52 42c0 20.667 -14.333 31 -43 31
c-8 0 -22 -2 -42 -6l-20 20l59 90h53l-43 -63c13.333 3.33301 25.333 5 36 5c24.667 0 45 -6 61 -18c18 -14 27 -33.333 27 -58c0 -30.667 -14 -55 -42 -73c-24 -14.667 -52.333 -22 -85 -22c-29.333 0 -65.666 8.66699 -108.999 26z" />
    <glyph glyph-name="Egrave" unicode="&#xc8;" 
d="M573 0h-489v722h478v-116h-340v-172h247v-116h-247v-202h351v-116zM158 908h154l94 -146h-102z" />
    <glyph glyph-name="Eacute" unicode="&#xc9;" 
d="M573 0h-489v722h478v-116h-340v-172h247v-116h-247v-202h351v-116zM338 908h154l-146 -146h-102z" />
    <glyph glyph-name="Ecircumflex" unicode="&#xca;" 
d="M573 0h-489v722h478v-116h-340v-172h247v-116h-247v-202h351v-116zM262 908h124l115 -146h-113l-63 82l-64 -82h-112z" />
    <glyph glyph-name="Edieresis" unicode="&#xcb;" 
d="M573 0h-489v722h478v-116h-340v-172h247v-116h-247v-202h351v-116zM170 888h120v-116h-120v116zM360 888h120v-116h-120v116z" />
    <glyph glyph-name="Igrave" unicode="&#xcc;" horiz-adv-x="333" 
d="M235 0h-138v722h138v-722zM-3 908h154l94 -146h-102z" />
    <glyph glyph-name="Iacute" unicode="&#xcd;" horiz-adv-x="333" 
d="M235 0h-138v722h138v-722zM177 908h154l-146 -146h-102z" />
    <glyph glyph-name="Icircumflex" unicode="&#xce;" horiz-adv-x="333" 
d="M235 0h-138v722h138v-722zM101 908h124l115 -146h-113l-63 82l-64 -82h-112z" />
    <glyph glyph-name="Idieresis" unicode="&#xcf;" horiz-adv-x="333" 
d="M235 0h-138v722h138v-722zM9 888h120v-116h-120v116zM199 888h120v-116h-120v116z" />
    <glyph glyph-name="Eth" unicode="&#xd0;" horiz-adv-x="667" 
d="M78 0v310h-67v124h67v288h239c100.667 0 178.667 -28.333 234 -85c60 -61.333 90 -153.333 90 -276s-30 -214.667 -90 -276c-55.333 -56.667 -133.333 -85 -234 -85h-239zM216 606v-172h149v-124h-149v-194h92c130 0 195 81.667 195 245s-65 245 -195 245h-92z" />
    <glyph glyph-name="Ntilde" unicode="&#xd1;" horiz-adv-x="722" 
d="M211 0h-130v722h144l284 -492h2v492h130v-722h-133l-295 514h-2v-514zM479 898h64.999c-17.333 -81.333 -54.333 -122 -111 -122c-17.333 0 -43 5.83301 -77 17.5s-57.333 17.5 -70 17.5c-21.333 0 -36.666 -13.667 -45.999 -41h-62c4.66699 34 16 62 34 84
c21.333 25.333 48 38 80 38c20 0 46.167 -6.16699 78.5 -18.5s52.833 -18.5 61.5 -18.5c25.333 0 41 14.333 47 43z" />
    <glyph glyph-name="Ograve" unicode="&#xd2;" horiz-adv-x="667" 
d="M498 361c0 170 -55 255 -165 255c-108.667 0 -163.667 -85 -165 -255s53.667 -255 165 -255c110 0 165 85 165 255zM636 361c0 -118.667 -26 -210.167 -78 -274.5s-127 -96.5 -225 -96.5s-173 32.167 -225 96.5s-78 155.833 -78 274.5s26 210.167 78 274.5
s127 96.5 225 96.5s173 -32.167 225 -96.5s78 -155.833 78 -274.5zM167 908h154l94 -146h-102z" />
    <glyph glyph-name="Oacute" unicode="&#xd3;" horiz-adv-x="667" 
d="M498 361c0 170 -55 255 -165 255c-108.667 0 -163.667 -85 -165 -255s53.667 -255 165 -255c110 0 165 85 165 255zM636 361c0 -118.667 -26 -210.167 -78 -274.5s-127 -96.5 -225 -96.5s-173 32.167 -225 96.5s-78 155.833 -78 274.5s26 210.167 78 274.5
s127 96.5 225 96.5s173 -32.167 225 -96.5s78 -155.833 78 -274.5zM347 908h154l-146 -146h-102z" />
    <glyph glyph-name="Ocircumflex" unicode="&#xd4;" horiz-adv-x="667" 
d="M498 361c0 170 -55 255 -165 255c-108.667 0 -163.667 -85 -165 -255s53.667 -255 165 -255c110 0 165 85 165 255zM636 361c0 -118.667 -26 -210.167 -78 -274.5s-127 -96.5 -225 -96.5s-173 32.167 -225 96.5s-78 155.833 -78 274.5s26 210.167 78 274.5
s127 96.5 225 96.5s173 -32.167 225 -96.5s78 -155.833 78 -274.5zM271 908h124l115 -146h-113l-63 82l-64 -82h-112z" />
    <glyph glyph-name="Otilde" unicode="&#xd5;" horiz-adv-x="667" 
d="M498 361c0 170 -55 255 -165 255c-108.667 0 -163.667 -85 -165 -255s53.667 -255 165 -255c110 0 165 85 165 255zM636 361c0 -118.667 -26 -210.167 -78 -274.5s-127 -96.5 -225 -96.5s-173 32.167 -225 96.5s-78 155.833 -78 274.5s26 210.167 78 274.5
s127 96.5 225 96.5s173 -32.167 225 -96.5s78 -155.833 78 -274.5zM452 898h64.999c-17.333 -81.333 -54.333 -122 -111 -122c-17.333 0 -43 5.83301 -77 17.5s-57.333 17.5 -70 17.5c-21.333 0 -36.666 -13.667 -45.999 -41h-62c4.66699 34 16 62 34 84
c21.333 25.333 48 38 80 38c20 0 46.167 -6.16699 78.5 -18.5s52.833 -18.5 61.5 -18.5c25.333 0 41 14.333 47 43z" />
    <glyph glyph-name="Odieresis" unicode="&#xd6;" horiz-adv-x="667" 
d="M498 361c0 170 -55 255 -165 255c-108.667 0 -163.667 -85 -165 -255s53.667 -255 165 -255c110 0 165 85 165 255zM636 361c0 -118.667 -26 -210.167 -78 -274.5s-127 -96.5 -225 -96.5s-173 32.167 -225 96.5s-78 155.833 -78 274.5s26 210.167 78 274.5
s127 96.5 225 96.5s173 -32.167 225 -96.5s78 -155.833 78 -274.5zM179 888h120v-116h-120v116zM369 888h120v-116h-120v116z" />
    <glyph glyph-name="multiply" unicode="&#xd7;" horiz-adv-x="600" 
d="M300 184l-183 -184l-77 78l183 183l-183 183l77 76l183 -182l183 182l77 -76l-183 -183l183 -183l-77 -78z" />
    <glyph glyph-name="Oslash" unicode="&#xd8;" horiz-adv-x="667" 
d="M480 499l-242 -363c25.333 -20 57 -30 95 -30c110 0 165 85 165 255c0 56 -6 102 -18 138zM183 226l242.001 362c-24.667 18.667 -55.334 28 -92.001 28c-110 0 -165 -85 -165 -255c0 -58 5 -103 15 -135zM656.001 762l-91 -136c47.333 -63.333 71 -151.666 71 -264.999
c0 -118.667 -26 -210.167 -78 -274.5s-127 -96.5 -225 -96.5c-66 0 -120.667 14.333 -164 43l-66 -99h-114l110 165c-46 63.333 -69 150.666 -69 261.999c0 118.667 26 210.167 78 274.5s127 96.5 225 96.5c63.333 0 117 -14 161 -42l47 72h115z" />
    <glyph glyph-name="Ugrave" unicode="&#xd9;" horiz-adv-x="722" 
d="M500 264v458h138v-452c0 -98.667 -27.667 -171.667 -83 -219c-47.333 -40.667 -112 -61 -194 -61s-146.667 20.333 -194 61c-55.333 47.333 -83 120.333 -83 219v452h138v-458c0 -57.333 11.667 -98.333 35 -123c21.333 -23.333 56 -35 104 -35s83.167 12 105.5 36
s33.5 64.667 33.5 122zM191 908h154l94 -146h-102z" />
    <glyph glyph-name="Uacute" unicode="&#xda;" horiz-adv-x="722" 
d="M500 264v458h138v-452c0 -98.667 -27.667 -171.667 -83 -219c-47.333 -40.667 -112 -61 -194 -61s-146.667 20.333 -194 61c-55.333 47.333 -83 120.333 -83 219v452h138v-458c0 -57.333 11.667 -98.333 35 -123c21.333 -23.333 56 -35 104 -35s83.167 12 105.5 36
s33.5 64.667 33.5 122zM371 908h154l-146 -146h-102z" />
    <glyph glyph-name="Ucircumflex" unicode="&#xdb;" horiz-adv-x="722" 
d="M500 264v458h138v-452c0 -98.667 -27.667 -171.667 -83 -219c-47.333 -40.667 -112 -61 -194 -61s-146.667 20.333 -194 61c-55.333 47.333 -83 120.333 -83 219v452h138v-458c0 -57.333 11.667 -98.333 35 -123c21.333 -23.333 56 -35 104 -35s83.167 12 105.5 36
s33.5 64.667 33.5 122zM295 908h124l115 -146h-113l-63 82l-64 -82h-112z" />
    <glyph glyph-name="Udieresis" unicode="&#xdc;" horiz-adv-x="722" 
d="M500 264v458h138v-452c0 -98.667 -27.667 -171.667 -83 -219c-47.333 -40.667 -112 -61 -194 -61s-146.667 20.333 -194 61c-55.333 47.333 -83 120.333 -83 219v452h138v-458c0 -57.333 11.667 -98.333 35 -123c21.333 -23.333 56 -35 104 -35s83.167 12 105.5 36
s33.5 64.667 33.5 122zM203 888h120v-116h-120v116zM393 888h120v-116h-120v116z" />
    <glyph glyph-name="Yacute" unicode="&#xdd;" horiz-adv-x="556" 
d="M154 722l124 -286l124 286h144l-199 -434v-288h-138v288l-199 434h144zM291 908h154l-146 -146h-102z" />
    <glyph glyph-name="Thorn" unicode="&#xde;" 
d="M206 0h-138v722h138v-133h126c170 0 255 -71.667 255 -215s-85 -215 -255 -215h-126v-159zM206 477v-206h110c49.333 0 84.666 9.33301 105.999 28c18 16 27 41 27 75s-9 59.333 -27 76c-21.333 18 -56.666 27 -105.999 27h-110z" />
    <glyph glyph-name="germandbls" unicode="&#xdf;" horiz-adv-x="500" 
d="M177 0l-124 -0.000976562v550c0 51.333 15.333 92.333 46 123c33.333 32.667 80.333 49 141 49c64.667 0 114 -15.667 148 -47c32 -30.667 48 -73.667 48 -129c0 -73.333 -25.333 -122.666 -76 -147.999v-2c80 -22.667 120 -88.667 120 -198
c0 -138.667 -59.667 -208 -179 -208c-33.333 0 -60.333 8 -81 24l30 88c14.667 -8 29.667 -12 45 -12c40.667 0 61 38 61 114c0 88 -30 132 -90 132h-26v100h16c40 0 60 29.667 60 89c0 64.667 -24.667 97 -74 97c-43.333 0 -65 -25.333 -65 -76v-546z" />
    <glyph glyph-name="agrave" unicode="&#xe0;" horiz-adv-x="500" 
d="M450 0l-121 0.000976562l-8 45c-54 -36.667 -108 -55 -162 -55c-44.667 0 -80 14 -106 42c-23.333 26 -35 58 -35 96c0 58.667 24.167 104.334 72.5 137.001s123.5 55 225.5 67v44c0 41.333 -25.333 62 -76 62c-44.667 0 -82.667 -21.333 -114 -64l-80 61
c16 27.333 42.833 50.166 80.5 68.499s75.5 27.166 113.5 26.499c71.333 -1.33301 122.5 -17.5 153.5 -48.5s46.5 -84.833 46.5 -161.5v-245c0 -30.667 3.33301 -55.667 10 -75zM316 137.001v112.001c-56.667 -10.667 -96 -21.334 -118 -32.001
c-37.333 -17.333 -56 -42 -56 -74c0 -40.667 20 -61 60 -61c32.667 0 70.667 18.333 114 55zM83 732.002h154l94 -146h-102z" />
    <glyph glyph-name="aacute" unicode="&#xe1;" horiz-adv-x="500" 
d="M450 0l-121 0.000976562l-8 45c-54 -36.667 -108 -55 -162 -55c-44.667 0 -80 14 -106 42c-23.333 26 -35 58 -35 96c0 58.667 24.167 104.334 72.5 137.001s123.5 55 225.5 67v44c0 41.333 -25.333 62 -76 62c-44.667 0 -82.667 -21.333 -114 -64l-80 61
c16 27.333 42.833 50.166 80.5 68.499s75.5 27.166 113.5 26.499c71.333 -1.33301 122.5 -17.5 153.5 -48.5s46.5 -84.833 46.5 -161.5v-245c0 -30.667 3.33301 -55.667 10 -75zM316 137.001v112.001c-56.667 -10.667 -96 -21.334 -118 -32.001
c-37.333 -17.333 -56 -42 -56 -74c0 -40.667 20 -61 60 -61c32.667 0 70.667 18.333 114 55zM263 732.002h154l-146 -146h-102z" />
    <glyph glyph-name="acircumflex" unicode="&#xe2;" horiz-adv-x="500" 
d="M450 0l-121 0.000976562l-8 45c-54 -36.667 -108 -55 -162 -55c-44.667 0 -80 14 -106 42c-23.333 26 -35 58 -35 96c0 58.667 24.167 104.334 72.5 137.001s123.5 55 225.5 67v44c0 41.333 -25.333 62 -76 62c-44.667 0 -82.667 -21.333 -114 -64l-80 61
c16 27.333 42.833 50.166 80.5 68.499s75.5 27.166 113.5 26.499c71.333 -1.33301 122.5 -17.5 153.5 -48.5s46.5 -84.833 46.5 -161.5v-245c0 -30.667 3.33301 -55.667 10 -75zM316 137.001v112.001c-56.667 -10.667 -96 -21.334 -118 -32.001
c-37.333 -17.333 -56 -42 -56 -74c0 -40.667 20 -61 60 -61c32.667 0 70.667 18.333 114 55zM187 732.002h124l115 -146h-113l-63 82l-64 -82h-112z" />
    <glyph glyph-name="atilde" unicode="&#xe3;" horiz-adv-x="500" 
d="M450 0l-121 0.000976562l-8 45c-54 -36.667 -108 -55 -162 -55c-44.667 0 -80 14 -106 42c-23.333 26 -35 58 -35 96c0 58.667 24.167 104.334 72.5 137.001s123.5 55 225.5 67v44c0 41.333 -25.333 62 -76 62c-44.667 0 -82.667 -21.333 -114 -64l-80 61
c16 27.333 42.833 50.166 80.5 68.499s75.5 27.166 113.5 26.499c71.333 -1.33301 122.5 -17.5 153.5 -48.5s46.5 -84.833 46.5 -161.5v-245c0 -30.667 3.33301 -55.667 10 -75zM316 137.001v112.001c-56.667 -10.667 -96 -21.334 -118 -32.001
c-37.333 -17.333 -56 -42 -56 -74c0 -40.667 20 -61 60 -61c32.667 0 70.667 18.333 114 55zM368 722.002h64.999c-17.333 -81.333 -54.333 -122 -111 -122c-17.333 0 -43 5.83301 -77 17.5s-57.333 17.5 -70 17.5c-21.333 0 -36.666 -13.667 -45.999 -41h-62
c4.66699 34 16 62 34 84c21.333 25.333 48 38 80 38c20 0 46.167 -6.16699 78.5 -18.5s52.833 -18.5 61.5 -18.5c25.333 0 41 14.333 47 43z" />
    <glyph glyph-name="adieresis" unicode="&#xe4;" horiz-adv-x="500" 
d="M450 0l-121 0.000976562l-8 45c-54 -36.667 -108 -55 -162 -55c-44.667 0 -80 14 -106 42c-23.333 26 -35 58 -35 96c0 58.667 24.167 104.334 72.5 137.001s123.5 55 225.5 67v44c0 41.333 -25.333 62 -76 62c-44.667 0 -82.667 -21.333 -114 -64l-80 61
c16 27.333 42.833 50.166 80.5 68.499s75.5 27.166 113.5 26.499c71.333 -1.33301 122.5 -17.5 153.5 -48.5s46.5 -84.833 46.5 -161.5v-245c0 -30.667 3.33301 -55.667 10 -75zM316 137.001v112.001c-56.667 -10.667 -96 -21.334 -118 -32.001
c-37.333 -17.333 -56 -42 -56 -74c0 -40.667 20 -61 60 -61c32.667 0 70.667 18.333 114 55zM95 712.002h120v-116h-120v116zM285 712.002h120v-116h-120v116z" />
    <glyph glyph-name="aring" unicode="&#xe5;" horiz-adv-x="500" 
d="M450 0l-121 0.000976562l-8 45c-54 -36.667 -108 -55 -162 -55c-44.667 0 -80 14 -106 42c-23.333 26 -35 58 -35 96c0 58.667 24.167 104.334 72.5 137.001s123.5 55 225.5 67v44c0 41.333 -25.333 62 -76 62c-44.667 0 -82.667 -21.333 -114 -64l-80 61
c16 27.333 42.833 50.166 80.5 68.499s75.5 27.166 113.5 26.499c71.333 -1.33301 122.5 -17.5 153.5 -48.5s46.5 -84.833 46.5 -161.5v-245c0 -30.667 3.33301 -55.667 10 -75zM316 137.001v112.001c-56.667 -10.667 -96 -21.334 -118 -32.001
c-37.333 -17.333 -56 -42 -56 -74c0 -40.667 20 -61 60 -61c32.667 0 70.667 18.333 114 55zM142 693.002c0 30 10.5 55.5 31.5 76.5s46.5 31.5 76.5 31.5s55.5 -10.5 76.5 -31.5s31.5 -46.5 31.5 -76.5s-10.5 -55.5 -31.5 -76.5s-46.5 -31.5 -76.5 -31.5
s-55.5 10.5 -76.5 31.5s-31.5 46.5 -31.5 76.5zM196 693.002c0 -14.667 5.33301 -27.334 16 -38.001s23.334 -16 38.001 -16c15.333 0 28.166 5.33301 38.499 16s15.5 23.334 15.5 38.001c0 15.333 -5.16699 28.166 -15.5 38.499s-23.166 15.5 -38.499 15.5
c-14.667 0 -27.334 -5.16699 -38.001 -15.5s-16 -23.166 -16 -38.499z" />
    <glyph glyph-name="ae" unicode="&#xe6;" horiz-adv-x="778" 
d="M320 137l0.000976562 112.002c-58.667 -10.667 -99.334 -21.334 -122.001 -32.001c-37.333 -16.667 -56 -41.334 -56 -74.001c0 -40.667 20 -61 60 -61c28.667 0 68 18.333 118 55zM434.001 324.002h202c-0.666992 36 -10 64 -28 84s-42 30 -72 30
c-31.333 0 -56 -10 -74 -30s-27.333 -48 -28 -84zM750.001 240.002l-315.998 0.00195312v-52c0 -29.333 10 -53 30 -71s46 -27 78 -27c27.333 0 50.666 6 69.999 18c13.333 8 29.333 22.667 48 44l90 -56c-46 -70.667 -118.667 -106 -218 -106c-74 0 -128.333 27 -163 81
c-75.333 -54 -145.333 -81 -210 -81c-44.667 0 -80 14 -106 42c-23.333 26 -35 58 -35 96c0 58.667 24.5 104.334 73.5 137.001s125.167 55 228.5 67v44c0 19.333 -7.66699 34.5 -23 45.5s-34.333 16.5 -57 16.5c-44.667 0 -82.667 -21.333 -114 -64l-80 61
c16 27.333 42.833 50.166 80.5 68.499s75.5 27.166 113.5 26.499c71.333 -2 121.666 -20.667 150.999 -56c34.667 37.333 81.667 56 141 56c68 0.666992 122 -23.333 162 -72c37.333 -44.667 56 -100.334 56 -167.001v-51z" />
    <glyph glyph-name="ccedilla" unicode="&#xe7;" horiz-adv-x="500" 
d="M455 391l-102.999 -40.0029c-12 26 -24 44.667 -36 56c-16.667 15.333 -38.667 23 -66 23c-68 0 -102 -56.667 -102 -170s35.333 -170 106 -170c43.333 0 80 27.667 110 83l94 -53c-46.667 -87.333 -116 -130.666 -208 -129.999c-70 0 -125.167 24.333 -165.5 73
s-60.5 114.334 -60.5 197.001s20.167 148.334 60.5 197.001s95.5 73 165.5 73c49.333 0 92.166 -12.333 128.499 -37s61.833 -58.667 76.5 -102zM132.001 -203.003l17.999 42c30 -10.667 56 -16 78 -16c34.667 0 52 14 52 42c0 20.667 -14.333 31 -43 31c-8 0 -22 -2 -42 -6
l-20 20l59 90h53l-43 -63c13.333 3.33301 25.333 5 36 5c24.667 0 45 -6 61 -18c18 -14 27 -33.333 27 -58c0 -30.667 -14 -55 -42 -73c-24 -14.667 -52.333 -22 -85 -22c-29.333 0 -65.666 8.66699 -108.999 26z" />
    <glyph glyph-name="egrave" unicode="&#xe8;" horiz-adv-x="500" 
d="M148 324h200c-0.666992 36 -10 64 -28 84s-42 30 -72 30s-54 -10 -72 -30s-27.333 -48 -28 -84zM462 240l-314 -0.00195312c2 -100 38 -150 108 -150c26.667 0 49.334 6 68.001 18c13.333 8 29.333 22.667 48 44l90 -56c-46 -70.667 -118.667 -106 -218 -106
c-67.333 0 -120.833 24.333 -160.5 73s-59.5 114.334 -59.5 197.001s20.167 148.334 60.5 197.001s95.5 73 165.5 73c65.333 0 117.666 -24 156.999 -72c36.667 -45.333 55 -101 55 -167v-51zM83 731.998h154l94 -146h-102z" />
    <glyph glyph-name="eacute" unicode="&#xe9;" horiz-adv-x="500" 
d="M148 324h200c-0.666992 36 -10 64 -28 84s-42 30 -72 30s-54 -10 -72 -30s-27.333 -48 -28 -84zM462 240l-314 -0.00195312c2 -100 38 -150 108 -150c26.667 0 49.334 6 68.001 18c13.333 8 29.333 22.667 48 44l90 -56c-46 -70.667 -118.667 -106 -218 -106
c-67.333 0 -120.833 24.333 -160.5 73s-59.5 114.334 -59.5 197.001s20.167 148.334 60.5 197.001s95.5 73 165.5 73c65.333 0 117.666 -24 156.999 -72c36.667 -45.333 55 -101 55 -167v-51zM263 731.998h154l-146 -146h-102z" />
    <glyph glyph-name="ecircumflex" unicode="&#xea;" horiz-adv-x="500" 
d="M148 324h200c-0.666992 36 -10 64 -28 84s-42 30 -72 30s-54 -10 -72 -30s-27.333 -48 -28 -84zM462 240l-314 -0.00195312c2 -100 38 -150 108 -150c26.667 0 49.334 6 68.001 18c13.333 8 29.333 22.667 48 44l90 -56c-46 -70.667 -118.667 -106 -218 -106
c-67.333 0 -120.833 24.333 -160.5 73s-59.5 114.334 -59.5 197.001s20.167 148.334 60.5 197.001s95.5 73 165.5 73c65.333 0 117.666 -24 156.999 -72c36.667 -45.333 55 -101 55 -167v-51zM187 731.998h124l115 -146h-113l-63 82l-64 -82h-112z" />
    <glyph glyph-name="edieresis" unicode="&#xeb;" horiz-adv-x="500" 
d="M148 324h200c-0.666992 36 -10 64 -28 84s-42 30 -72 30s-54 -10 -72 -30s-27.333 -48 -28 -84zM462 240l-314 -0.00195312c2 -100 38 -150 108 -150c26.667 0 49.334 6 68.001 18c13.333 8 29.333 22.667 48 44l90 -56c-46 -70.667 -118.667 -106 -218 -106
c-67.333 0 -120.833 24.333 -160.5 73s-59.5 114.334 -59.5 197.001s20.167 148.334 60.5 197.001s95.5 73 165.5 73c65.333 0 117.666 -24 156.999 -72c36.667 -45.333 55 -101 55 -167v-51zM95 711.998h120v-116h-120v116zM285 711.998h120v-116h-120v116z" />
    <glyph glyph-name="igrave" unicode="&#xec;" horiz-adv-x="278" 
d="M201 520v-520h-124v520h124zM-26 732h154l94 -146h-102z" />
    <glyph glyph-name="iacute" unicode="&#xed;" horiz-adv-x="278" 
d="M201 520v-520h-124v520h124zM154 732h154l-146 -146h-102z" />
    <glyph glyph-name="icircumflex" unicode="&#xee;" horiz-adv-x="278" 
d="M201 520v-520h-124v520h124zM78 732h124l115 -146h-113l-63 82l-64 -82h-112z" />
    <glyph glyph-name="idieresis" unicode="&#xef;" horiz-adv-x="278" 
d="M201 520v-520h-124v520h124zM-14 712h120v-116h-120v116zM176 712h120v-116h-120v116z" />
    <glyph glyph-name="eth" unicode="&#xf0;" horiz-adv-x="500" 
d="M250 90c68 0 102 51.333 102 154s-34 154 -102 154s-102 -51.333 -102 -154s34 -154 102 -154zM138 688l108.001 33.999c18 -12.667 36.667 -28.667 56 -48l100 48l36 -64l-88 -43c39.333 -52.667 70.166 -112 92.499 -178s33.5 -130.333 33.5 -193
c0 -75.333 -20.333 -136.5 -61 -183.5s-95.667 -70.5 -165 -70.5s-124.333 23.5 -165 70.5s-61 108.167 -61 183.5s20.333 136.5 61 183.5s95.667 70.5 165 70.5c14 0 28 -1.66699 42 -5c-10 24.667 -24 49.334 -42 74.001l-102 -49l-36 64l91 44
c-17.333 19.333 -39 40 -65 62z" />
    <glyph glyph-name="ntilde" unicode="&#xf1;" horiz-adv-x="556" 
d="M188 0l-123.999 0.000976562v520h114v-56c63.333 44 116.666 66 159.999 66c50.667 0 89 -15.333 115 -46s39 -73.334 39 -128.001v-356h-124v338c0 61.333 -21.333 92 -64 92c-45.333 0 -84 -18.333 -116 -55v-375zM391.001 722.001h64.999
c-17.333 -81.333 -54.333 -122 -111 -122c-17.333 0 -43 5.83301 -77 17.5s-57.333 17.5 -70 17.5c-21.333 0 -36.666 -13.667 -45.999 -41h-62c4.66699 34 16 62 34 84c21.333 25.333 48 38 80 38c20 0 46.167 -6.16699 78.5 -18.5s52.833 -18.5 61.5 -18.5
c25.333 0 41 14.333 47 43z" />
    <glyph glyph-name="ograve" unicode="&#xf2;" horiz-adv-x="500" 
d="M352 260c0 113.333 -34 170 -102 170s-102 -56.667 -102 -170s34 -170 102 -170s102 56.667 102 170zM24 260c0 82.667 20.167 148.334 60.5 197.001s95.5 73 165.5 73s125.167 -24.333 165.5 -73s60.5 -114.334 60.5 -197.001s-20.167 -148.334 -60.5 -197.001
s-95.5 -73 -165.5 -73s-125.167 24.333 -165.5 73s-60.5 114.334 -60.5 197.001zM80 732h154l94 -146h-102z" />
    <glyph glyph-name="oacute" unicode="&#xf3;" horiz-adv-x="500" 
d="M352 260c0 113.333 -34 170 -102 170s-102 -56.667 -102 -170s34 -170 102 -170s102 56.667 102 170zM24 260c0 82.667 20.167 148.334 60.5 197.001s95.5 73 165.5 73s125.167 -24.333 165.5 -73s60.5 -114.334 60.5 -197.001s-20.167 -148.334 -60.5 -197.001
s-95.5 -73 -165.5 -73s-125.167 24.333 -165.5 73s-60.5 114.334 -60.5 197.001zM260 732h154l-146 -146h-102z" />
    <glyph glyph-name="ocircumflex" unicode="&#xf4;" horiz-adv-x="500" 
d="M352 260c0 113.333 -34 170 -102 170s-102 -56.667 -102 -170s34 -170 102 -170s102 56.667 102 170zM24 260c0 82.667 20.167 148.334 60.5 197.001s95.5 73 165.5 73s125.167 -24.333 165.5 -73s60.5 -114.334 60.5 -197.001s-20.167 -148.334 -60.5 -197.001
s-95.5 -73 -165.5 -73s-125.167 24.333 -165.5 73s-60.5 114.334 -60.5 197.001zM184 732h124l115 -146h-113l-63 82l-64 -82h-112z" />
    <glyph glyph-name="otilde" unicode="&#xf5;" horiz-adv-x="500" 
d="M352 260c0 113.333 -34 170 -102 170s-102 -56.667 -102 -170s34 -170 102 -170s102 56.667 102 170zM24 260c0 82.667 20.167 148.334 60.5 197.001s95.5 73 165.5 73s125.167 -24.333 165.5 -73s60.5 -114.334 60.5 -197.001s-20.167 -148.334 -60.5 -197.001
s-95.5 -73 -165.5 -73s-125.167 24.333 -165.5 73s-60.5 114.334 -60.5 197.001zM365 722h64.999c-17.333 -81.333 -54.333 -122 -111 -122c-17.333 0 -43 5.83301 -77 17.5s-57.333 17.5 -70 17.5c-21.333 0 -36.666 -13.667 -45.999 -41h-62c4.66699 34 16 62 34 84
c21.333 25.333 48 38 80 38c20 0 46.167 -6.16699 78.5 -18.5s52.833 -18.5 61.5 -18.5c25.333 0 41 14.333 47 43z" />
    <glyph glyph-name="odieresis" unicode="&#xf6;" horiz-adv-x="500" 
d="M352 260c0 113.333 -34 170 -102 170s-102 -56.667 -102 -170s34 -170 102 -170s102 56.667 102 170zM24 260c0 82.667 20.167 148.334 60.5 197.001s95.5 73 165.5 73s125.167 -24.333 165.5 -73s60.5 -114.334 60.5 -197.001s-20.167 -148.334 -60.5 -197.001
s-95.5 -73 -165.5 -73s-125.167 24.333 -165.5 73s-60.5 114.334 -60.5 197.001zM92 712h120v-116h-120v116zM282 712h120v-116h-120v116z" />
    <glyph glyph-name="divide" unicode="&#xf7;" horiz-adv-x="600" 
d="M560 206h-520v108h520v-108zM389 449c0 -22.667 -9 -43 -27 -61s-39 -27 -63 -27c-22.667 0 -42.834 9.16699 -60.501 27.5s-26.5 38.5 -26.5 60.5c0 22.667 8.83301 43.167 26.5 61.5s37.834 27.5 60.501 27.5c24 0 45 -9.16699 63 -27.5s27 -38.833 27 -61.5zM389 70
c0 -22.667 -9 -43 -27 -61s-39 -27 -63 -27c-22.667 0 -42.834 9.16699 -60.501 27.5s-26.5 38.5 -26.5 60.5c0 22.667 8.83301 43.167 26.5 61.5s37.834 27.5 60.501 27.5c24 0 45 -9.16699 63 -27.5s27 -38.833 27 -61.5z" />
    <glyph glyph-name="oslash" unicode="&#xf8;" horiz-adv-x="500" 
d="M344 342l-134 -244c12 -5.33301 25.333 -8 40 -8c68 0 102 56.667 102 170c0 30 -2.66699 57.333 -8 82zM160 7l-59 -106.999h-91l84 153c-46.667 48.667 -70 117.667 -70 207c0 82.667 20.167 148.334 60.5 197.001s95.5 73 165.5 73c36 0 68 -6.66699 96 -20l56 102h91
l-82 -149c43.333 -48.667 65 -116.334 65 -203.001c0 -82.667 -20.167 -148.334 -60.5 -197.001s-95.5 -73 -165.5 -73c-32 0 -62 5.66699 -90 17zM158 169.001l137.999 250c-13.333 7.33301 -28.666 11 -45.999 11c-68 0 -102 -56.667 -102 -170
c0 -36.667 3.33301 -67 10 -91z" />
    <glyph glyph-name="ugrave" unicode="&#xf9;" horiz-adv-x="556" 
d="M368 520l123.999 -0.000976562v-520h-114v56c-63.333 -44 -116.666 -66 -159.999 -66c-50.667 0 -89 15.333 -115 46s-39 73.334 -39 128.001v356h124v-338c0 -61.333 21.333 -92 64 -92c45.333 0 84 18.333 116 55v375zM110.999 731.999h154l94 -146h-102z" />
    <glyph glyph-name="uacute" unicode="&#xfa;" horiz-adv-x="556" 
d="M368 520l123.999 -0.000976562v-520h-114v56c-63.333 -44 -116.666 -66 -159.999 -66c-50.667 0 -89 15.333 -115 46s-39 73.334 -39 128.001v356h124v-338c0 -61.333 21.333 -92 64 -92c45.333 0 84 18.333 116 55v375zM290.999 731.999h154l-146 -146h-102z" />
    <glyph glyph-name="ucircumflex" unicode="&#xfb;" horiz-adv-x="556" 
d="M368 520l123.999 -0.000976562v-520h-114v56c-63.333 -44 -116.666 -66 -159.999 -66c-50.667 0 -89 15.333 -115 46s-39 73.334 -39 128.001v356h124v-338c0 -61.333 21.333 -92 64 -92c45.333 0 84 18.333 116 55v375zM214.999 731.999h124l115 -146h-113l-63 82
l-64 -82h-112z" />
    <glyph glyph-name="udieresis" unicode="&#xfc;" horiz-adv-x="556" 
d="M368 520l123.999 -0.000976562v-520h-114v56c-63.333 -44 -116.666 -66 -159.999 -66c-50.667 0 -89 15.333 -115 46s-39 73.334 -39 128.001v356h124v-338c0 -61.333 21.333 -92 64 -92c45.333 0 84 18.333 116 55v375zM122.999 711.999h120v-116h-120v116z
M312.999 711.999h120v-116h-120v116z" />
    <glyph glyph-name="yacute" unicode="&#xfd;" horiz-adv-x="444" 
d="M10 -186l0.000976562 102c12.667 -2.66699 30 -4 52 -4c41.333 0 68.666 13.5 81.999 40.5s20 47.5 20 61.5c0 7.33301 -5.33301 28 -16 62l-139 444h125l86 -320h2l89 320h124l-164 -521c-23.333 -74 -49.5 -124 -78.5 -150s-69.833 -39 -122.5 -39
c-20 0 -40 1.33301 -60 4zM235.001 732h154l-146 -146h-102z" />
    <glyph glyph-name="thorn" unicode="&#xfe;" horiz-adv-x="556" 
d="M64 -190l-0.000976562 912.001h119v-250c40 38.667 84.333 58 133 58c66.667 0 118.667 -27 156 -81c34.667 -51.333 52 -119 52 -203c0 -68.667 -18 -127.334 -54 -176.001c-38.667 -53.333 -90 -80 -154 -80c-21.333 0 -44.666 5.66699 -69.999 17s-44 25 -56 41h-2
v-238h-124zM187.999 384.001v-250c32 -29.333 64 -44 96 -44c77.333 0 116 56.667 116 170s-38.667 170 -116 170c-22.667 0 -42 -5 -58 -15z" />
    <glyph glyph-name="ydieresis" unicode="&#xff;" horiz-adv-x="444" 
d="M10 -186l0.000976562 102c12.667 -2.66699 30 -4 52 -4c41.333 0 68.666 13.5 81.999 40.5s20 47.5 20 61.5c0 7.33301 -5.33301 28 -16 62l-139 444h125l86 -320h2l89 320h124l-164 -521c-23.333 -74 -49.5 -124 -78.5 -150s-69.833 -39 -122.5 -39
c-20 0 -40 1.33301 -60 4zM67.001 712h120v-116h-120v116zM257.001 712h120v-116h-120v116z" />
    <glyph glyph-name="dotlessi" unicode="&#x131;" horiz-adv-x="278" 
d="M201 520v-520h-124v520h124z" />
    <glyph glyph-name="Lslash" unicode="&#x141;" horiz-adv-x="556" 
d="M216 346v-230h314v-116h-452v290l-78 -32v100l78 32v332h138v-276l158 64v-100z" />
    <glyph glyph-name="lslash" unicode="&#x142;" horiz-adv-x="278" 
d="M201 379v-379h-124v317l-77 -39v100l77 39v305h124v-243l77 39v-100z" />
    <glyph glyph-name="OE" unicode="&#x152;" horiz-adv-x="944" 
d="M459 266v190c0 62 -10.667 104.667 -32 128c-20 21.333 -55.667 32 -107 32c-53.333 0 -93 -15.333 -119 -46c-33.333 -40 -50 -109.667 -50 -209s16.667 -169 50 -209c26 -30.667 65.667 -46 119 -46c51.333 0 87.333 11.167 108 33.5s31 64.5 31 126.5zM813 434v-116
h-216v-202h323v-116h-403c-19.333 -0 -48.333 -1.66699 -87 -5s-68 -5 -88 -5c-114 0 -198 31.667 -252 95c-51.333 60 -77 152 -77 276s25.667 216 77 276c54 63.333 138 95 252 95c12.667 0 37 -1.66699 73 -5s64.333 -5 85 -5h403v-116h-306v-172h216z" />
    <glyph glyph-name="oe" unicode="&#x153;" horiz-adv-x="778" 
d="M136 260c0 -113.333 32.667 -170 98 -170s98 56.667 98 170s-32.667 170 -98 170s-98 -56.667 -98 -170zM446 324h190c-0.666992 35.333 -9.66699 63.166 -27 83.499s-40 30.5 -68 30.5s-50.667 -10.167 -68 -30.5s-26.333 -48.166 -27 -83.499zM750 240
l-304.002 -0.00292969c0.666992 -53.333 9.83398 -91.666 27.501 -114.999s45.167 -35 82.5 -35c34 0 68.667 20.667 104 62l90 -56c-46 -70.667 -113.333 -106 -202 -106c-65.333 0 -116.333 23 -153 69c-35.333 -46 -89.666 -69 -162.999 -69
c-67.333 0 -120.833 24.333 -160.5 73s-59.5 114.334 -59.5 197.001s19.833 148.334 59.5 197.001s93.167 73 160.5 73c71.333 0 125 -22.333 161 -67c35.333 44.667 84.333 67 147 67c64 0 115.667 -24 155 -72c36.667 -45.333 55 -101 55 -167v-51z" />
    <glyph glyph-name="Scaron" unicode="&#x160;" 
d="M545 569l-125.999 -39c-23.333 62.667 -66.333 94 -129 94c-68.667 0 -103 -26.667 -103 -80c0 -32.667 32 -62.334 96 -89.001c104.667 -44 164.667 -70.667 180 -80c64 -41.333 96 -95.666 96 -162.999c0 -73.333 -21.833 -128.666 -65.5 -165.999
s-106.167 -56 -187.5 -56c-60 0 -115 15.5 -165 46.5s-85 72.5 -105 124.5l114 50c36.667 -75.333 89 -113 157 -113c81.333 0 122 32 122 96c0 38 -32 71.667 -96 101l-180 81c-64 39.333 -96 90.666 -96 153.999c0 62 23.333 111.667 70 149
c43.333 35.333 97.666 53 162.999 53c58.667 0 110.5 -14.167 155.5 -42.5s78.167 -68.5 99.5 -120.5zM367.001 762h-124l-113 146h112l64 -82l63 82h113z" />
    <glyph glyph-name="scaron" unicode="&#x161;" horiz-adv-x="444" 
d="M395 451l-78.001 -67.998c-34 36.667 -66.333 55 -97 55c-46.667 0 -70 -17 -70 -51c0 -22.667 22.333 -42.667 67 -60c68.667 -26 110.667 -44 126 -54c44.667 -30 67 -72.333 67 -127c0 -52 -18.333 -91.333 -55 -118c-33.333 -25.333 -78.666 -38 -135.999 -38
c-84 0 -149.667 35 -197 105l83 62c36 -50 76.333 -75 121 -75c22 0 39.833 5.5 53.5 16.5s20.5 25.167 20.5 42.5c0 23.333 -22.333 43.666 -67 60.999c-70 27.333 -112 45.666 -126 54.999c-44.667 29.333 -67 70 -67 122c0 46.667 17.333 84 52 112
c32.667 26 72.667 39 120 39c77.333 0 138.333 -26.333 183 -79zM282.999 586.002h-124l-113 146h112l64 -82l63 82h113z" />
    <glyph glyph-name="Ydieresis" unicode="&#x178;" horiz-adv-x="556" 
d="M154 722l124 -286l124 286h144l-199 -434v-288h-138v288l-199 434h144zM123 888h120v-116h-120v116zM313 888h120v-116h-120v116z" />
    <glyph glyph-name="Zcaron" unicode="&#x17d;" horiz-adv-x="556" 
d="M530 116v-116h-514v117l337 489h-314v116h488v-110l-349 -496h352zM339 762h-124l-113 146h112l64 -82l63 82h113z" />
    <glyph glyph-name="zcaron" unicode="&#x17e;" horiz-adv-x="444" 
d="M39 420v100h385v-88l-250 -332h252v-100h-408v88l251 332h-230zM283 586h-124l-113 146h112l64 -82l63 82h113z" />
    <glyph glyph-name="florin" unicode="&#x192;" 
d="M58 -182l19.002 106c23.333 -6.66699 41.333 -10 54 -10c16.667 0 29 7.66699 37 23c10 18.667 21.667 59.667 35 123c10 47.333 29.667 149.333 59 306h-97v94h119c19.333 102.667 40.666 172.334 63.999 209.001c27.333 42 69.666 63 126.999 63
c24.667 0 50.667 -3 78 -9l-16 -106c-19.333 7.33301 -35 11 -47 11c-25.333 0 -44.333 -14.333 -57 -43c-9.33301 -22.667 -18 -64.334 -26 -125.001h103v-94h-120l-57 -299c-18.667 -89.333 -40.667 -152 -66 -188c-30.667 -44 -76.667 -67 -138 -69
c-16 -0.666992 -39.667 2 -71 8z" />
    <glyph glyph-name="circumflex" unicode="&#x2c6;" horiz-adv-x="278" 
d="M76 732h124l115 -146h-113l-63 82l-64 -82h-112z" />
    <glyph glyph-name="caron" unicode="&#x2c7;" horiz-adv-x="278" 
d="M200 586h-124l-113 146h112l64 -82l63 82h113z" />
    <glyph glyph-name="breve" unicode="&#x2d8;" horiz-adv-x="278" 
d="M242 732h66.001c-14 -97.333 -72.667 -146 -176 -146c-48 0 -86.333 12.5 -115 37.5s-44.334 61.167 -47.001 108.5h66c5.33301 -46.667 40 -70 104 -70c58 0 92 23.333 102 70z" />
    <glyph glyph-name="dotaccent" unicode="&#x2d9;" horiz-adv-x="278" 
d="M79 712h120v-116h-120v116z" />
    <glyph glyph-name="ring" unicode="&#x2da;" horiz-adv-x="278" 
d="M31 693c0 30 10.5 55.5 31.5 76.5s46.5 31.5 76.5 31.5s55.5 -10.5 76.5 -31.5s31.5 -46.5 31.5 -76.5s-10.5 -55.5 -31.5 -76.5s-46.5 -31.5 -76.5 -31.5s-55.5 10.5 -76.5 31.5s-31.5 46.5 -31.5 76.5zM85 693c0 -14.667 5.33301 -27.334 16 -38.001
s23.334 -16 38.001 -16c15.333 0 28.166 5.33301 38.499 16s15.5 23.334 15.5 38.001c0 15.333 -5.16699 28.166 -15.5 38.499s-23.166 15.5 -38.499 15.5c-14.667 0 -27.334 -5.16699 -38.001 -15.5s-16 -23.166 -16 -38.499z" />
    <glyph glyph-name="ogonek" unicode="&#x2db;" horiz-adv-x="278" 
d="M258 21v-11.999c-94 -35.333 -141 -77 -141 -125c0 -32 17.333 -48 52 -48c22 0 54 13.667 96 41l20 -36c-56.667 -38 -107 -57 -151 -57c-30 0 -55 7.66699 -75 23s-30 37.333 -30 66c0 44.667 27 80.667 81 108c38.667 19.333 88 32.666 148 39.999z" />
    <glyph glyph-name="tilde" unicode="&#x2dc;" horiz-adv-x="278" 
d="M257 722h64.999c-17.333 -81.333 -54.333 -122 -111 -122c-17.333 0 -43 5.83301 -77 17.5s-57.333 17.5 -70 17.5c-21.333 0 -36.666 -13.667 -45.999 -41h-62c4.66699 34 16 62 34 84c21.333 25.333 48 38 80 38c20 0 46.167 -6.16699 78.5 -18.5
s52.833 -18.5 61.5 -18.5c25.333 0 41 14.333 47 43z" />
    <glyph glyph-name="hungarumlaut" unicode="&#x2dd;" horiz-adv-x="278" 
d="M32 732h154l-132 -146h-98zM226 732h154l-146 -146h-102z" />
    <glyph glyph-name="endash" unicode="&#x2013;" horiz-adv-x="500" 
d="M500 218h-500v84h500v-84z" />
    <glyph glyph-name="emdash" unicode="&#x2014;" horiz-adv-x="1000" 
d="M1000 218h-1000v84h1000v-84z" />
    <glyph glyph-name="quoteleft" unicode="&#x2018;" horiz-adv-x="278" 
d="M199 732l-51 -150h60v-142h-138v142l64 150h65z" />
    <glyph glyph-name="quoteright" unicode="&#x2019;" horiz-adv-x="278" 
d="M79 430l51 150h-60v142h138v-142l-64 -150h-65z" />
    <glyph glyph-name="quotesinglbase" unicode="&#x201a;" horiz-adv-x="278" 
d="M79 -150l51 150h-60v142h138v-142l-64 -150h-65z" />
    <glyph glyph-name="quotedblleft" unicode="&#x201c;" horiz-adv-x="444" 
d="M394 732l-51 -150h60v-142h-138v142l64 150h65zM171 732l-51 -150h60v-142h-138v142l64 150h65z" />
    <glyph glyph-name="quotedblright" unicode="&#x201d;" horiz-adv-x="444" 
d="M50 430l51 150h-60v142h138v-142l-64 -150h-65zM273 430l51 150h-60v142h138v-142l-64 -150h-65z" />
    <glyph glyph-name="quotedblbase" unicode="&#x201e;" horiz-adv-x="444" 
d="M50 -150l51 150h-60v142h138v-142l-64 -150h-65zM273 -150l51 150h-60v142h138v-142l-64 -150h-65z" />
    <glyph glyph-name="dagger" unicode="&#x2020;" horiz-adv-x="500" 
d="M432 570v-106l-158 30l26 -161l-32 -407h-36l-32 407l26 161l-158 -30v106l158 -30l-26 192h100l-26 -192z" />
    <glyph glyph-name="daggerdbl" unicode="&#x2021;" horiz-adv-x="500" 
d="M200 329l26 173l-158 -30v106l158 -30l-26 184h100l-26 -184l158 30v-106l-158 30l26 -173l-26 -173l158 30v-106l-158 30l26 -184h-100l26 184l-158 -30v106l158 -30z" />
    <glyph glyph-name="bullet" unicode="&#x2022;" horiz-adv-x="500" 
d="M69 361c0 50 17.5 92.5 52.5 127.5s77.5 52.5 127.5 52.5s92.667 -17.5 128 -52.5s53 -77.5 53 -127.5s-17.667 -92.667 -53 -128s-78 -53 -128 -53s-92.5 17.667 -127.5 53s-52.5 78 -52.5 128z" />
    <glyph glyph-name="ellipsis" unicode="&#x2026;" horiz-adv-x="1000" 
d="M904 0h-142v142h142v-142zM571 0h-142v142h142v-142zM238 0h-142v142h142v-142z" />
    <glyph glyph-name="perthousand" unicode="&#x2030;" horiz-adv-x="1000" 
d="M162 722c40.667 0 75.5 -14.5 104.5 -43.5s43.5 -63.833 43.5 -104.5s-14.5 -75.5 -43.5 -104.5s-63.833 -43.5 -104.5 -43.5s-75.5 14.5 -104.5 43.5s-43.5 63.833 -43.5 104.5s14.5 75.5 43.5 104.5s63.833 43.5 104.5 43.5zM162 640
c-18.667 0 -34.334 -6.33301 -47.001 -19s-19 -28.334 -19 -47.001s6.33301 -34.334 19 -47.001s28.334 -19 47.001 -19s34.334 6.33301 47.001 19s19 28.334 19 47.001s-6.33301 34.334 -19 47.001s-28.334 19 -47.001 19zM477 214c-18.667 0 -34.334 -6.33301 -47.001 -19
s-19 -28.334 -19 -47.001s6.33301 -34.334 19 -47.001s28.334 -19 47.001 -19s34.334 6.33301 47.001 19s19 28.334 19 47.001s-6.33301 34.334 -19 47.001s-28.334 19 -47.001 19zM477 296c40.667 0 75.5 -14.5 104.5 -43.5s43.5 -63.833 43.5 -104.5
s-14.5 -75.5 -43.5 -104.5s-63.833 -43.5 -104.5 -43.5s-75.5 14.5 -104.5 43.5s-43.5 63.833 -43.5 104.5s14.5 75.5 43.5 104.5s63.833 43.5 104.5 43.5zM838 214c-18.667 0 -34.334 -6.33301 -47.001 -19s-19 -28.334 -19 -47.001s6.33301 -34.334 19 -47.001
s28.334 -19 47.001 -19s34.334 6.33301 47.001 19s19 28.334 19 47.001s-6.33301 34.334 -19 47.001s-28.334 19 -47.001 19zM838 296c40.667 0 75.5 -14.5 104.5 -43.5s43.5 -63.833 43.5 -104.5s-14.5 -75.5 -43.5 -104.5s-63.833 -43.5 -104.5 -43.5
s-75.5 14.5 -104.5 43.5s-43.5 63.833 -43.5 104.5s14.5 75.5 43.5 104.5s63.833 43.5 104.5 43.5zM76 -10l408 742h77l-408 -742h-77z" />
    <glyph glyph-name="guilsinglleft" unicode="&#x2039;" horiz-adv-x="333" 
d="M41 257l120 163h112l-123 -163l123 -157h-112z" />
    <glyph glyph-name="guilsinglright" unicode="&#x203a;" horiz-adv-x="333" 
d="M172 420l120 -163l-120 -157h-112l123 157l-123 163h112z" />
    <glyph glyph-name="fraction" unicode="&#x2044;" horiz-adv-x="167" 
d="M-167 -10l413 742h88l-412 -742h-89z" />
    <glyph glyph-name="trademark" unicode="&#x2122;" horiz-adv-x="1000" 
d="M594 722l93 -258h2l92 258h149v-412h-100v281l-4 2l-100 -283h-77l-100 282h-4v-282h-100v412h149zM363 722v-84h-121v-328h-100v328h-120v84h341z" />
    <glyph glyph-name="fi" unicode="&#xf001;" horiz-adv-x="556" 
d="M492 520v-520h-124v520h124zM492 616h-124v116h124v-116zM313 420h-105v-420h-124v420h-72v100h71v64c0 54.667 11.5 93 34.5 115s60.5 33 112.5 33h82v-100h-34c-26 0 -44.167 -4.33301 -54.5 -13s-15.5 -23 -15.5 -43v-56h105v-100z" />
    <glyph glyph-name="fl" unicode="&#xf002;" horiz-adv-x="556" 
d="M492 0h-124v722h124v-722zM313 420h-105v-420h-124v420h-72v100h71v64c0 54.667 11.5 93 34.5 115s60.5 33 112.5 33h82v-100h-34c-26 0 -44.167 -4.33301 -54.5 -13s-15.5 -23 -15.5 -43v-56h105v-100z" />
    <glyph glyph-name=".null" horiz-adv-x="0" 
 />
    <glyph glyph-name="nonmarkingreturn" horiz-adv-x="305" 
 />
    <glyph glyph-name="glyph231" horiz-adv-x="305" 
 />
  </font>
</defs>
</svg>
